SplineFontDB: 3.0
FontName: NovaSquare-BookOblique
FullName: Nova Square Book Oblique
FamilyName: Nova Square
Weight: Book
Copyright: Copyright (c) 2020-2024 by Wojciech Kalinowski "wmk69" with Reserved Font Name "NovaSquare-BookOblique".\nThis Font Software is licensed under the SIL Open Font License, Version 1.1.
Version: 3.1.0; 2021-05-23
ItalicAngle: -12
UnderlinePosition: -80
UnderlineWidth: 200
Ascent: 1638
Descent: 410
InvalidEm: 0
LayerCount: 2
Layer: 0 1 "Warstwa t+AUIA-a" 1
Layer: 1 1 "Plan pierwszy" 0
XUID: [1021 783 23647091 8360855]
StyleMap: 0x0001
FSType: 0
OS2Version: 3
OS2_WeightWidthSlopeOnly: 0
OS2_UseTypoMetrics: 1
CreationTime: 1260698820
ModificationTime: 1621762461
PfmFamily: 33
TTFWeight: 400
TTFWidth: 5
LineGap: 200
VLineGap: 0
Panose: 2 12 5 4 2 5 3 13 2 4
OS2TypoAscent: 2000
OS2TypoAOffset: 0
OS2TypoDescent: -500
OS2TypoDOffset: 0
OS2TypoLinegap: 200
OS2WinAscent: 2000
OS2WinAOffset: 0
OS2WinDescent: 500
OS2WinDOffset: 0
HheadAscent: 2000
HheadAOffset: 0
HheadDescent: -500
HheadDOffset: 0
OS2SubXSize: 1434
OS2SubYSize: 1331
OS2SubXOff: 0
OS2SubYOff: 287
OS2SupXSize: 1434
OS2SupYSize: 1331
OS2SupXOff: 0
OS2SupYOff: 977
OS2StrikeYSize: 102
OS2StrikeYPos: 512
OS2CapHeight: 1530
OS2XHeight: 1120
OS2Vendor: '    '
OS2CodePages: 20000093.00000000
OS2UnicodeRanges: 8000002f.4000204b.00000000.00000000
Lookup: 258 0 0 "'kern' Horizontal Kerning lookup 0" { "'kern' Horizontal Kerning lookup 0-1 subtable" [307,0,4] } ['kern' ('DFLT' <'dflt' > 'grek' <'dflt' > 'latn' <'dflt' > ) ]
MarkAttachClasses: 1
DEI: 91125
KernClass2: 65 55 "'kern' Horizontal Kerning lookup 0-1 subtable"
 134 A M N Agrave Aacute Acircumflex Atilde Adieresis Aring Ntilde Amacron Abreve Aogonek Nacute Ncommaaccent Ncaron Eng Aringacute uni1E40
 28 B germandbls uni1E02 uni1E9E
 47 C Ccedilla Cacute Ccircumflex Cdotaccent Ccaron
 122 D O Q Eth Ograve Oacute Ocircumflex Otilde Odieresis Oslash Dcaron Dcroat Omacron Obreve Ohungarumlaut Oslashacute uni1E0A

StartChar: .notdef
Encoding: 65536 -1 0
Width: 994
Flags: W
HStem: 0 68<274 748> 1442 68<567 1041>
VStem: 150 694<0 694> 471 694<816 1510>
DStem2: 150 0 259.546 0 0.207912 0.978148<92.2951 1497.19> 733.546 0 844 0 0.207912 0.978148<69.5192 1474.41>
LayerCount: 2
Fore
SplineSet
150 0 m 1,0,-1
 471 1510 l 1,1,-1
 1165 1510 l 1,2,-1
 844 0 l 1,3,-1
 150 0 l 1,0,-1
274 68 m 1,4,-1
 748 68 l 1,5,-1
 1041 1442 l 1,6,-1
 567 1442 l 1,7,-1
 274 68 l 1,4,-1
EndSplineSet
Validated: 1
EndChar

StartChar: exclam
Encoding: 33 33 4
Width: 600
GlyphClass: 2
Flags: W
HStem: -20 245<246.711 397.42> 1510 20G<668.556 725>
VStem: 199 246<27.5918 176.764>
DStem2: 195.726 -20 395.596 -20 0.207912 0.978148<562.949 1492.61>
LayerCount: 2
Fore
SplineSet
296 -20 m 128,-1,1
 246 -20 246 -20 218 16 c 0,2,3
 199 41 199 41 199 75 c 0,4,5
 199 88 199 88 202 102 c 0,6,7
 213 152 213 152 255.5 188.5 c 128,-1,8
 298 225 298 225 348 225 c 0,9,10
 400 225 400 225 426 189 c 0,11,12
 445 163 445 163 445 130 c 0,13,14
 445 116 445 116 442 102 c 0,15,16
 431 52 431 52 388.5 16 c 128,-1,0
 346 -20 346 -20 296 -20 c 128,-1,1
715 1530 m 1,17,-1
 725 1530 l 1,18,-1
 504 490 l 1,19,-1
 295 400 l 1,20,-1
 285 400 l 1,21,-1
 506 1440 l 1,22,-1
 715 1530 l 1,17,-1
EndSplineSet
Validated: 1
EndChar

StartChar: quotedbl
Encoding: 34 34 5
Width: 453
GlyphClass: 2
Flags: W
HStem: 1140 440
VStem: 292 447
DStem2: 292 1140 411.947 1140 0.207912 0.978148<78.1001 396.778> 525 1140 644.947 1140 0.207912 0.978148<78.1001 396.778>
LayerCount: 2
Fore
SplineSet
729 1580 m 1,0,-1
 739 1580 l 1,1,-1
 656 1192 l 1,2,-1
 535 1140 l 1,3,-1
 525 1140 l 1,4,-1
 608 1528 l 1,5,-1
 729 1580 l 1,0,-1
496 1580 m 1,6,-1
 506 1580 l 1,7,-1
 423 1192 l 1,8,-1
 302 1140 l 1,9,-1
 292 1140 l 1,10,-1
 375 1528 l 1,11,-1
 496 1580 l 1,6,-1
EndSplineSet
Validated: 1
EndChar

StartChar: numbersign
Encoding: 35 35 6
Width: 1368
GlyphClass: 2
Flags: W
HStem: 520 120<338 559 704 911 1056 1277> 872 120<413 633 779 985 1131 1351>
DStem2: 495 222 614.947 222 0.207912 0.978148<78.1001 304.794 452.319 664.488 812.221 1038.71> 847 222 966.947 222 0.207912 0.978148<78.1001 304.794 452.319 664.488 812.221 1038.71>
LayerCount: 2
Fore
SplineSet
832 1290 m 1,0,-1
 842 1290 l 1,1,-1
 779 992 l 1,2,-1
 1011 992 l 1,3,-1
 1063 1238 l 1,4,-1
 1184 1290 l 1,5,-1
 1194 1290 l 1,6,-1
 1131 992 l 1,7,-1
 1429 992 l 1,8,-1
 1427 982 l 1,9,-1
 1351 872 l 1,10,-1
 1105 872 l 1,11,-1
 1056 640 l 1,12,-1
 1354 640 l 1,13,-1
 1352 630 l 1,14,-1
 1277 520 l 1,15,-1
 1031 520 l 1,16,-1
 978 274 l 1,17,-1
 857 222 l 1,18,-1
 847 222 l 1,19,-1
 911 520 l 1,20,-1
 679 520 l 1,21,-1
 626 274 l 1,22,-1
 505 222 l 1,23,-1
 495 222 l 1,24,-1
 559 520 l 1,25,-1
 261 520 l 1,26,-1
 263 530 l 1,27,-1
 338 640 l 1,28,-1
 584 640 l 1,29,-1
 633 872 l 1,30,-1
 335 872 l 1,31,-1
 337 882 l 1,32,-1
 413 992 l 1,33,-1
 659 992 l 1,34,-1
 711 1238 l 1,35,-1
 832 1290 l 1,0,-1
985 872 m 1,36,-1
 753 872 l 1,37,-1
 704 640 l 1,38,-1
 936 640 l 1,39,-1
 985 872 l 1,36,-1
EndSplineSet
Validated: 1
EndChar

StartChar: dollar
Encoding: 36 36 7
Width: 1120
GlyphClass: 2
Flags: W
HStem: 0 180<336.68 516 654 858.625> 754 180<579.003 676 814 957.73> 1117 21G<1004 1060.42> 1340 170<649.162 801 936 1010.94>
VStem: 133 190<195.924 362> 370 196<949.117 1122.1> 976 201<552.018 735.248> 1028 186<1198 1323.67>
DStem2: 127.42 -120 317.207 -120 0.207912 0.978148<1215.69 1512.58> 490 -120 590.073 -120 0.207912 0.978148<63.7446 122.783 327.542 893.573 1098.33 1492.76 1687.11 1746.36> 814.475 -120 1014.1 -120 0.207912 0.978148<326.564 794.947>
LayerCount: 2
Fore
SplineSet
710 0 m 2,0,-1
 616 0 l 1,1,-1
 599 -78 l 1,2,-1
 500 -120 l 1,3,-1
 490 -120 l 1,4,-1
 516 -0 l 1,5,-1
 430 0 l 2,6,7
 133 0 133 0 133 247 c 0,8,9
 133 299 133 299 146 362 c 1,10,-1
 345 448 l 1,11,-1
 355 448 l 1,12,-1
 328 320 l 2,13,14
 323 295 323 295 323 275 c 0,15,16
 323 180 323 180 438 180 c 2,17,-1
 554 180 l 1,18,-1
 676 754 l 1,19,-1
 653 754 l 2,20,21
 370 754 370 754 370 976 c 0,22,23
 370 1020 370 1020 381 1073 c 2,24,-1
 410 1210 l 2,25,26
 474 1510 474 1510 754 1510 c 2,27,-1
 837 1510 l 1,28,-1
 854 1588 l 1,29,-1
 952 1630 l 1,30,-1
 962 1630 l 1,31,-1
 936 1510 l 1,32,-1
 958 1510 l 2,33,34
 1214 1510 1214 1510 1214 1298 c 0,35,36
 1214 1253 1214 1253 1202 1198 c 1,37,-1
 1014 1117 l 1,38,-1
 1004 1117 l 1,39,-1
 1023 1205 l 2,40,41
 1028 1228 1028 1228 1028 1247 c 0,42,43
 1028 1340 1028 1340 912 1340 c 2,44,-1
 900 1340 l 1,45,-1
 814 934 l 1,46,-1
 869 934 l 2,47,48
 1177 934 1177 934 1177 692 c 0,49,50
 1177 643 1177 643 1164 584 c 2,51,-1
 1114 350 l 2,52,53
 1039 0 1039 0 710 0 c 2,0,-1
715 934 m 1,54,-1
 801 1340 l 1,55,-1
 768 1340 l 2,56,57
 628 1340 628 1340 598 1200 c 2,58,-1
 571 1074 l 2,59,60
 566 1049 566 1049 566 1029 c 0,61,62
 566 934 566 934 682 934 c 2,63,-1
 715 934 l 1,54,-1
776 754 m 1,64,-1
 654 180 l 1,65,-1
 738 180 l 2,66,67
 878 180 878 180 908 320 c 2,68,-1
 971 614 l 2,69,70
 976 639 976 639 976 659 c 0,71,72
 976 754 976 754 860 754 c 2,73,-1
 776 754 l 1,64,-1
EndSplineSet
Validated: 1
EndChar

StartChar: percent
Encoding: 37 37 8
Width: 1547
GlyphClass: 2
Flags: W
HStem: -20 21G<444.284 504.756> 0 131<975.365 1291.54> 479 131<1032.07 1348.43> 900 131<519.572 835.93> 1379 131<576.46 892.635> 1510 20G<1363.26 1424.01>
VStem: 376 142<1031.88 1270.89> 831 142<131.876 370.891 1033.04 1139.28> 894 143<1139.11 1378.12> 1350 142<239.109 478.124>
DStem2: 146.212 -20 285.975 -20 0.207912 0.978148<1138.8 1464.55> 358 47 491 -20 0.566694 0.823928<20.1671 1799.35> 605.975 -20 746.212 -20 0.207912 0.978148<1069.28 1394.84> 792.513 -20 932.276 -20 0.207912 0.978148<219.675 544.463> 1252.56 -20 1392.33 -20 0.207912 0.978148<149.133 474.883>
LayerCount: 2
Fore
SplineSet
481 -20 m 1,0,-1
 358 47 l 1,1,-1
 1377 1530 l 1,2,-1
 1387 1530 l 1,3,-1
 1511 1463 l 1,4,-1
 491 -20 l 1,5,-1
 481 -20 l 1,0,-1
1015 131 m 2,6,-1
 1235 131 l 2,7,8
 1285 131 1285 131 1295 181 c 2,9,-1
 1348 429 l 2,10,11
 1350 438 1350 438 1350 445 c 0,12,13
 1350 479 1350 479 1309 479 c 2,14,-1
 1089 479 l 2,15,16
 1039 479 1039 479 1028 429 c 2,17,-1
 975 181 l 2,18,19
 973 173 973 173 973 166 c 0,20,21
 973 131 973 131 1015 131 c 2,6,-1
1221 0 m 2,22,-1
 1013 0 l 2,23,24
 831 0 831 0 831 137 c 0,25,26
 831 163 831 163 838 194 c 2,27,-1
 885 416 l 2,28,29
 926 610 926 610 1103 610 c 2,30,-1
 1311 610 l 2,31,32
 1492 610 1492 610 1492 473 c 0,33,34
 1492 447 1492 447 1485 416 c 2,35,-1
 1438 194 l 2,36,37
 1397 0 1397 0 1221 0 c 2,22,-1
853 1379 m 2,38,-1
 633 1379 l 2,39,40
 583 1379 583 1379 572 1329 c 2,41,-1
 520 1081 l 2,42,43
 518 1072 518 1072 518 1065 c 0,44,45
 518 1031 518 1031 559 1031 c 2,46,-1
 779 1031 l 2,47,48
 829 1031 829 1031 840 1081 c 2,49,-1
 892 1329 l 2,50,51
 894 1338 894 1338 894 1345 c 0,52,53
 894 1379 894 1379 853 1379 c 2,38,-1
647 1510 m 2,54,-1
 855 1510 l 2,55,56
 1037 1510 1037 1510 1037 1373 c 0,57,58
 1037 1347 1037 1347 1030 1316 c 2,59,-1
 983 1094 l 2,60,61
 942 900 942 900 765 900 c 2,62,-1
 557 900 l 2,63,64
 376 900 376 900 376 1037 c 0,65,66
 376 1063 376 1063 383 1094 c 2,67,-1
 430 1316 l 2,68,69
 471 1510 471 1510 647 1510 c 2,54,-1
EndSplineSet
Validated: 1
EndChar

StartChar: ampersand
Encoding: 38 38 9
Width: 1624
GlyphClass: 2
Flags: W
HStem: -20 21G<1276.6 1345.67> 0 180<431.27 1005.25> 746 180<664.382 821> 1340 170<734.314 1104.31>
VStem: 212 201<196.466 504.297> 462 190<940.539 1124.21> 1121 184<1218.1 1325.43>
DStem2: 145.354 -20 345.731 -20 0.207912 0.978148<344.813 803.489> 235.787 -20 426.164 -20 0.207912 0.978148<1106.38 1413.53> 941 926 821 746 0.515649 -0.8568<92.3462 557.026 788.807 989.979>
LayerCount: 2
Fore
SplineSet
1093 300 m 1,0,1
 821 746 l 1,2,-1
 649 746 l 2,3,4
 509 746 509 746 479 606 c 2,5,-1
 418 320 l 2,6,7
 413 295 413 295 413 275 c 0,8,9
 413 180 413 180 528 180 c 2,10,-1
 881 180 l 2,11,12
 977 180 977 180 1093 300 c 1,0,1
853 0 m 2,13,-1
 520 0 l 2,14,15
 212 0 212 0 212 243 c 0,16,17
 212 292 212 292 224 350 c 2,18,-1
 272 576 l 2,19,20
 331 852 331 852 514 884 c 1,21,22
 462 917 462 917 462 1005 c 0,23,24
 462 1045 462 1045 473 1096 c 2,25,-1
 495 1200 l 2,26,27
 561 1510 561 1510 891 1510 c 2,28,-1
 1001 1510 l 2,29,30
 1305 1510 1305 1510 1305 1285 c 0,31,32
 1305 1257 1305 1257 1300 1226 c 1,33,-1
 1113 1145 l 1,34,-1
 1103 1145 l 1,35,-1
 1115 1200 l 2,36,37
 1121 1225 1121 1225 1121 1246 c 0,38,39
 1121 1340 1121 1340 1005 1340 c 2,40,-1
 855 1340 l 2,41,42
 714 1340 714 1340 685 1200 c 2,43,-1
 657 1066 l 2,44,45
 652 1042 652 1042 652 1022 c 0,46,47
 652 926 652 926 767 926 c 2,48,-1
 941 926 l 1,49,-1
 1227 448 l 1,50,51
 1379 641 1379 641 1423 827 c 1,52,-1
 1637 919 l 1,53,-1
 1650 914 l 1,54,55
 1583 611 1583 611 1322 291 c 1,56,-1
 1467 52 l 1,57,-1
 1299 -20 l 1,58,-1
 1289 -20 l 1,59,-1
 1183 151 l 1,60,61
 1034 0 1034 0 853 0 c 2,13,-1
EndSplineSet
Validated: 1
EndChar

StartChar: quotesingle
Encoding: 39 39 10
Width: 220
GlyphClass: 2
Flags: W
HStem: 1140 440
VStem: 292 214
DStem2: 292 1140 411.947 1140 0.207912 0.978148<78.1001 396.778>
LayerCount: 2
Fore
SplineSet
496 1580 m 1,0,-1
 506 1580 l 1,1,-1
 423 1192 l 1,2,-1
 302 1140 l 1,3,-1
 292 1140 l 1,4,-1
 375 1528 l 1,5,-1
 496 1580 l 1,0,-1
EndSplineSet
Validated: 1
EndChar

StartChar: parenleft
Encoding: 40 40 11
Width: 756
GlyphClass: 2
Flags: W
HStem: -240 180<429.981 655> 1570 180<753.375 1040>
VStem: 210 202<-40.4268 146.279>
DStem2: 148.605 -240 348.982 -240 0.207912 0.978148<324.366 1872.25>
LayerCount: 2
Fore
SplineSet
655 -240 m 1,0,-1
 519 -240 l 2,1,2
 210 -240 210 -240 210 3 c 0,3,4
 210 52 210 52 223 110 c 2,5,-1
 498 1400 l 2,6,7
 573 1750 573 1750 902 1750 c 2,8,-1
 1078 1750 l 1,9,-1
 1040 1570 l 1,10,-1
 874 1570 l 2,11,12
 734 1570 734 1570 704 1430 c 2,13,-1
 417 80 l 2,14,15
 412 55 412 55 412 35 c 0,16,17
 412 -60 412 -60 527 -60 c 2,18,-1
 693 -60 l 1,19,-1
 655 -240 l 1,0,-1
EndSplineSet
Validated: 1
EndChar

StartChar: parenright
Encoding: 41 41 12
Width: 756
GlyphClass: 2
Flags: W
HStem: -240 180<37 323.625> 1570 180<422 647.019>
VStem: 665 202<1260.08 1553.53>
DStem2: 304.982 -240 504.605 -240 0.207912 0.978148<203.883 1751.76>
LayerCount: 2
Fore
SplineSet
-1 -240 m 1,0,-1
 37 -60 l 1,1,-1
 203 -60 l 2,2,3
 343 -60 343 -60 373 80 c 2,4,-1
 660 1430 l 2,5,6
 665 1455 665 1455 665 1475 c 0,7,8
 665 1570 665 1570 550 1570 c 2,9,-1
 384 1570 l 1,10,-1
 422 1750 l 1,11,-1
 558 1750 l 2,12,13
 867 1750 867 1750 867 1507 c 0,14,15
 867 1458 867 1458 854 1400 c 2,16,-1
 579 110 l 2,17,18
 504 -240 504 -240 175 -240 c 2,19,-1
 -1 -240 l 1,0,-1
EndSplineSet
Validated: 1
EndChar

StartChar: asterisk
Encoding: 42 42 13
Width: 748
GlyphClass: 2
Flags: W
HStem: 900 680
DStem2: 288 1122 377 1044 0.889118 0.457677<43.4327 243.802 485.703 686.073> 460 1436 339 1358 0.834738 -0.550647<0 156.342 356.679 512.186> 505 900 624.947 900 0.207912 0.978148<78.1001 241.238 478.999 642.137>
LayerCount: 2
Fore
SplineSet
760 1580 m 1,0,-1
 770 1580 l 1,1,-1
 720 1344 l 1,2,-1
 898 1436 l 1,3,-1
 984 1367 l 1,4,-1
 987 1358 l 1,5,-1
 758 1240 l 1,6,-1
 936 1122 l 1,7,-1
 930 1113 l 1,8,-1
 815 1044 l 1,9,-1
 675 1136 l 1,10,-1
 636 952 l 1,11,-1
 515 900 l 1,12,-1
 505 900 l 1,13,-1
 555 1136 l 1,14,-1
 377 1044 l 1,15,-1
 292 1113 l 1,16,-1
 288 1122 l 1,17,-1
 518 1240 l 1,18,-1
 339 1358 l 1,19,-1
 346 1367 l 1,20,-1
 460 1436 l 1,21,-1
 600 1344 l 1,22,-1
 639 1528 l 1,23,-1
 760 1580 l 1,0,-1
EndSplineSet
Validated: 1
EndChar

StartChar: plus
Encoding: 43 43 14
Width: 1200
GlyphClass: 2
Flags: W
HStem: 680 150<392 670 851 1129>
DStem2: 590 305 739.971 305 0.207912 0.978148<98.6553 383.438 567.792 852.575>
LayerCount: 2
Fore
SplineSet
767 1139 m 1,0,-1
 921 1205 l 1,1,-1
 931 1205 l 1,2,-1
 851 830 l 1,3,-1
 1226 830 l 1,4,-1
 1224 820 l 1,5,-1
 1129 680 l 1,6,-1
 820 680 l 1,7,-1
 754 371 l 1,8,-1
 600 305 l 1,9,-1
 590 305 l 1,10,-1
 670 680 l 1,11,-1
 295 680 l 1,12,-1
 297 690 l 1,13,-1
 392 830 l 1,14,-1
 701 830 l 1,15,-1
 767 1139 l 1,0,-1
EndSplineSet
Validated: 1
EndChar

StartChar: comma
Encoding: 44 44 15
Width: 389
GlyphClass: 2
Flags: W
HStem: -276 554
VStem: 187 166<-64.7295 154.218>
LayerCount: 2
Fore
SplineSet
279 278 m 1,0,-1
 289 278 l 1,1,2
 353 198 353 198 353 101 c 0,3,4
 353 68 353 68 346 34 c 0,5,6
 304 -163 304 -163 55 -276 c 1,7,-1
 50 -269 l 1,8,9
 155 -139 155 -139 182 -10 c 0,10,11
 187 14 187 14 187 37 c 0,12,13
 187 134 187 134 92 198 c 1,14,-1
 279 278 l 1,0,-1
EndSplineSet
Validated: 1
EndChar

StartChar: hyphen
Encoding: 45 45 16
Width: 1200
GlyphClass: 2
Flags: W
HStem: 680 150<392 1129>
LayerCount: 2
Fore
SplineSet
392 830 m 5,0,-1
 1226 830 l 5,1,-1
 1224 820 l 5,2,-1
 1129 680 l 5,3,-1
 295 680 l 5,4,-1
 297 690 l 5,5,-1
 392 830 l 5,0,-1
EndSplineSet
Validated: 1
EndChar

StartChar: period
Encoding: 46 46 17
Width: 340
GlyphClass: 2
Flags: W
HStem: -20 245<116.901 267.42>
VStem: 69 246<27.5918 176.764>
LayerCount: 2
Fore
SplineSet
166 -20 m 0,0,1
 114 -20 114 -20 88 16 c 0,2,3
 69 42 69 42 69 75 c 0,4,5
 69 88 69 88 72 102 c 0,6,7
 83 152 83 152 125.5 188.5 c 128,-1,8
 168 225 168 225 218 225 c 128,-1,9
 268 225 268 225 296 189 c 0,10,11
 315 165 315 165 315 130 c 0,12,13
 315 116 315 116 312 102 c 0,14,15
 301 52 301 52 258.5 16 c 128,-1,16
 216 -20 216 -20 166 -20 c 0,0,1
EndSplineSet
Validated: 1
EndChar

StartChar: slash
Encoding: 47 47 18
Width: 1039
GlyphClass: 2
Flags: W
DStem2: -18 -133 114 -200 0.565598 0.824681<19.4053 2233.67>
LayerCount: 2
Fore
SplineSet
104 -200 m 1,0,-1
 -18 -133 l 1,1,-1
 1244 1710 l 1,2,-1
 1254 1710 l 1,3,-1
 1378 1643 l 1,4,-1
 114 -200 l 1,5,-1
 104 -200 l 1,0,-1
EndSplineSet
Validated: 1
EndChar

StartChar: zero
Encoding: 48 48 19
Width: 1330
GlyphClass: 2
Flags: W
HStem: 0 180<440.981 988.625> 1330 180<662.375 1210.02>
VStem: 221 202<196.056 492.969> 1228 202<1017.03 1313.94>
DStem2: 159.605 0 359.982 0 0.207912 0.978148<324.366 1381.53> 969.982 0 1169.61 0 0.207912 0.978148<203.883 1261.04>
LayerCount: 2
Fore
SplineSet
538 180 m 2,0,-1
 868 180 l 2,1,2
 1008 180 1008 180 1038 320 c 2,3,-1
 1223 1190 l 2,4,5
 1228 1215 1228 1215 1228 1235 c 0,6,7
 1228 1330 1228 1330 1113 1330 c 2,8,-1
 783 1330 l 2,9,10
 643 1330 643 1330 613 1190 c 2,11,-1
 428 320 l 2,12,13
 423 295 423 295 423 275 c 0,14,15
 423 180 423 180 538 180 c 2,0,-1
530 0 m 2,16,17
 221 0 221 0 221 242 c 0,18,19
 221 291 221 291 234 350 c 2,20,-1
 407 1160 l 2,21,22
 482 1510 482 1510 811 1510 c 2,23,-1
 1121 1510 l 2,24,25
 1430 1510 1430 1510 1430 1268 c 0,26,27
 1430 1219 1430 1219 1417 1160 c 2,28,-1
 1244 350 l 2,29,30
 1169 0 1169 0 840 0 c 2,31,-1
 530 0 l 2,16,17
EndSplineSet
Validated: 1
EndChar

StartChar: one
Encoding: 49 49 20
Width: 714
GlyphClass: 2
Flags: W
HStem: -20 21G<260 316.444> 1510 20G<732.816 789>
VStem: 260 529
DStem2: 260 -20 459.87 -20 0.207912 0.978148<133.566 1300.34>
LayerCount: 2
Fore
SplineSet
260 -20 m 1,0,-1
 530 1252 l 1,1,-1
 262 1138 l 1,2,-1
 301 1323 l 1,3,-1
 779 1530 l 1,4,-1
 789 1530 l 1,5,-1
 479 70 l 1,6,-1
 270 -20 l 1,7,-1
 260 -20 l 1,0,-1
EndSplineSet
Validated: 1
EndChar

StartChar: two
Encoding: 50 50 21
Width: 1233
GlyphClass: 2
Flags: W
HStem: 0 180<463 1023> 1330 180<610.932 1119.02>
VStem: 1137 202<1018.3 1314.35>
DStem2: 198 180 463 180 0.799666 0.600446<211.911 1047.95> 879.154 0 1078.58 0 0.207912 0.978148<863.462 1261.01>
LayerCount: 2
Fore
SplineSet
80 0 m 1,0,-1
 82 10 l 1,1,-1
 198 180 l 1,2,-1
 772 611 l 2,3,4
 1054 823 1054 823 1100 1039 c 2,5,-1
 1132 1190 l 2,6,7
 1137 1215 1137 1215 1137 1235 c 0,8,9
 1137 1330 1137 1330 1022 1330 c 2,10,-1
 732 1330 l 2,11,12
 591 1330 591 1330 562 1190 c 2,13,-1
 549 1127 l 1,14,-1
 339 1036 l 1,15,-1
 329 1036 l 1,16,-1
 356 1160 l 2,17,18
 432 1510 432 1510 790 1510 c 2,19,-1
 1030 1510 l 2,20,21
 1339 1510 1339 1510 1339 1269 c 0,22,23
 1339 1219 1339 1219 1326 1160 c 2,24,-1
 1299 1037 l 2,25,26
 1231 729 1231 729 943 523 c 2,27,-1
 463 180 l 1,28,-1
 1141 180 l 1,29,-1
 1139 170 l 1,30,-1
 1023 0 l 1,31,-1
 80 0 l 1,0,-1
EndSplineSet
Validated: 1
EndChar

StartChar: three
Encoding: 51 51 22
Width: 1223
GlyphClass: 2
Flags: W
HStem: 0 180<376.68 901.625> 771 180<918 1005.87> 1330 180<614 970>
VStem: 173 190<195.924 362> 1022 201<449.625 756.755>
DStem2: 611 821 918 951 0.599771 0.800172<288.152 622.605> 882.982 0 1082.61 0 0.207912 0.978148<203.883 689.488>
LayerCount: 2
Fore
SplineSet
753 0 m 2,0,1
 470 0 l 2,2,3
 173 0 173 0 173 247 c 0,4,5
 173 299 173 299 186 362 c 1,6,-1
 385 448 l 1,7,-1
 395 448 l 9,8,-1
 368 320 l 2,9,10
 363 296 363 296 363 275 c 0,11,12
 363 180 363 180 478 180 c 2,13,-1
 781 180 l 2,14,15
 921 180 921 180 951 320 c 2,16,-1
 1017 631 l 2,17,18
 1022 655 1022 655 1022 676 c 0,19,20
 1022 771 1022 771 907 771 c 2,21,-1
 640 771 l 17,22,-1
 611 821 l 1,23,-1
 970 1330 l 1,24,-1
 496 1330 l 1,25,-1
 498 1340 l 1,26,-1
 614 1510 l 1,27,-1
 1337 1510 l 1,28,-1
 918 951 l 1,29,30
 1223 951 1223 951 1223 705 c 0,31,32
 1223 657 1223 657 1211 601 c 2,33,-1
 1157 350 l 2,34,35
 1082 0 1082 0 753 0 c 2,0,1
EndSplineSet
Validated: 1
EndChar

StartChar: four
Encoding: 52 52 23
Width: 1232
GlyphClass: 2
Flags: W
HStem: -20 21G<778 834.444> 340 180<457 854 1093 1124> 1510 20G<1250.56 1307>
DStem2: 84 350 457 520 0.677495 0.735527<377.745 1219.32> 778 -20 977.87 -20 0.207912 0.978148<133.566 367.934 593.692 1186.98>
LayerCount: 2
Fore
SplineSet
457 520 m 1,0,-1
 893 520 l 1,1,-1
 1025 1141 l 1,2,-1
 457 520 l 1,0,-1
778 -20 m 1,3,-1
 854 340 l 1,4,-1
 82 340 l 1,5,-1
 84 350 l 1,6,-1
 1088 1440 l 1,7,-1
 1297 1530 l 1,8,-1
 1307 1530 l 1,9,-1
 1093 520 l 1,10,-1
 1243 520 l 1,11,-1
 1240 510 l 1,12,-1
 1124 340 l 1,13,-1
 1054 340 l 1,14,-1
 997 70 l 1,15,-1
 788 -20 l 1,16,-1
 778 -20 l 1,3,-1
EndSplineSet
Validated: 1
EndChar

StartChar: five
Encoding: 53 53 24
Width: 1223
GlyphClass: 2
Flags: W
HStem: 0 180<376.68 901.625> 771 180<591.999 1004.92> 1330 180<778 1229>
VStem: 173 190<195.924 362> 1022 201<449.625 757.548>
DStem2: 338 808 590 930 0.410473 0.911873<214.688 656.606> 882.982 0 1082.61 0 0.207912 0.978148<203.883 689.488>
LayerCount: 2
Fore
SplineSet
470 0 m 2,0,1
 173 0 173 0 173 247 c 0,2,3
 173 299 173 299 186 362 c 1,4,-1
 385 448 l 1,5,-1
 395 448 l 9,6,-1
 368 320 l 2,7,8
 363 296 363 296 363 275 c 0,9,10
 363 180 363 180 478 180 c 2,11,-1
 781 180 l 2,12,13
 921 180 921 180 951 320 c 2,14,-1
 1017 631 l 2,15,16
 1022 655 1022 655 1022 676 c 0,17,18
 1022 771 1022 771 907 771 c 2,19,-1
 664 771 l 2,20,21
 569 771 569 771 525 707 c 1,22,-1
 338 808 l 1,23,-1
 654 1510 l 1,24,-1
 1347 1510 l 1,25,-1
 1345 1500 l 1,26,-1
 1229 1330 l 1,27,-1
 778 1330 l 1,28,-1
 590 930 l 1,29,30
 654 951 654 951 712 951 c 2,31,-1
 905 951 l 2,32,33
 1223 951 1223 951 1223 707 c 0,34,35
 1223 657 1223 657 1211 601 c 2,36,-1
 1157 350 l 2,37,38
 1082 0 1082 0 753 0 c 2,39,-1
 470 0 l 2,0,1
EndSplineSet
Validated: 1
EndChar

StartChar: six
Encoding: 54 54 25
Width: 1300
GlyphClass: 2
Flags: W
HStem: 0 180<440.981 969> 774 180<557.971 1071.44> 1330 180<662.375 1194.32>
VStem: 221 202<196.056 492.922> 1090 200<450.844 757.944> 1208 190<1142.98 1315.36>
DStem2: 159.605 0 359.982 0 0.207912 0.978148<324.366 814.861 985.245 1381.53> 949.982 0 1149.61 0 0.207912 0.978148<203.973 692.661 1213.36 1261.04>
LayerCount: 2
Fore
SplineSet
495 634 m 2,0,-1
 428 320 l 2,1,2
 423 295 423 295 423 275 c 0,3,4
 423 180 423 180 538 180 c 2,5,-1
 848 180 l 2,6,7
 988 180 988 180 1018 320 c 2,8,-1
 1085 634 l 2,9,10
 1090 659 1090 659 1090 679 c 0,11,12
 1090 774 1090 774 975 774 c 2,13,-1
 665 774 l 2,14,15
 525 774 525 774 495 634 c 2,0,-1
820 0 m 2,16,-1
 530 0 l 2,17,18
 221 0 221 0 221 242 c 0,19,20
 221 291 221 291 234 350 c 2,21,-1
 407 1160 l 2,22,23
 482 1510 482 1510 811 1510 c 2,24,-1
 1101 1510 l 2,25,26
 1398 1510 1398 1510 1398 1263 c 0,27,28
 1398 1211 1398 1211 1385 1148 c 1,29,-1
 1186 1062 l 1,30,-1
 1176 1062 l 1,31,-1
 1203 1190 l 2,32,33
 1208 1215 1208 1215 1208 1235 c 0,34,35
 1208 1330 1208 1330 1093 1330 c 2,36,-1
 783 1330 l 2,37,38
 643 1330 643 1330 613 1190 c 2,39,-1
 556 923 l 1,40,41
 619 954 619 954 693 954 c 2,42,-1
 983 954 l 2,43,44
 1290 954 1290 954 1290 712 c 0,45,46
 1290 663 1290 663 1278 604 c 2,47,-1
 1224 350 l 2,48,49
 1150 0 1150 0 820 0 c 2,16,-1
EndSplineSet
Validated: 1
EndChar

StartChar: seven
Encoding: 55 55 26
Width: 967
GlyphClass: 2
Flags: W
HStem: -20 21G<158 214.202> 1330 180<411 943>
DStem2: 158 -20 466 109 0.503214 0.864162<266.467 1561.64>
LayerCount: 2
Fore
SplineSet
158 -20 m 1,0,-1
 943 1330 l 1,1,-1
 293 1330 l 1,2,-1
 295 1340 l 1,3,-1
 411 1510 l 1,4,-1
 1278 1510 l 1,5,-1
 1276 1500 l 1,6,-1
 466 109 l 1,7,-1
 168 -20 l 1,8,-1
 158 -20 l 1,0,-1
EndSplineSet
Validated: 1
EndChar

StartChar: eight
Encoding: 56 56 27
Width: 1210
GlyphClass: 2
Flags: W
HStem: 0 180<391.27 919> 746 180<623.23 999.607> 1340 170<694.314 1067.03>
VStem: 172 201<196.466 504.297> 425 187<939.555 1237.07> 1034 199<419.469 732.283 966 1112.85> 1080 193<1043.3 1324.69>
DStem2: 109.605 0 309.982 0 0.207912 0.978148<324.366 786.225> 200.038 0 390.415 0 0.207912 0.978148<1084.95 1391.27> 820.415 0 1010.04 0 0.207912 0.978148<986.389 1271.15> 899.982 0 1099.61 0 0.207912 0.978148<203.973 664.025>
LayerCount: 2
Fore
SplineSet
488 180 m 2,0,1
 798 180 l 2,2,3
 938 180 938 180 968 320 c 2,4,-1
 1029 606 l 2,5,6
 1034 631 1034 631 1034 651 c 0,7,8
 1034 746 1034 746 919 746 c 2,9,-1
 609 746 l 2,10,11
 469 746 469 746 439 606 c 2,12,-1
 378 320 l 2,13,14
 373 295 373 295 373 275 c 0,15,16
 373 180 373 180 488 180 c 2,0,1
727 926 m 2,17,-1
 877 926 l 2,18,19
 1017 926 1017 926 1047 1066 c 2,20,-1
 1075 1200 l 2,21,22
 1080 1225 1080 1225 1080 1245 c 0,23,24
 1080 1340 1080 1340 965 1340 c 2,25,-1
 815 1340 l 2,26,27
 675 1340 675 1340 645 1200 c 2,28,-1
 617 1066 l 2,29,30
 612 1041 612 1041 612 1021 c 0,31,32
 612 926 612 926 727 926 c 2,17,-1
770 0 m 2,33,-1
 480 0 l 2,34,35
 172 0 172 0 172 243 c 0,36,37
 172 292 172 292 184 350 c 2,38,-1
 232 576 l 2,39,40
 289 846 289 846 496 884 c 1,41,42
 425 926 425 926 425 1023 c 0,43,44
 425 1056 425 1056 433 1096 c 2,45,-1
 455 1200 l 2,46,47
 521 1510 521 1510 851 1510 c 2,48,-1
 961 1510 l 2,49,50
 1273 1510 1273 1510 1273 1282 c 0,51,52
 1273 1241 1273 1241 1263 1191 c 2,53,-1
 1243 1096 l 2,54,55
 1211 942 1211 942 1095 884 c 1,56,57
 1233 823 1233 823 1233 669 c 0,58,59
 1233 626 1233 626 1222 576 c 2,60,-1
 1174 350 l 2,61,62
 1100 0 1100 0 770 0 c 2,33,-1
EndSplineSet
Validated: 1
EndChar

StartChar: nine
Encoding: 57 57 28
Width: 1300
GlyphClass: 2
Flags: W
HStem: 0 180<426.68 958.625> 556 180<549.558 1063.03> 1330 180<652 1180.02>
VStem: 223 190<194.641 367.017> 331 200<752.056 1059.16> 1198 202<1017.08 1313.94>
DStem2: 159.055 0 349.982 0 0.207912 0.978148<322.402 370.087 890.785 1379.47> 939.982 0 1139.61 0 0.207912 0.978148<203.883 600.165 770.55 1261.04>
LayerCount: 2
Fore
SplineSet
1126 876 m 2,0,-1
 1193 1190 l 2,1,2
 1198 1215 1198 1215 1198 1235 c 0,3,4
 1198 1330 1198 1330 1083 1330 c 2,5,-1
 773 1330 l 2,6,7
 633 1330 633 1330 603 1190 c 2,8,-1
 536 876 l 2,9,10
 531 851 531 851 531 831 c 0,11,12
 531 736 531 736 646 736 c 2,13,-1
 956 736 l 2,14,15
 1096 736 1096 736 1126 876 c 2,0,-1
520 0 m 2,16,17
 223 0 223 0 223 247 c 0,18,19
 223 299 223 299 236 362 c 1,20,-1
 435 448 l 1,21,-1
 445 448 l 1,22,-1
 418 320 l 2,23,24
 413 295 413 295 413 275 c 0,25,26
 413 180 413 180 528 180 c 2,27,-1
 838 180 l 2,28,29
 978 180 978 180 1008 320 c 2,30,-1
 1065 587 l 1,31,32
 1002 556 1002 556 928 556 c 2,33,-1
 638 556 l 2,34,35
 331 556 331 556 331 798 c 0,36,37
 331 847 331 847 343 906 c 2,38,-1
 397 1160 l 2,39,40
 471 1510 471 1510 801 1510 c 2,41,-1
 1091 1510 l 2,42,43
 1400 1510 1400 1510 1400 1268 c 0,44,45
 1400 1219 1400 1219 1387 1160 c 2,46,-1
 1214 350 l 2,47,48
 1139 0 1139 0 810 0 c 2,49,-1
 520 0 l 2,16,17
EndSplineSet
Validated: 1
EndChar

StartChar: colon
Encoding: 58 58 29
Width: 340
GlyphClass: 2
Flags: W
HStem: -20 245<116.711 267.42> 632 245<254.711 405.42>
VStem: 69 246<27.5918 176.764> 207 246<679.592 828.764>
LayerCount: 2
Fore
SplineSet
356 877 m 0,0,1
 408 877 408 877 434 841 c 0,2,3
 453 816 453 816 453 782 c 0,4,5
 453 768 453 768 450 754 c 0,6,7
 439 704 439 704 396.5 668 c 128,-1,8
 354 632 354 632 304 632 c 128,-1,9
 254 632 254 632 226 668 c 0,10,11
 207 693 207 693 207 727 c 0,12,13
 207 740 207 740 210 754 c 0,14,15
 221 804 221 804 263.5 840.5 c 128,-1,16
 306 877 306 877 356 877 c 0,0,1
166 -20 m 128,-1,18
 116 -20 116 -20 88 16 c 0,19,20
 69 41 69 41 69 75 c 0,21,22
 69 88 69 88 72 102 c 0,23,24
 83 152 83 152 125.5 188.5 c 128,-1,25
 168 225 168 225 218 225 c 0,26,27
 270 225 270 225 296 189 c 0,28,29
 315 163 315 163 315 130 c 0,30,31
 315 116 315 116 312 102 c 0,32,33
 301 52 301 52 258.5 16 c 128,-1,17
 216 -20 216 -20 166 -20 c 128,-1,18
EndSplineSet
Validated: 1
EndChar

StartChar: semicolon
Encoding: 59 59 30
Width: 389
GlyphClass: 2
Flags: W
HStem: 632 245<274.711 425.42>
VStem: 187 166<-64.7295 154.218> 227 246<679.592 828.764>
LayerCount: 2
Fore
SplineSet
376 877 m 0,0,1
 428 877 428 877 454 841 c 0,2,3
 473 816 473 816 473 782 c 0,4,5
 473 768 473 768 470 754 c 0,6,7
 459 704 459 704 416.5 668 c 128,-1,8
 374 632 374 632 324 632 c 128,-1,9
 274 632 274 632 246 668 c 0,10,11
 227 693 227 693 227 727 c 0,12,13
 227 740 227 740 230 754 c 0,14,15
 241 804 241 804 283.5 840.5 c 128,-1,16
 326 877 326 877 376 877 c 0,0,1
279 278 m 1,17,-1
 289 278 l 1,18,19
 353 198 353 198 353 101 c 0,20,21
 353 68 353 68 346 34 c 0,22,23
 304 -163 304 -163 55 -276 c 1,24,-1
 50 -269 l 1,25,26
 155 -139 155 -139 182 -10 c 0,27,28
 187 14 187 14 187 37 c 0,29,30
 187 134 187 134 92 198 c 1,31,-1
 279 278 l 1,17,-1
EndSplineSet
Validated: 1
EndChar

StartChar: less
Encoding: 60 60 31
Width: 1315
GlyphClass: 2
Flags: W
DStem2: 589 736 295 680 0.933865 -0.357626<0 637.463> 392 830 589 736 0.945717 0.324992<155.757 940.972>
LayerCount: 2
Fore
SplineSet
295 680 m 1,0,-1
 297 690 l 1,1,-1
 392 830 l 1,2,-1
 1297 1141 l 1,3,-1
 1335 1000 l 1,4,-1
 1332 990 l 1,5,-1
 589 736 l 1,6,-1
 1222 505 l 1,7,-1
 1220 495 l 1,8,-1
 1128 361 l 1,9,-1
 295 680 l 1,0,-1
EndSplineSet
Validated: 1
EndChar

StartChar: equal
Encoding: 61 61 32
Width: 1200
GlyphClass: 2
Flags: W
HStem: 480 150<350 1086> 880 150<435 1171>
LayerCount: 2
Fore
SplineSet
435 1030 m 1,0,-1
 1269 1030 l 1,1,-1
 1267 1020 l 1,2,-1
 1171 880 l 1,3,-1
 337 880 l 1,4,-1
 339 890 l 1,5,-1
 435 1030 l 1,0,-1
350 630 m 1,6,-1
 1184 630 l 1,7,-1
 1182 620 l 1,8,-1
 1086 480 l 1,9,-1
 252 480 l 1,10,-1
 254 490 l 1,11,-1
 350 630 l 1,6,-1
EndSplineSet
Validated: 1
EndChar

StartChar: greater
Encoding: 62 62 33
Width: 1315
GlyphClass: 2
Flags: W
DStem2: 304 520 339 369 0.945717 0.324992<0 785.216> 508 1149 414 1005 0.933865 -0.357626<0 637.463>
LayerCount: 2
Fore
SplineSet
1341 830 m 1,0,-1
 1339 820 l 1,1,-1
 1244 680 l 1,2,-1
 339 369 l 1,3,-1
 301 510 l 1,4,-1
 304 520 l 1,5,-1
 1047 774 l 1,6,-1
 414 1005 l 1,7,-1
 416 1015 l 1,8,-1
 508 1149 l 1,9,-1
 1341 830 l 1,0,-1
EndSplineSet
Validated: 1
EndChar

StartChar: question
Encoding: 63 63 34
Width: 1270
GlyphClass: 2
Flags: W
HStem: -20 245<541.901 692.42> 1330 180<651.932 1160.02>
VStem: 494 246<27.5918 176.764> 1178 202<1133.61 1312.89>
DStem2: 915.888 -20 1115.31 -20 0.207912 0.978148<926.975 1281.46>
LayerCount: 2
Fore
SplineSet
591 -20 m 0,0,1
 539 -20 539 -20 513 16 c 0,2,3
 494 42 494 42 494 75 c 0,4,5
 494 88 494 88 497 102 c 0,6,7
 508 152 508 152 550.5 188.5 c 128,-1,8
 593 225 593 225 643 225 c 128,-1,9
 693 225 693 225 721 189 c 0,10,11
 740 165 740 165 740 130 c 0,12,13
 740 116 740 116 737 102 c 0,14,15
 726 52 726 52 683.5 16 c 128,-1,16
 641 -20 641 -20 591 -20 c 0,0,1
831 1510 m 2,17,-1
 1071 1510 l 2,18,19
 1380 1510 1380 1510 1380 1270 c 0,20,21
 1380 1220 1380 1220 1367 1160 c 2,22,-1
 1347 1070 l 2,23,24
 1274 741 1274 741 918 578 c 0,25,26
 817 532 817 532 798 454 c 1,27,-1
 585 361 l 1,28,-1
 575 361 l 1,29,30
 634 638 634 638 866 743 c 0,31,32
 1101 850 1101 850 1148 1072 c 2,33,-1
 1173 1190 l 2,34,35
 1178 1215 1178 1215 1178 1235 c 0,36,37
 1178 1330 1178 1330 1063 1330 c 2,38,-1
 773 1330 l 2,39,40
 632 1330 632 1330 603 1190 c 2,41,-1
 590 1127 l 1,42,-1
 380 1036 l 1,43,-1
 370 1036 l 1,44,-1
 397 1160 l 2,45,46
 473 1510 473 1510 831 1510 c 2,17,-1
EndSplineSet
Validated: 1
EndChar

StartChar: at
Encoding: 64 64 35
Width: 1380
GlyphClass: 2
Flags: W
HStem: -410 160<344.785 598> 0 160<772.631 1010> 509 160<829.166 1128> 940 160<578.142 1176.05>
VStem: 154 178<-235.436 70.7031> 588 180<164.536 433.062> 1192 179<674.43 923.589>
DStem2: 92.6052 -410 273.233 -410 0.207912 0.978148<299.813 1397.68> 451.336 -410 630.713 -410 0.207912 0.978148<683.448 972.992> 932.843 -410 1112.72 -410 0.207912 0.978148<582.734 939.493 1102.44 1280.84>
LayerCount: 2
Fore
SplineSet
916 509 m 2,0,1
 826 509 826 509 807 419 c 2,2,-1
 771 250 l 2,3,4
 768 234 768 234 768 221 c 0,5,6
 768 160 768 160 842 160 c 2,7,-1
 1054 160 l 1,8,-1
 1128 509 l 1,9,-1
 916 509 l 2,0,1
1010 0 m 1,10,-1
 838 0 l 2,11,12
 588 0 588 0 588 195 c 0,13,14
 588 234 588 234 598 280 c 2,15,-1
 621 389 l 2,16,17
 680 669 680 669 940 669 c 2,18,-1
 1159 669 l 1,19,-1
 1187 800 l 2,20,21
 1192 825 1192 825 1192 845 c 0,22,23
 1192 940 1192 940 1077 940 c 2,24,-1
 700 940 l 2,25,26
 560 940 560 940 530 800 c 2,27,-1
 337 -110 l 2,28,29
 332 -135 332 -135 332 -155 c 0,30,31
 332 -250 332 -250 447 -250 c 2,32,-1
 703 -250 l 1,33,-1
 701 -260 l 1,34,-1
 598 -410 l 1,35,-1
 443 -410 l 2,36,37
 154 -410 154 -410 154 -172 c 0,38,39
 154 -121 154 -121 167 -60 c 2,40,-1
 339 750 l 2,41,42
 413 1100 413 1100 744 1100 c 2,43,-1
 1064 1100 l 2,44,45
 1371 1100 1371 1100 1371 857 c 0,46,47
 1371 808 1371 808 1359 750 c 2,48,-1
 1219 90 l 1,49,-1
 1010 0 l 1,10,-1
EndSplineSet
Validated: 1
EndChar

StartChar: A
Encoding: 65 65 36
Width: 1370
GlyphClass: 2
Flags: W
HStem: -20 21G<176 232.444 986 1042.44> 665 180<560 1131> 1330 180<682 1229.73>
VStem: 1248 201<1126.59 1310.43>
DStem2: 176 -20 375.87 -20 0.207912 0.978148<133.566 741.761 925.936 1401.75> 986 -20 1185.87 -20 0.207912 0.978148<133.566 700.178 884.353 1281.44>
LayerCount: 2
Fore
SplineSet
186 -20 m 1,0,-1
 176 -20 l 1,1,-1
 427 1160 l 2,2,3
 501 1510 501 1510 831 1510 c 2,4,-1
 1141 1510 l 2,5,6
 1449 1510 1449 1510 1449 1267 c 0,7,8
 1449 1218 1449 1218 1437 1160 c 2,9,-1
 1205 70 l 1,10,-1
 996 -20 l 1,11,-1
 986 -20 l 1,12,-1
 1131 665 l 1,13,-1
 521 665 l 1,14,-1
 395 70 l 1,15,-1
 186 -20 l 1,0,-1
560 845 m 1,16,-1
 1170 845 l 1,17,-1
 1243 1190 l 2,18,19
 1248 1215 1248 1215 1248 1235 c 0,20,21
 1248 1330 1248 1330 1133 1330 c 2,22,-1
 803 1330 l 2,23,24
 663 1330 663 1330 633 1190 c 2,25,-1
 560 845 l 1,16,-1
EndSplineSet
Validated: 1
EndChar

StartChar: B
Encoding: 66 66 37
Width: 1250
GlyphClass: 2
Flags: W
HStem: 0 180<438 989> 746 180<597 1059.08> 1330 180<683 1122.8>
VStem: 1104 199<419.469 730.712 971.548 1127.3> 1138 207<1153.41 1312.25>
DStem2: 200 0 399.74 0 0.207912 0.978148<225.55 804.338 988.306 1401.36> 969.982 0 1169.61 0 0.207912 0.978148<203.973 664.025>
LayerCount: 2
Fore
SplineSet
438 180 m 1,0,-1
 868 180 l 2,1,2
 1008 180 1008 180 1038 320 c 2,3,-1
 1099 606 l 2,4,5
 1104 631 1104 631 1104 651 c 0,6,7
 1104 746 1104 746 989 746 c 2,8,-1
 559 746 l 1,9,-1
 438 180 l 1,0,-1
200 0 m 1,10,-1
 506 1440 l 1,11,-1
 669 1510 l 1,12,-1
 1021 1510 l 2,13,14
 1345 1510 1345 1510 1345 1285 c 0,15,16
 1345 1246 1345 1246 1335 1200 c 2,17,-1
 1313 1096 l 2,18,19
 1275 915 1275 915 1165 871 c 1,20,21
 1303 824 1303 824 1303 671 c 0,22,23
 1303 628 1303 628 1292 576 c 2,24,-1
 1244 350 l 2,25,26
 1170 0 1170 0 840 0 c 2,27,-1
 200 0 l 1,10,-1
597 926 m 1,28,-1
 937 926 l 2,29,30
 1077 926 1077 926 1107 1066 c 2,31,-1
 1133 1190 l 2,32,33
 1138 1215 1138 1215 1138 1235 c 0,34,35
 1138 1330 1138 1330 1023 1330 c 2,36,-1
 683 1330 l 1,37,-1
 597 926 l 1,28,-1
EndSplineSet
Validated: 1
EndChar

StartChar: C
Encoding: 67 67 38
Width: 1230
GlyphClass: 2
Flags: W
HStem: 0 180<440.981 968.25> 1330 180<662.375 1194.32>
VStem: 221 202<198.752 385.644> 1208 190<1148 1311.7>
DStem2: 159.605 0 359.982 0 0.207912 0.978148<324.396 1381.53>
LayerCount: 2
Fore
SplineSet
530 0 m 2,0,1
 221 0 221 0 221 242 c 0,2,3
 221 289 221 289 234 350 c 2,4,-1
 407 1160 l 2,5,6
 482 1510 482 1510 811 1510 c 2,7,-1
 1101 1510 l 2,8,9
 1398 1510 1398 1510 1398 1260 c 0,10,11
 1398 1209 1398 1209 1385 1148 c 1,12,-1
 1186 1062 l 1,13,-1
 1176 1062 l 9,14,-1
 1203 1190 l 2,15,16
 1208 1214 1208 1214 1208 1235 c 0,17,18
 1208 1330 1208 1330 1093 1330 c 2,19,-1
 783 1330 l 2,20,21
 643 1330 643 1330 613 1190 c 2,22,-1
 428 320 l 2,23,24
 423 296 423 296 423 275 c 0,25,26
 423 180 423 180 538 180 c 2,27,-1
 848 180 l 2,28,29
 989 180 989 180 1018 320 c 2,30,-1
 1031 383 l 1,31,-1
 1241 474 l 1,32,-1
 1251 474 l 1,33,-1
 1224 350 l 2,34,35
 1148 0 1148 0 820 0 c 2,36,-1
 530 0 l 2,0,1
EndSplineSet
Validated: 1
EndChar

StartChar: D
Encoding: 68 68 39
Width: 1350
GlyphClass: 2
Flags: W
HStem: 0 180<438 1008.62> 1330 180<683 1230.02>
VStem: 1248 202<1017.03 1313.94>
DStem2: 200 0 399.74 0 0.207912 0.978148<225.55 1401.36> 989.982 0 1189.61 0 0.207912 0.978148<203.883 1261.04>
LayerCount: 2
Fore
SplineSet
438 180 m 1,0,-1
 888 180 l 2,1,2
 1028 180 1028 180 1058 320 c 2,3,-1
 1243 1190 l 2,4,5
 1248 1215 1248 1215 1248 1235 c 0,6,7
 1248 1330 1248 1330 1133 1330 c 2,8,-1
 683 1330 l 1,9,-1
 438 180 l 1,0,-1
200 0 m 1,10,-1
 506 1440 l 1,11,-1
 669 1510 l 1,12,-1
 1141 1510 l 2,13,14
 1450 1510 1450 1510 1450 1268 c 0,15,16
 1450 1219 1450 1219 1437 1160 c 2,17,-1
 1264 350 l 2,18,19
 1189 0 1189 0 860 0 c 2,20,-1
 200 0 l 1,10,-1
EndSplineSet
Validated: 1
EndChar

StartChar: E
Encoding: 69 69 40
Width: 1060
GlyphClass: 2
Flags: W
HStem: 0 180<438 930> 665 180<580 1021> 1330 180<683 1163>
DStem2: 200 0 399.74 0 0.207912 0.978148<225.55 721.366 905.541 1401.36>
CounterMasks: 1 e0
LayerCount: 2
Fore
SplineSet
200 0 m 1,0,-1
 506 1440 l 1,1,-1
 669 1510 l 1,2,-1
 1281 1510 l 1,3,-1
 1279 1500 l 1,4,-1
 1163 1330 l 1,5,-1
 683 1330 l 1,6,-1
 580 845 l 1,7,-1
 1140 845 l 1,8,-1
 1137 835 l 1,9,-1
 1021 665 l 1,10,-1
 541 665 l 1,11,-1
 438 180 l 1,12,-1
 1048 180 l 1,13,-1
 1046 170 l 1,14,-1
 930 0 l 1,15,-1
 200 0 l 1,0,-1
EndSplineSet
Validated: 1
EndChar

StartChar: F
Encoding: 70 70 41
Width: 1010
GlyphClass: 2
Flags: W
HStem: -20 21G<196 252.444> 665 180<580 1021> 1330 180<683 1163>
DStem2: 196 -20 395.87 -20 0.207912 0.978148<133.566 741.761 925.936 1421.75>
LayerCount: 2
Fore
SplineSet
196 -20 m 1,0,-1
 506 1440 l 1,1,-1
 669 1510 l 1,2,-1
 1281 1510 l 1,3,-1
 1279 1500 l 1,4,-1
 1163 1330 l 1,5,-1
 683 1330 l 1,6,-1
 580 845 l 1,7,-1
 1140 845 l 1,8,-1
 1137 835 l 1,9,-1
 1021 665 l 1,10,-1
 541 665 l 1,11,-1
 415 70 l 1,12,-1
 206 -20 l 1,13,-1
 196 -20 l 1,0,-1
EndSplineSet
Validated: 1
EndChar

StartChar: G
Encoding: 71 71 42
Width: 1310
GlyphClass: 2
Flags: W
HStem: 0 180<440.981 968.625> 665 180<882 1091> 1330 180<662.375 1194.32>
VStem: 221 202<198.752 385.644> 1208 190<1148 1311.7>
DStem2: 159.605 0 359.982 0 0.207912 0.978148<324.396 1381.53> 949.982 0 1149.61 0 0.207912 0.978148<203.883 679.787 1213.36 1261.01>
CounterMasks: 1 e0
LayerCount: 2
Fore
SplineSet
530 0 m 2,0,1
 221 0 221 0 221 242 c 0,2,3
 221 289 221 289 234 350 c 2,4,-1
 407 1160 l 2,5,6
 482 1510 482 1510 811 1510 c 2,7,-1
 1101 1510 l 2,8,9
 1398 1510 1398 1510 1398 1260 c 0,10,11
 1398 1209 1398 1209 1385 1148 c 1,12,-1
 1186 1062 l 1,13,-1
 1176 1062 l 9,14,-1
 1203 1190 l 2,15,16
 1208 1214 1208 1214 1208 1235 c 0,17,18
 1208 1330 1208 1330 1093 1330 c 2,19,-1
 783 1330 l 2,20,21
 643 1330 643 1330 613 1190 c 2,22,-1
 428 320 l 2,23,24
 423 296 423 296 423 275 c 0,25,26
 423 180 423 180 538 180 c 2,27,-1
 848 180 l 2,28,29
 988 180 988 180 1018 320 c 2,30,-1
 1091 665 l 1,31,-1
 763 665 l 1,32,-1
 765 675 l 1,33,-1
 882 845 l 1,34,-1
 1330 845 l 1,35,-1
 1224 350 l 2,36,37
 1149 0 1149 0 820 0 c 2,38,-1
 530 0 l 2,0,1
EndSplineSet
Validated: 1
EndChar

StartChar: H
Encoding: 72 72 43
Width: 1400
GlyphClass: 2
Flags: W
HStem: -20 21G<196 252.444 996 1052.44> 665 180<580 1141> 1510 20G<668.556 725 1468.56 1525>
DStem2: 196 -20 395.87 -20 0.207912 0.978148<133.566 741.761 925.936 1492.55> 996 -20 1195.87 -20 0.207912 0.978148<133.566 700.178 884.353 1492.55>
LayerCount: 2
Fore
SplineSet
196 -20 m 1,0,-1
 506 1440 l 1,1,-1
 715 1530 l 1,2,-1
 725 1530 l 1,3,-1
 580 845 l 1,4,-1
 1180 845 l 1,5,-1
 1306 1440 l 1,6,-1
 1515 1530 l 1,7,-1
 1525 1530 l 1,8,-1
 1215 70 l 1,9,-1
 1006 -20 l 1,10,-1
 996 -20 l 1,11,-1
 1141 665 l 1,12,-1
 541 665 l 1,13,-1
 415 70 l 1,14,-1
 206 -20 l 1,15,-1
 196 -20 l 1,0,-1
EndSplineSet
Validated: 1
EndChar

StartChar: I
Encoding: 73 73 44
Width: 600
GlyphClass: 2
Flags: W
HStem: -20 21G<196 252.444> 1510 20G<668.556 725>
VStem: 196 529
DStem2: 196 -20 395.87 -20 0.207912 0.978148<133.566 1492.55>
LayerCount: 2
Fore
SplineSet
196 -20 m 1,0,-1
 506 1440 l 1,1,-1
 715 1530 l 1,2,-1
 725 1530 l 1,3,-1
 415 70 l 1,4,-1
 206 -20 l 1,5,-1
 196 -20 l 1,0,-1
EndSplineSet
Validated: 1
EndChar

StartChar: J
Encoding: 74 74 45
Width: 1150
GlyphClass: 2
Flags: W
HStem: 0 180<306.68 808.625> 1330 180<526 1073>
VStem: 103 190<198.303 362>
DStem2: 789.982 0 989.605 0 0.207912 0.978148<203.883 1359.78>
LayerCount: 2
Fore
SplineSet
400 0 m 2,0,1
 103 0 103 0 103 250 c 0,2,3
 103 301 103 301 116 362 c 1,4,-1
 315 448 l 1,5,-1
 325 448 l 9,6,-1
 298 320 l 2,7,8
 293 296 293 296 293 275 c 0,9,10
 293 180 293 180 408 180 c 2,11,-1
 688 180 l 2,12,13
 828 180 828 180 858 320 c 2,14,-1
 1073 1330 l 1,15,-1
 408 1330 l 1,16,-1
 410 1340 l 1,17,-1
 526 1510 l 1,18,-1
 1311 1510 l 1,19,-1
 1064 350 l 2,20,21
 989 0 989 0 660 0 c 2,22,-1
 400 0 l 2,0,1
EndSplineSet
Validated: 1
EndChar

StartChar: K
Encoding: 75 75 46
Width: 1330
GlyphClass: 2
Flags: W
HStem: -20 21G<196 252.444 966 1022.44> 810 180<880 1098.73> 1510 20G<668.556 725 1299.17 1374.16>
VStem: 1117 201<604.491 790.427>
DStem2: 196 -20 395.87 -20 0.207912 0.978148<133.566 871.842 1081.06 1492.55> 611 997 880 990 0.801746 0.597665<211.486 891.804> 966 -20 1165.87 -20 0.207912 0.978148<133.566 749.72>
LayerCount: 2
Fore
SplineSet
206 -20 m 1,0,-1
 196 -20 l 1,1,-1
 506 1440 l 1,2,-1
 715 1530 l 1,3,-1
 725 1530 l 1,4,-1
 611 997 l 1,5,-1
 1326 1530 l 1,6,-1
 1336 1530 l 1,7,-1
 1502 1443 l 1,8,-1
 880 990 l 1,9,-1
 1010 990 l 2,10,11
 1318 990 1318 990 1318 747 c 0,12,13
 1318 698 1318 698 1306 640 c 2,14,-1
 1185 70 l 1,15,-1
 976 -20 l 1,16,-1
 966 -20 l 1,17,-1
 1112 670 l 2,18,19
 1117 695 1117 695 1117 715 c 0,20,21
 1117 810 1117 810 1002 810 c 2,22,-1
 712 810 l 2,23,24
 572 810 572 810 542 670 c 2,25,-1
 415 70 l 1,26,-1
 206 -20 l 1,0,-1
EndSplineSet
Validated: 1
EndChar

StartChar: L
Encoding: 76 76 47
Width: 1020
GlyphClass: 2
Flags: W
HStem: 0 180<438 930> 1510 20G<668.556 725>
DStem2: 200 0 399.74 0 0.207912 0.978148<225.55 1472.15>
LayerCount: 2
Fore
SplineSet
200 0 m 1,0,-1
 506 1440 l 1,1,-1
 715 1530 l 1,2,-1
 725 1530 l 1,3,-1
 438 180 l 1,4,-1
 1048 180 l 1,5,-1
 1046 170 l 1,6,-1
 930 0 l 1,7,-1
 200 0 l 1,0,-1
EndSplineSet
Validated: 1
EndChar

StartChar: M
Encoding: 77 77 48
Width: 2180
GlyphClass: 2
Flags: W
HStem: -20 21G<176 232.444 986 1042.44 1796 1852.44> 1330 180<682 1233.89 1493 2039.73>
VStem: 2058 201<1123.79 1310.43>
DStem2: 176 -20 375.87 -20 0.207912 0.978148<133.566 1401.75> 986 -20 1185.87 -20 0.207912 0.978148<133.566 1281.44> 1796 -20 1995.87 -20 0.207912 0.978148<133.566 1281.44>
LayerCount: 2
Fore
SplineSet
186 -20 m 1,0,-1
 176 -20 l 1,1,-1
 427 1160 l 2,2,3
 501 1510 501 1510 831 1510 c 2,4,-1
 1141 1510 l 2,5,6
 1304 1510 1304 1510 1375 1434 c 1,7,8
 1478 1510 1478 1510 1641 1510 c 2,9,-1
 1951 1510 l 2,10,11
 2259 1510 2259 1510 2259 1267 c 0,12,13
 2259 1218 2259 1218 2247 1160 c 2,14,-1
 2015 70 l 1,15,-1
 1806 -20 l 1,16,-1
 1796 -20 l 1,17,-1
 2053 1190 l 2,18,19
 2058 1215 2058 1215 2058 1235 c 0,20,21
 2058 1330 2058 1330 1943 1330 c 2,22,-1
 1613 1330 l 2,23,24
 1473 1330 1473 1330 1443 1190 c 2,25,-1
 1205 70 l 1,26,-1
 996 -20 l 1,27,-1
 986 -20 l 1,28,-1
 1243 1190 l 2,29,30
 1248 1215 1248 1215 1248 1235 c 0,31,32
 1248 1330 1248 1330 1133 1330 c 2,33,-1
 803 1330 l 2,34,35
 663 1330 663 1330 633 1190 c 2,36,-1
 395 70 l 1,37,-1
 186 -20 l 1,0,-1
EndSplineSet
Validated: 1
EndChar

StartChar: N
Encoding: 78 78 49
Width: 1370
GlyphClass: 2
Flags: W
HStem: -20 21G<176 232.444 986 1042.44> 1330 180<682 1229.73>
VStem: 1248 201<1123.79 1310.43>
DStem2: 176 -20 375.87 -20 0.207912 0.978148<133.566 1401.75> 986 -20 1185.87 -20 0.207912 0.978148<133.566 1281.44>
LayerCount: 2
Fore
SplineSet
186 -20 m 1,0,-1
 176 -20 l 1,1,-1
 427 1160 l 2,2,3
 501 1510 501 1510 831 1510 c 2,4,-1
 1141 1510 l 2,5,6
 1449 1510 1449 1510 1449 1267 c 0,7,8
 1449 1218 1449 1218 1437 1160 c 2,9,-1
 1205 70 l 1,10,-1
 996 -20 l 1,11,-1
 986 -20 l 1,12,-1
 1243 1190 l 2,13,14
 1248 1215 1248 1215 1248 1235 c 0,15,16
 1248 1330 1248 1330 1133 1330 c 2,17,-1
 803 1330 l 2,18,19
 663 1330 663 1330 633 1190 c 2,20,-1
 395 70 l 1,21,-1
 186 -20 l 1,0,-1
EndSplineSet
Validated: 1
EndChar

StartChar: O
Encoding: 79 79 50
Width: 1330
GlyphClass: 2
Flags: W
HStem: 0 180<440.981 988.625> 1330 180<662.375 1210.02>
VStem: 221 202<196.056 492.969> 1228 202<1017.03 1313.94>
DStem2: 159.605 0 359.982 0 0.207912 0.978148<324.366 1381.53> 969.982 0 1169.61 0 0.207912 0.978148<203.883 1261.04>
LayerCount: 2
Fore
SplineSet
538 180 m 2,0,-1
 868 180 l 2,1,2
 1008 180 1008 180 1038 320 c 2,3,-1
 1223 1190 l 2,4,5
 1228 1215 1228 1215 1228 1235 c 0,6,7
 1228 1330 1228 1330 1113 1330 c 2,8,-1
 783 1330 l 2,9,10
 643 1330 643 1330 613 1190 c 2,11,-1
 428 320 l 2,12,13
 423 295 423 295 423 275 c 0,14,15
 423 180 423 180 538 180 c 2,0,-1
530 0 m 2,16,17
 221 0 221 0 221 242 c 0,18,19
 221 291 221 291 234 350 c 2,20,-1
 407 1160 l 2,21,22
 482 1510 482 1510 811 1510 c 2,23,-1
 1121 1510 l 2,24,25
 1430 1510 1430 1510 1430 1268 c 0,26,27
 1430 1219 1430 1219 1417 1160 c 2,28,-1
 1244 350 l 2,29,30
 1169 0 1169 0 840 0 c 2,31,-1
 530 0 l 2,16,17
EndSplineSet
Validated: 1
EndChar

StartChar: P
Encoding: 80 80 51
Width: 1210
GlyphClass: 2
Flags: W
HStem: -20 21G<196 252.444> 500 180<545 1055.06> 1330 180<683 1169.73>
VStem: 1188 201<1126.85 1310.43>
DStem2: 196 -20 395.87 -20 0.207912 0.978148<133.566 573.089 757.265 1421.75> 925.452 -20 1126.08 -20 0.207912 0.978148<735.688 1281.55>
LayerCount: 2
Fore
SplineSet
206 -20 m 1,0,-1
 196 -20 l 1,1,-1
 506 1440 l 1,2,-1
 669 1510 l 1,3,-1
 1081 1510 l 2,4,5
 1389 1510 1389 1510 1389 1267 c 0,6,7
 1389 1218 1389 1218 1377 1160 c 2,8,-1
 1311 850 l 2,9,10
 1236 500 1236 500 906 500 c 2,11,-1
 506 500 l 1,12,-1
 415 70 l 1,13,-1
 206 -20 l 1,0,-1
683 1330 m 1,14,-1
 545 680 l 1,15,-1
 935 680 l 2,16,17
 1075 680 1075 680 1104 820 c 2,18,-1
 1183 1190 l 2,19,20
 1188 1215 1188 1215 1188 1235 c 0,21,22
 1188 1330 1188 1330 1073 1330 c 2,23,-1
 683 1330 l 1,14,-1
EndSplineSet
Validated: 1
EndChar

StartChar: Q
Encoding: 81 81 52
Width: 1330
GlyphClass: 2
Flags: W
HStem: 0 180<440.981 795> 1330 180<662.375 1210.02>
VStem: 221 202<196.056 492.969> 1228 202<1017.03 1313.94>
DStem2: 151.103 -40 351.48 -40 0.207912 0.978148<365.26 1422.42> 865 540 661 457 0.436318 -0.899793<0 293.383 502.13 538.023> 961.555 -40 1161.93 -40 0.207912 0.978148<290.092 1301.92>
LayerCount: 2
Fore
SplineSet
661 457 m 1,0,-1
 855 540 l 1,1,-1
 865 540 l 1,2,-1
 1008 245 l 1,3,4
 1028 275 1028 275 1038 320 c 2,5,-1
 1223 1190 l 2,6,7
 1228 1215 1228 1215 1228 1235 c 0,8,9
 1228 1330 1228 1330 1113 1330 c 2,10,-1
 783 1330 l 2,11,12
 643 1330 643 1330 613 1190 c 2,13,-1
 428 320 l 2,14,15
 423 295 423 295 423 275 c 0,16,17
 423 180 423 180 538 180 c 2,18,-1
 795 180 l 1,19,-1
 661 457 l 1,0,-1
530 0 m 2,20,21
 221 0 221 0 221 242 c 0,22,23
 221 291 221 291 234 350 c 2,24,-1
 407 1160 l 2,25,26
 482 1510 482 1510 811 1510 c 2,27,-1
 1121 1510 l 2,28,29
 1430 1510 1430 1510 1430 1268 c 0,30,31
 1430 1219 1430 1219 1417 1160 c 2,32,-1
 1244 350 l 2,33,34
 1205 165 1205 165 1090 78 c 1,35,-1
 1106 43 l 1,36,-1
 912 -40 l 1,37,-1
 902 -40 l 1,38,-1
 882 3 l 1,39,40
 852 0 852 0 820 0 c 2,41,-1
 530 0 l 2,20,21
EndSplineSet
Validated: 1
EndChar

StartChar: R
Encoding: 82 82 53
Width: 1294
GlyphClass: 2
Flags: W
HStem: -20 21G<196 252.444 1031 1100.65> 500 180<545 756 972 1057.38> 1330 180<683 1169.73>
VStem: 1188 201<1005 1313.53>
DStem2: 196 -20 395.87 -20 0.207912 0.978148<133.566 573.089 757.265 1421.75> 972 507 756 500 0.481919 -0.876216<0 495.5> 925.452 -20 1126.08 -20 0.207912 0.978148<733.952 1281.55>
LayerCount: 2
Fore
SplineSet
683 1330 m 1,0,-1
 545 680 l 1,1,-1
 935 680 l 2,2,3
 1075 680 1075 680 1104 820 c 2,4,-1
 1183 1190 l 2,5,6
 1188 1215 1188 1215 1188 1235 c 0,7,8
 1188 1330 1188 1330 1073 1330 c 2,9,-1
 683 1330 l 1,0,-1
206 -20 m 1,10,-1
 196 -20 l 1,11,-1
 506 1440 l 1,12,-1
 669 1510 l 1,13,-1
 1081 1510 l 2,14,15
 1389 1510 1389 1510 1389 1267 c 0,16,17
 1389 1218 1389 1218 1377 1160 c 2,18,-1
 1311 850 l 2,19,20
 1238 507 1238 507 972 507 c 1,21,-1
 1232 54 l 1,22,-1
 1052 -20 l 1,23,-1
 1042 -20 l 1,24,-1
 756 500 l 1,25,-1
 506 500 l 1,26,-1
 415 70 l 1,27,-1
 206 -20 l 1,10,-1
EndSplineSet
Validated: 1
EndChar

StartChar: T
Encoding: 84 84 54
Width: 1070
GlyphClass: 2
Flags: W
HStem: -20 21G<431 487.444> 1330 180<411 718 918 1263>
DStem2: 431 -20 630.87 -20 0.207912 0.978148<133.566 1380.17>
LayerCount: 2
Fore
SplineSet
431 -20 m 1,0,-1
 718 1330 l 1,1,-1
 293 1330 l 1,2,-1
 295 1340 l 1,3,-1
 411 1510 l 1,4,-1
 1381 1510 l 1,5,-1
 1379 1500 l 1,6,-1
 1263 1330 l 1,7,-1
 918 1330 l 1,8,-1
 650 70 l 1,9,-1
 441 -20 l 1,10,-1
 431 -20 l 1,0,-1
EndSplineSet
Validated: 1
EndChar

StartChar: U
Encoding: 85 85 55
Width: 1370
GlyphClass: 2
Flags: W
HStem: 0 180<461.27 1009> 1510 20G<648.556 705 1458.56 1515>
VStem: 242 201<199.573 386.208>
DStem2: 179.605 0 379.982 0 0.207912 0.978148<324.366 1472.24> 989.982 0 1189.61 0 0.207912 0.978148<203.973 1472.16>
LayerCount: 2
Fore
SplineSet
550 0 m 2,0,1
 242 0 242 0 242 243 c 0,2,3
 242 292 242 292 254 350 c 2,4,-1
 486 1440 l 1,5,-1
 695 1530 l 1,6,-1
 705 1530 l 1,7,-1
 448 320 l 2,8,9
 443 295 443 295 443 275 c 0,10,11
 443 180 443 180 558 180 c 2,12,-1
 888 180 l 2,13,14
 1028 180 1028 180 1058 320 c 2,15,-1
 1296 1440 l 1,16,-1
 1505 1530 l 1,17,-1
 1515 1530 l 1,18,-1
 1264 350 l 2,19,20
 1190 0 1190 0 860 0 c 2,21,-1
 550 0 l 2,0,1
EndSplineSet
Validated: 1
EndChar

StartChar: V
Encoding: 86 86 56
Width: 1233
GlyphClass: 2
Flags: W
HStem: -20 21G<522.154 581.4> 1510 20G<439.784 498.885 1374.21 1434.11>
DStem2: 496 1530 315 1456 0.140858 -0.99003<47.7669 1225.56> 671 317 709 55 0.508791 0.86089<0 1408.05>
LayerCount: 2
Fore
SplineSet
525 -20 m 1,0,-1
 315 1456 l 1,1,-1
 486 1530 l 1,2,-1
 496 1530 l 1,3,-1
 671 317 l 1,4,-1
 1386 1530 l 1,5,-1
 1396 1530 l 1,6,-1
 1537 1456 l 1,7,-1
 709 55 l 1,8,-1
 535 -20 l 1,9,-1
 525 -20 l 1,0,-1
EndSplineSet
Validated: 1
EndChar

StartChar: W
Encoding: 87 87 57
Width: 2180
GlyphClass: 2
Flags: W
HStem: 0 180<461.27 1008 1267.11 1819> 1510 20G<648.556 705 1458.56 1515 2268.56 2325>
VStem: 242 201<199.573 386.208>
DStem2: 179.605 0 379.982 0 0.207912 0.978148<324.366 1472.24> 989.982 0 1189.98 0 0.207912 0.978148<324.288 1472.16> 1799.98 0 1999.61 0 0.207912 0.978148<203.973 1472.16>
LayerCount: 2
Fore
SplineSet
550 0 m 2,0,1
 242 0 242 0 242 243 c 0,2,3
 242 292 242 292 254 350 c 2,4,-1
 486 1440 l 1,5,-1
 695 1530 l 1,6,-1
 705 1530 l 1,7,-1
 448 320 l 2,8,9
 443 295 443 295 443 275 c 0,10,11
 443 180 443 180 558 180 c 2,12,-1
 888 180 l 2,13,14
 1028 180 1028 180 1058 320 c 2,15,-1
 1296 1440 l 1,16,-1
 1505 1530 l 1,17,-1
 1515 1530 l 1,18,-1
 1258 320 l 2,19,20
 1253 295 1253 295 1253 275 c 0,21,22
 1253 180 1253 180 1368 180 c 2,23,-1
 1698 180 l 2,24,25
 1838 180 1838 180 1868 320 c 2,26,-1
 2106 1440 l 1,27,-1
 2315 1530 l 1,28,-1
 2325 1530 l 1,29,-1
 2074 350 l 2,30,31
 2000 0 2000 0 1670 0 c 2,32,-1
 1360 0 l 2,33,34
 1197 0 1197 0 1126 76 c 1,35,36
 1023 0 1023 0 860 0 c 2,37,-1
 550 0 l 2,0,1
EndSplineSet
Validated: 1
EndChar

StartChar: X
Encoding: 88 88 58
Width: 1164
GlyphClass: 2
Flags: W
HStem: -20 21G<155.622 220.705 953.73 1018.57> 1510 20G<467.143 532.257 1263.39 1328.13>
DStem2: 52 54 204 -20 0.639569 0.768733<40.3283 831.211 1129.67 1920.04> 524 1530 350 1460 0.382131 -0.924108<0 657.773 942.892 1599.74>
LayerCount: 2
Fore
SplineSet
204 -20 m 1,0,-1
 194 -20 l 1,1,-1
 52 54 l 1,2,-1
 640 759 l 1,3,-1
 350 1460 l 1,4,-1
 514 1530 l 1,5,-1
 524 1530 l 1,6,-1
 775 922 l 1,7,-1
 1280 1530 l 1,8,-1
 1290 1530 l 1,9,-1
 1433 1455 l 1,10,-1
 846 749 l 1,11,-1
 1135 50 l 1,12,-1
 972 -20 l 1,13,-1
 962 -20 l 1,14,-1
 711 587 l 1,15,-1
 204 -20 l 1,0,-1
EndSplineSet
Validated: 1
EndChar

StartChar: Y
Encoding: 89 89 59
Width: 1210
GlyphClass: 2
Flags: W
HStem: -20 21G<501 557.444> 450 180<497.27 601 801 1005> 1510 20G<588.556 645 1358.56 1415>
VStem: 278 201<649.573 835.635>
DStem2: 115.704 -20 316.08 -20 0.207912 0.978148<804.866 1492.61> 501 -20 700.87 -20 0.207912 0.978148<133.566 480.521> 886.08 -20 1085.7 -20 0.207912 0.978148<684.473 1492.53>
LayerCount: 2
Fore
SplineSet
511 -20 m 1,0,-1
 501 -20 l 1,1,-1
 601 450 l 1,2,-1
 586 450 l 2,3,4
 278 450 278 450 278 693 c 0,5,6
 278 742 278 742 290 800 c 2,7,-1
 426 1440 l 1,8,-1
 635 1530 l 1,9,-1
 645 1530 l 1,10,-1
 484 770 l 2,11,12
 479 745 479 745 479 725 c 0,13,14
 479 630 479 630 594 630 c 2,15,-1
 884 630 l 2,16,17
 1024 630 1024 630 1054 770 c 2,18,-1
 1196 1440 l 1,19,-1
 1405 1530 l 1,20,-1
 1415 1530 l 1,21,-1
 1260 800 l 2,22,23
 1186 450 1186 450 856 450 c 2,24,-1
 801 450 l 1,25,-1
 720 70 l 1,26,-1
 511 -20 l 1,0,-1
EndSplineSet
Validated: 1
EndChar

StartChar: Z
Encoding: 90 90 60
Width: 1040
GlyphClass: 2
Flags: W
HStem: 0 180<378 920> 1330 180<471 980>
DStem2: 42 10 378 180 0.580479 0.814275<333.468 1619.33>
LayerCount: 2
Fore
SplineSet
40 0 m 1,0,-1
 42 10 l 1,1,-1
 980 1330 l 1,2,-1
 353 1330 l 1,3,-1
 355 1340 l 1,4,-1
 471 1510 l 1,5,-1
 1321 1510 l 1,6,-1
 1319 1500 l 1,7,-1
 378 180 l 1,8,-1
 1038 180 l 1,9,-1
 1036 170 l 1,10,-1
 920 0 l 1,11,-1
 40 0 l 1,0,-1
EndSplineSet
Validated: 1
EndChar

StartChar: bracketleft
Encoding: 91 91 61
Width: 880
GlyphClass: 2
Flags: W
HStem: -240 180<387 699> 1570 180<762 1084>
DStem2: 149 -240 348.74 -240 0.207912 0.978148<225.55 1892.08>
LayerCount: 2
Fore
SplineSet
149 -240 m 1,0,-1
 553 1660 l 1,1,-1
 762 1750 l 1,2,-1
 1202 1750 l 1,3,-1
 1200 1740 l 1,4,-1
 1084 1570 l 1,5,-1
 734 1570 l 1,6,-1
 387 -60 l 1,7,-1
 817 -60 l 1,8,-1
 815 -70 l 1,9,-1
 699 -240 l 1,10,-1
 149 -240 l 1,0,-1
EndSplineSet
Validated: 1
EndChar

StartChar: backslash
Encoding: 92 92 62
Width: 1001
GlyphClass: 2
Flags: W
VStem: 361 600
DStem2: 502 1710 361 1652 0.240562 -0.970634<22.3775 1908.03>
LayerCount: 2
Fore
SplineSet
830 -200 m 1,0,-1
 820 -200 l 1,1,-1
 361 1652 l 1,2,-1
 492 1710 l 1,3,-1
 502 1710 l 1,4,-1
 961 -142 l 1,5,-1
 830 -200 l 1,0,-1
EndSplineSet
Validated: 1
EndChar

StartChar: bracketright
Encoding: 93 93 63
Width: 880
GlyphClass: 2
Flags: W
HStem: -240 180<117 439> 1570 180<502 814>
DStem2: 428.74 -240 628.87 -240 0.207912 0.978148<184.021 1850.55>
LayerCount: 2
Fore
SplineSet
439 -240 m 1,0,-1
 -1 -240 l 1,1,-1
 1 -230 l 1,2,-1
 117 -60 l 1,3,-1
 467 -60 l 1,4,-1
 814 1570 l 1,5,-1
 384 1570 l 1,6,-1
 386 1580 l 1,7,-1
 502 1750 l 1,8,-1
 1052 1750 l 1,9,-1
 648 -150 l 1,10,-1
 439 -240 l 1,0,-1
EndSplineSet
Validated: 1
EndChar

StartChar: asciicircum
Encoding: 94 94 64
Width: 868
GlyphClass: 2
Flags: W
HStem: 1160 410
DStem2: 816 1570 730 1393 0.61072 -0.791846<87.6349 381.454>
LayerCount: 2
Fore
SplineSet
806 1570 m 1,0,-1
 816 1570 l 1,1,-1
 1079 1229 l 1,2,-1
 919 1160 l 1,3,-1
 909 1160 l 1,4,-1
 730 1393 l 1,5,-1
 459 1160 l 1,6,-1
 449 1160 l 1,7,-1
 313 1237 l 1,8,-1
 615 1488 l 1,9,-1
 806 1570 l 1,0,-1
EndSplineSet
Validated: 1
EndChar

StartChar: underscore
Encoding: 95 95 65
Width: 1364
GlyphClass: 2
Flags: W
HStem: -410 120<140 1075>
LayerCount: 2
Fore
SplineSet
63 -410 m 1,0,-1
 65 -400 l 1,1,-1
 140 -290 l 1,2,-1
 1152 -290 l 1,3,-1
 1150 -300 l 1,4,-1
 1075 -410 l 1,5,-1
 63 -410 l 1,0,-1
EndSplineSet
Validated: 1
EndChar

StartChar: grave
Encoding: 96 96 66
Width: 377
GlyphClass: 2
Flags: W
HStem: 1160 367
VStem: 362 223
DStem2: 505 1527 362 1470 0.261536 -0.965194<17.6163 321.098>
LayerCount: 2
Fore
SplineSet
495 1527 m 1,0,-1
 505 1527 l 1,1,-1
 585 1216 l 1,2,-1
 456 1160 l 1,3,-1
 446 1160 l 1,4,-1
 362 1470 l 1,5,-1
 495 1527 l 1,0,-1
EndSplineSet
Validated: 1
EndChar

StartChar: a
Encoding: 97 97 67
Width: 1064
GlyphClass: 2
Flags: W
HStem: -20 21G<700 756.173> 0 160<334.631 706.467> 580 160<406.166 813.084> 940 160<549 883.369>
VStem: 150 180<165.721 313.716> 888 180<723.086 935.464>
DStem2: 96.233 -20 275.61 -20 0.207912 0.978148<284.735 646.847> 704.61 -20 879.783 -20 0.207912 0.978148<182.904 549.983 754.535 917.085>
LayerCount: 2
Fore
SplineSet
400 0 m 2,0,1
 150 0 150 0 150 195 c 0,2,3
 150 234 150 234 160 280 c 2,4,-1
 198 460 l 2,5,6
 257 740 257 740 517 740 c 2,7,-1
 741 740 l 2,8,9
 820 740 820 740 857 719 c 1,10,-1
 885 850 l 2,11,12
 888 866 888 866 888 879 c 0,13,14
 888 940 888 940 814 940 c 2,15,-1
 444 940 l 1,16,-1
 446 950 l 1,17,-1
 549 1100 l 1,18,-1
 818 1100 l 2,19,20
 1068 1100 1068 1100 1068 905 c 0,21,22
 1068 866 1068 866 1058 820 c 2,23,-1
 897 61 l 1,24,-1
 710 -20 l 1,25,-1
 700 -20 l 1,26,-1
 708 21 l 1,27,28
 659 0 659 0 604 0 c 2,29,-1
 400 0 l 2,0,1
404 160 m 2,30,-1
 653 160 l 2,31,32
 743 160 743 160 762 250 c 2,33,-1
 813 490 l 2,34,35
 816 506 816 506 816 519 c 0,36,37
 816 580 816 580 742 580 c 2,38,-1
 493 580 l 2,39,40
 403 580 403 580 384 490 c 2,41,-1
 333 250 l 2,42,43
 330 234 330 234 330 221 c 0,44,45
 330 160 330 160 404 160 c 2,30,-1
EndSplineSet
Validated: 1
EndChar

StartChar: b
Encoding: 98 98 68
Width: 1170
GlyphClass: 2
Flags: W
HStem: 0 160<414.631 861.248> 940 160<590.594 1009.37> 1510 20G<628.827 685>
VStem: 230 180<164.536 440.945> 1014 180<661.094 935.464>
DStem2: 180.484 0 359.861 0 0.207912 0.978148<264.288 999.509 1140.36 1481.27> 829.861 0 1010.48 0 0.207912 0.978148<167.611 897.678>
LayerCount: 2
Fore
SplineSet
484 160 m 2,0,-1
 774 160 l 2,1,2
 864 160 864 160 883 250 c 2,3,-1
 1011 850 l 2,4,5
 1014 866 1014 866 1014 879 c 0,6,7
 1014 940 1014 940 940 940 c 2,8,-1
 650 940 l 2,9,10
 560 940 560 940 541 850 c 2,11,-1
 413 250 l 2,12,13
 410 234 410 234 410 221 c 0,14,15
 410 160 410 160 484 160 c 2,0,-1
480 0 m 2,16,17
 230 0 230 0 230 195 c 0,18,19
 230 234 230 234 240 280 c 2,20,-1
 488 1449 l 1,21,-1
 675 1530 l 1,22,-1
 685 1530 l 1,23,-1
 589 1079 l 1,24,25
 640 1100 640 1100 694 1100 c 2,26,-1
 944 1100 l 2,27,28
 1194 1100 1194 1100 1194 905 c 0,29,30
 1194 866 1194 866 1184 820 c 2,31,-1
 1070 280 l 2,32,33
 1011 0 1011 0 750 0 c 2,34,-1
 480 0 l 2,16,17
EndSplineSet
Validated: 1
EndChar

StartChar: c
Encoding: 99 99 69
Width: 1050
GlyphClass: 2
Flags: W
HStem: 0 160<394.631 821.965> 940 160<542.752 966.492>
VStem: 210 180<165.721 315.661> 974 169<811 934.921>
DStem2: 160.484 0 339.861 0 0.207912 0.978148<264.348 994.355>
LayerCount: 2
Fore
SplineSet
460 0 m 2,0,1
 210 0 210 0 210 195 c 0,2,3
 210 233 210 233 220 280 c 2,4,-1
 334 820 l 2,5,6
 393 1100 393 1100 654 1100 c 2,7,-1
 904 1100 l 2,8,9
 1143 1100 1143 1100 1143 899 c 0,10,11
 1143 859 1143 859 1133 811 c 1,12,-1
 956 734 l 1,13,-1
 946 734 l 1,14,-1
 971 850 l 2,15,16
 974 864 974 864 974 879 c 0,17,18
 974 940 974 940 900 940 c 2,19,-1
 630 940 l 2,20,21
 540 940 540 940 521 850 c 2,22,-1
 393 250 l 2,23,24
 390 236 390 236 390 221 c 0,25,26
 390 160 390 160 464 160 c 2,27,-1
 734 160 l 2,28,29
 824 160 824 160 843 250 c 2,30,-1
 855 307 l 1,31,-1
 1042 388 l 1,32,-1
 1052 388 l 1,33,-1
 1030 280 l 2,34,35
 973 0 973 0 710 0 c 2,36,-1
 460 0 l 2,0,1
EndSplineSet
Validated: 1
EndChar

StartChar: d
Encoding: 100 100 70
Width: 1170
GlyphClass: 2
Flags: W
HStem: 0 160<394.631 841.248> 940 160<542.752 991.039> 1510 20G<1258.83 1315>
VStem: 210 180<164.536 438.906>
DStem2: 160.484 0 339.861 0 0.207912 0.978148<264.288 994.355> 809.861 0 990.484 0 0.207912 0.978148<167.611 897.678 1103.06 1481.4>
LayerCount: 2
Fore
SplineSet
754 160 m 2,0,1
 844 160 844 160 863 250 c 2,2,-1
 991 850 l 2,3,4
 994 866 994 866 994 879 c 0,5,6
 994 940 994 940 920 940 c 2,7,-1
 630 940 l 2,8,9
 540 940 540 940 521 850 c 2,10,-1
 393 250 l 2,11,12
 390 234 390 234 390 221 c 0,13,14
 390 160 390 160 464 160 c 2,15,-1
 754 160 l 2,0,1
460 0 m 2,16,17
 210 0 210 0 210 195 c 0,18,19
 210 234 210 234 220 280 c 2,20,-1
 334 820 l 2,21,22
 393 1100 393 1100 654 1100 c 2,23,-1
 924 1100 l 2,24,25
 997 1100 997 1100 1039 1079 c 1,26,-1
 1118 1449 l 1,27,-1
 1305 1530 l 1,28,-1
 1315 1530 l 1,29,-1
 1050 280 l 2,30,31
 991 0 991 0 730 0 c 2,32,-1
 460 0 l 2,16,17
EndSplineSet
Validated: 1
EndChar

StartChar: e
Encoding: 101 101 71
Width: 1130
GlyphClass: 2
Flags: W
HStem: 0 160<394.631 821.965> 940 160<542.752 969.369>
VStem: 210 180<165.721 307.967> 974 180<790.608 934.279>
DStem2: 160.484 0 339.861 0 0.207912 0.978148<264.288 388.006 566.874 994.355> 450 518 413 343 0.917427 0.397904<0 540.991> 789.861 0 970.484 0 0.207912 0.978148<167.79 313.835 750.423 897.678>
LayerCount: 2
Fore
SplineSet
710 0 m 2,0,1
 460 0 l 2,2,3
 210 0 210 0 210 195 c 0,4,5
 210 234 210 234 220 280 c 2,6,-1
 334 820 l 2,7,8
 393 1100 393 1100 654 1100 c 2,9,-1
 904 1100 l 2,10,11
 1154 1100 1154 1100 1154 905 c 0,12,13
 1154 867 1154 867 1144 820 c 2,14,-1
 1107 644 l 1,15,-1
 413 343 l 1,16,-1
 393 250 l 2,17,18
 390 234 390 234 390 221 c 0,19,20
 390 160 390 160 464 160 c 2,21,-1
 734 160 l 2,22,23
 824 160 824 160 843 250 c 2,24,-1
 855 307 l 1,25,-1
 1042 388 l 1,26,-1
 1052 388 l 1,27,-1
 1030 280 l 2,28,29
 973 0 973 0 710 0 c 2,0,1
450 518 m 1,30,-1
 946 734 l 1,31,-1
 971 850 l 2,32,33
 974 866 974 866 974 879 c 0,34,35
 974 940 974 940 900 940 c 2,36,-1
 630 940 l 2,37,38
 540 940 540 940 521 850 c 2,39,-1
 450 518 l 1,30,-1
EndSplineSet
Validated: 1
EndChar

StartChar: f
Encoding: 102 102 72
Width: 780
GlyphClass: 2
Flags: W
HStem: -20 21G<176 232.173> 740 160<551 817> 1350 160<649.752 986>
DStem2: 176 -20 355.783 -20 0.207912 0.978148<120.189 814.29 977.863 1433.98>
LayerCount: 2
Fore
SplineSet
186 -20 m 1,0,-1
 176 -20 l 1,1,-1
 441 1230 l 2,2,3
 500 1510 500 1510 761 1510 c 2,4,-1
 1091 1510 l 1,5,-1
 1089 1500 l 1,6,-1
 986 1350 l 1,7,-1
 737 1350 l 2,8,9
 647 1350 647 1350 628 1260 c 2,10,-1
 551 900 l 1,11,-1
 922 900 l 1,12,-1
 920 890 l 1,13,-1
 817 740 l 1,14,-1
 517 740 l 1,15,-1
 373 61 l 1,16,-1
 186 -20 l 1,0,-1
EndSplineSet
Validated: 1
EndChar

StartChar: g
Encoding: 103 103 73
Width: 1170
GlyphClass: 2
Flags: W
HStem: -410 160<318 753.475> 0 160<394.631 812.59> 940 160<542.752 989.369>
VStem: 210 180<165.721 315.661> 994 180<784.339 934.279>
DStem2: 73.336 -410 252.713 -410 0.207912 0.978148<683.448 1413.51> 722.861 -410 902.484 -410 0.207912 0.978148<167.334 440.531 581.586 1316.81>
LayerCount: 2
Fore
SplineSet
460 0 m 2,0,1
 210 0 210 0 210 195 c 0,2,3
 210 234 210 234 220 280 c 2,4,-1
 334 820 l 2,5,6
 393 1100 393 1100 654 1100 c 2,7,-1
 924 1100 l 2,8,9
 1174 1100 1174 1100 1174 905 c 0,10,11
 1174 866 1174 866 1164 820 c 2,12,-1
 962 -130 l 2,13,14
 902 -410 902 -410 643 -410 c 2,15,-1
 213 -410 l 1,16,-1
 215 -400 l 1,17,-1
 318 -250 l 1,18,-1
 667 -250 l 2,19,20
 757 -250 757 -250 776 -160 c 2,21,-1
 814 21 l 1,22,23
 769 0 769 0 710 0 c 2,24,-1
 460 0 l 2,0,1
991 850 m 2,25,26
 994 866 994 866 994 879 c 0,27,28
 994 940 994 940 920 940 c 2,29,-1
 630 940 l 2,30,31
 540 940 540 940 521 850 c 2,32,-1
 393 250 l 2,33,34
 390 234 390 234 390 221 c 0,35,36
 390 160 390 160 464 160 c 2,37,-1
 754 160 l 2,38,39
 844 160 844 160 863 250 c 2,40,-1
 991 850 l 2,25,26
EndSplineSet
Validated: 1
EndChar

StartChar: h
Encoding: 104 104 74
Width: 1210
GlyphClass: 2
Flags: W
HStem: -20 21G<196 252.173 846 902.173> 940 160<610.656 1029.37> 1510 20G<648.827 705>
VStem: 1034 180<783.658 934.279>
DStem2: 196 -20 375.783 -20 0.207912 0.978148<120.189 1020 1160.85 1501.77> 846 -20 1025.78 -20 0.207912 0.978148<120.189 918.044>
LayerCount: 2
Fore
SplineSet
206 -20 m 1,0,-1
 196 -20 l 1,1,-1
 508 1449 l 1,2,-1
 695 1530 l 1,3,-1
 705 1530 l 1,4,-1
 609 1079 l 1,5,6
 662 1100 662 1100 714 1100 c 2,7,-1
 964 1100 l 2,8,9
 1214 1100 1214 1100 1214 905 c 0,10,11
 1214 866 1214 866 1204 820 c 2,12,-1
 1043 61 l 1,13,-1
 856 -20 l 1,14,-1
 846 -20 l 1,15,-1
 1031 850 l 2,16,17
 1034 866 1034 866 1034 879 c 0,18,19
 1034 940 1034 940 960 940 c 2,20,-1
 670 940 l 2,21,22
 580 940 580 940 561 850 c 2,23,-1
 393 61 l 1,24,-1
 206 -20 l 1,0,-1
EndSplineSet
Validated: 1
EndChar

StartChar: i
Encoding: 105 105 75
Width: 580
GlyphClass: 2
Flags: W
HStem: -20 21G<196 252.173> 1100 20G<561.827 618> 1220 245<499.711 650.42>
VStem: 452 246<1267.59 1416.76>
DStem2: 196 -20 375.783 -20 0.207912 0.978148<120.189 1082.64>
LayerCount: 2
Fore
SplineSet
601 1465 m 0,0,1
 653 1465 653 1465 679 1429 c 0,2,3
 698 1404 698 1404 698 1370 c 0,4,5
 698 1356 698 1356 695 1342 c 0,6,7
 684 1292 684 1292 641.5 1256 c 128,-1,8
 599 1220 599 1220 549 1220 c 128,-1,9
 499 1220 499 1220 471 1256 c 0,10,11
 452 1281 452 1281 452 1315 c 0,12,13
 452 1328 452 1328 455 1342 c 0,14,15
 466 1392 466 1392 508.5 1428.5 c 128,-1,16
 551 1465 551 1465 601 1465 c 0,0,1
196 -20 m 1,17,-1
 421 1039 l 1,18,-1
 608 1120 l 1,19,-1
 618 1120 l 1,20,-1
 393 61 l 1,21,-1
 206 -20 l 1,22,-1
 196 -20 l 1,17,-1
EndSplineSet
Validated: 1
EndChar

StartChar: j
Encoding: 106 106 76
Width: 580
GlyphClass: 2
Flags: W
HStem: -410 160<-17 143.475> 1100 20G<561.827 618> 1220 245<499.711 650.42>
VStem: 452 246<1267.59 1416.76>
DStem2: 112.861 -410 292.484 -410 0.207912 0.978148<167.334 1481.4>
LayerCount: 2
Fore
SplineSet
601 1465 m 0,0,1
 653 1465 653 1465 679 1429 c 0,2,3
 698 1404 698 1404 698 1370 c 0,4,5
 698 1356 698 1356 695 1342 c 0,6,7
 684 1292 684 1292 641.5 1256 c 128,-1,8
 599 1220 599 1220 549 1220 c 128,-1,9
 499 1220 499 1220 471 1256 c 0,10,11
 452 1281 452 1281 452 1315 c 0,12,13
 452 1328 452 1328 455 1342 c 0,14,15
 466 1392 466 1392 508.5 1428.5 c 128,-1,16
 551 1465 551 1465 601 1465 c 0,0,1
-122 -410 m 1,17,-1
 -120 -400 l 1,18,-1
 -17 -250 l 1,19,-1
 57 -250 l 2,20,21
 147 -250 147 -250 166 -160 c 2,22,-1
 421 1039 l 1,23,-1
 608 1120 l 1,24,-1
 618 1120 l 1,25,-1
 352 -130 l 2,26,27
 292 -410 292 -410 33 -410 c 2,28,-1
 -122 -410 l 1,17,-1
EndSplineSet
Validated: 1
EndChar

StartChar: k
Encoding: 107 107 77
Width: 1170
GlyphClass: 2
Flags: W
HStem: -20 21G<196 252.173 826 882.173> 596 160<799 936.369> 1100 20G<1028.61 1101.73> 1510 20G<648.827 705>
VStem: 941 180<440.428 590.279>
DStem2: 196 -20 375.783 -20 0.207912 0.978148<120.189 668.343 815.268 1501.77> 537 741 799 756 0.807591 0.589743<220.435 642.652> 826 -20 1005.78 -20 0.207912 0.978148<120.189 566.323>
LayerCount: 2
Fore
SplineSet
206 -20 m 1,0,-1
 196 -20 l 1,1,-1
 508 1449 l 1,2,-1
 695 1530 l 1,3,-1
 705 1530 l 1,4,-1
 537 741 l 1,5,-1
 1056 1120 l 1,6,-1
 1066 1120 l 1,7,-1
 1200 1045 l 1,8,-1
 799 756 l 1,9,-1
 871 756 l 2,10,11
 1121 756 1121 756 1121 561 c 0,12,13
 1121 523 1121 523 1111 476 c 2,14,-1
 1023 61 l 1,15,-1
 836 -20 l 1,16,-1
 826 -20 l 1,17,-1
 938 506 l 2,18,19
 941 520 941 520 941 535 c 0,20,21
 941 596 941 596 867 596 c 2,22,-1
 597 596 l 2,23,24
 507 596 507 596 488 506 c 2,25,-1
 393 61 l 1,26,-1
 206 -20 l 1,0,-1
EndSplineSet
Validated: 1
EndChar

StartChar: l
Encoding: 108 108 78
Width: 580
GlyphClass: 2
Flags: W
HStem: -20 21G<196 252.173> 1510 20G<648.827 705>
VStem: 196 509
DStem2: 196 -20 375.783 -20 0.207912 0.978148<120.189 1501.77>
LayerCount: 2
Fore
SplineSet
196 -20 m 1,0,-1
 508 1449 l 1,1,-1
 695 1530 l 1,2,-1
 705 1530 l 1,3,-1
 393 61 l 1,4,-1
 206 -20 l 1,5,-1
 196 -20 l 1,0,-1
EndSplineSet
Validated: 1
EndChar

StartChar: m
Encoding: 109 109 79
Width: 1840
GlyphClass: 2
Flags: W
HStem: -20 21G<176 232.173 826 882.173 1476 1532.17> 940 160<562.752 1010.29 1210.12 1659.37>
VStem: 1664 180<783.658 934.279>
DStem2: 176 -20 355.783 -20 0.207912 0.978148<120.189 1014.85> 826 -20 1005.78 -20 0.207912 0.978148<120.189 918.044> 1476 -20 1655.78 -20 0.207912 0.978148<120.189 918.044>
LayerCount: 2
Fore
SplineSet
186 -20 m 1,0,-1
 176 -20 l 1,1,-1
 354 820 l 2,2,3
 413 1100 413 1100 674 1100 c 2,4,-1
 944 1100 l 2,5,6
 1065 1100 1065 1100 1123 1047 c 1,7,8
 1203 1100 1203 1100 1324 1100 c 2,9,-1
 1594 1100 l 2,10,11
 1844 1100 1844 1100 1844 905 c 0,12,13
 1844 866 1844 866 1834 820 c 2,14,-1
 1673 61 l 1,15,-1
 1486 -20 l 1,16,-1
 1476 -20 l 1,17,-1
 1661 850 l 2,18,19
 1664 866 1664 866 1664 879 c 0,20,21
 1664 940 1664 940 1590 940 c 2,22,-1
 1300 940 l 2,23,24
 1210 940 1210 940 1191 850 c 2,25,-1
 1023 61 l 1,26,-1
 836 -20 l 1,27,-1
 826 -20 l 1,28,-1
 1011 850 l 2,29,30
 1014 866 1014 866 1014 879 c 0,31,32
 1014 940 1014 940 940 940 c 2,33,-1
 650 940 l 2,34,35
 560 940 560 940 541 850 c 2,36,-1
 373 61 l 1,37,-1
 186 -20 l 1,0,-1
EndSplineSet
Validated: 1
EndChar

StartChar: n
Encoding: 110 110 80
Width: 1190
GlyphClass: 2
Flags: W
HStem: -20 21G<176 232.173 826 882.173> 940 160<562.752 1009.37>
VStem: 1014 180<783.658 934.279>
DStem2: 176 -20 355.783 -20 0.207912 0.978148<120.189 1014.85> 826 -20 1005.78 -20 0.207912 0.978148<120.189 918.044>
LayerCount: 2
Fore
SplineSet
186 -20 m 1,0,-1
 176 -20 l 1,1,-1
 354 820 l 2,2,3
 413 1100 413 1100 674 1100 c 2,4,-1
 944 1100 l 2,5,6
 1194 1100 1194 1100 1194 905 c 0,7,8
 1194 866 1194 866 1184 820 c 2,9,-1
 1023 61 l 1,10,-1
 836 -20 l 1,11,-1
 826 -20 l 1,12,-1
 1011 850 l 2,13,14
 1014 866 1014 866 1014 879 c 0,15,16
 1014 940 1014 940 940 940 c 2,17,-1
 650 940 l 2,18,19
 560 940 560 940 541 850 c 2,20,-1
 373 61 l 1,21,-1
 186 -20 l 1,0,-1
EndSplineSet
Validated: 1
EndChar

StartChar: o
Encoding: 111 111 81
Width: 1150
GlyphClass: 2
Flags: W
HStem: 0 160<394.631 841.248> 940 160<542.752 989.369>
VStem: 210 180<164.536 438.906> 994 180<661.094 935.464>
DStem2: 160.484 0 339.861 0 0.207912 0.978148<264.288 994.355> 809.861 0 990.484 0 0.207912 0.978148<167.611 897.678>
LayerCount: 2
Fore
SplineSet
464 160 m 2,0,-1
 754 160 l 2,1,2
 844 160 844 160 863 250 c 2,3,-1
 991 850 l 2,4,5
 994 866 994 866 994 879 c 0,6,7
 994 940 994 940 920 940 c 2,8,-1
 630 940 l 2,9,10
 540 940 540 940 521 850 c 2,11,-1
 393 250 l 2,12,13
 390 234 390 234 390 221 c 0,14,15
 390 160 390 160 464 160 c 2,0,-1
460 0 m 2,16,17
 210 0 210 0 210 195 c 0,18,19
 210 234 210 234 220 280 c 2,20,-1
 334 820 l 2,21,22
 393 1100 393 1100 654 1100 c 2,23,-1
 924 1100 l 2,24,25
 1174 1100 1174 1100 1174 905 c 0,26,27
 1174 866 1174 866 1164 820 c 2,28,-1
 1050 280 l 2,29,30
 991 0 991 0 730 0 c 2,31,-1
 460 0 l 2,16,17
EndSplineSet
Validated: 1
EndChar

StartChar: p
Encoding: 112 112 82
Width: 1170
GlyphClass: 2
Flags: W
HStem: -430 21G<89 145.173> 0 160<412.695 861.248> 940 160<562.752 1009.37>
VStem: 1014 180<661.094 935.464>
DStem2: 89 -430 268.783 -430 0.207912 0.978148<120.189 498.32 703.912 1433.98> 738.462 -430 919.085 -430 0.207912 0.978148<607.218 1337.28>
LayerCount: 2
Fore
SplineSet
650 940 m 2,0,1
 560 940 560 940 541 850 c 2,2,-1
 413 250 l 2,3,4
 410 234 410 234 410 221 c 0,5,6
 410 160 410 160 484 160 c 2,7,-1
 774 160 l 2,8,9
 864 160 864 160 883 250 c 2,10,-1
 1011 850 l 2,11,12
 1014 866 1014 866 1014 879 c 0,13,14
 1014 940 1014 940 940 940 c 2,15,-1
 650 940 l 2,0,1
750 0 m 2,16,-1
 480 0 l 2,17,18
 407 0 407 0 364 21 c 1,19,-1
 286 -349 l 1,20,-1
 99 -430 l 1,21,-1
 89 -430 l 1,22,-1
 354 820 l 2,23,24
 413 1100 413 1100 674 1100 c 2,25,-1
 944 1100 l 2,26,27
 1194 1100 1194 1100 1194 905 c 0,28,29
 1194 866 1194 866 1184 820 c 2,30,-1
 1070 280 l 2,31,32
 1011 0 1011 0 750 0 c 2,16,-1
EndSplineSet
Validated: 1
EndChar

StartChar: q
Encoding: 113 113 83
Width: 1170
GlyphClass: 2
Flags: W
HStem: -430 21G<719 775.173> 0 160<394.631 812.406> 940 160<542.752 989.369>
VStem: 210 180<164.536 438.906> 994 180<659.055 935.464>
DStem2: 69.0848 -430 248.462 -430 0.207912 0.978148<703.894 1433.96> 719 -430 898.783 -430 0.207912 0.978148<120.189 460.896 601.952 1337.17>
LayerCount: 2
Fore
SplineSet
920 940 m 2,0,-1
 630 940 l 2,1,2
 540 940 540 940 521 850 c 2,3,-1
 393 250 l 2,4,5
 390 234 390 234 390 221 c 0,6,7
 390 160 390 160 464 160 c 2,8,-1
 754 160 l 2,9,10
 844 160 844 160 863 250 c 2,11,-1
 991 850 l 2,12,13
 994 866 994 866 994 879 c 0,14,15
 994 940 994 940 920 940 c 2,0,-1
460 0 m 2,16,17
 210 0 210 0 210 195 c 0,18,19
 210 234 210 234 220 280 c 2,20,-1
 334 820 l 2,21,22
 393 1100 393 1100 654 1100 c 2,23,-1
 924 1100 l 2,24,25
 1174 1100 1174 1100 1174 905 c 0,26,27
 1174 866 1174 866 1164 820 c 2,28,-1
 916 -349 l 1,29,-1
 729 -430 l 1,30,-1
 719 -430 l 1,31,-1
 814 21 l 1,32,33
 763 0 763 0 710 0 c 2,34,-1
 460 0 l 2,16,17
EndSplineSet
Validated: 1
EndChar

StartChar: r
Encoding: 114 114 84
Width: 780
GlyphClass: 2
Flags: W
HStem: -20 21G<176 232.173> 940 160<562.752 899>
DStem2: 176 -20 355.783 -20 0.207912 0.978148<120.189 1014.85>
LayerCount: 2
Fore
SplineSet
186 -20 m 1,0,-1
 176 -20 l 1,1,-1
 354 820 l 2,2,3
 413 1100 413 1100 674 1100 c 2,4,5
 1004 1100 l 1,6,-1
 1002 1090 l 1,7,-1
 899 940 l 1,8,-1
 650 940 l 2,9,10
 560 940 560 940 541 850 c 2,11,12
 373 61 l 1,13,-1
 186 -20 l 1,0,-1
EndSplineSet
Validated: 1
EndChar

StartChar: t
Encoding: 116 116 85
Width: 780
GlyphClass: 2
Flags: W
HStem: -20 21G<296 352.173> 940 160<315 500 714 899> 1510 20G<748.827 805>
DStem2: 296 -20 475.783 -20 0.207912 0.978148<120.189 981.436 1182.43 1501.77>
LayerCount: 2
Fore
SplineSet
296 -20 m 1,0,-1
 500 940 l 1,1,-1
 210 940 l 1,2,-1
 212 950 l 1,3,-1
 315 1100 l 1,4,-1
 534 1100 l 1,5,-1
 608 1449 l 1,6,-1
 795 1530 l 1,7,-1
 805 1530 l 1,8,-1
 714 1100 l 1,9,-1
 1004 1100 l 1,10,-1
 1002 1090 l 1,11,-1
 899 940 l 1,12,-1
 680 940 l 1,13,-1
 493 61 l 1,14,-1
 306 -20 l 1,15,-1
 296 -20 l 1,0,-1
EndSplineSet
Validated: 1
EndChar

StartChar: u
Encoding: 117 117 86
Width: 1190
GlyphClass: 2
Flags: W
HStem: 0 160<414.631 861.248> 1100 20G<541.827 598 1191.83 1248>
VStem: 230 180<165.721 316.342>
DStem2: 180.484 0 359.861 0 0.207912 0.978148<264.288 1062.14> 829.861 0 1010.48 0 0.207912 0.978148<167.611 1062.27>
LayerCount: 2
Fore
SplineSet
480 0 m 2,0,1
 230 0 230 0 230 195 c 0,2,3
 230 234 230 234 240 280 c 2,4,-1
 401 1039 l 1,5,-1
 588 1120 l 1,6,-1
 598 1120 l 1,7,-1
 413 250 l 2,8,9
 410 234 410 234 410 221 c 0,10,11
 410 160 410 160 484 160 c 2,12,-1
 774 160 l 2,13,14
 864 160 864 160 883 250 c 2,15,-1
 1051 1039 l 1,16,-1
 1238 1120 l 1,17,-1
 1248 1120 l 1,18,-1
 1070 280 l 2,19,20
 1011 0 1011 0 750 0 c 2,21,-1
 480 0 l 2,0,1
EndSplineSet
Validated: 1
EndChar

StartChar: v
Encoding: 118 118 87
Width: 952
GlyphClass: 2
Flags: W
HStem: -20 21G<386.015 445.4> 1100 20G<339.824 398.87 1018.19 1077.14>
DStem2: 396 1120 229 1052 0.147619 -0.989044<42.6027 872.839> 520 256 573 55 0.514496 0.857493<0 1003.27>
LayerCount: 2
Fore
SplineSet
389 -20 m 1,0,-1
 229 1052 l 1,1,-1
 386 1120 l 1,2,-1
 396 1120 l 1,3,-1
 520 256 l 1,4,-1
 1030 1120 l 1,5,-1
 1040 1120 l 1,6,-1
 1170 1050 l 1,7,-1
 573 55 l 1,8,-1
 399 -20 l 1,9,-1
 389 -20 l 1,0,-1
EndSplineSet
Validated: 1
EndChar

StartChar: w
Encoding: 119 119 88
Width: 1840
GlyphClass: 2
Flags: W
HStem: 0 160<414.631 863.881 1063.71 1511.25> 1100 20G<541.827 598 1191.83 1248 1841.83 1898>
VStem: 230 180<165.721 316.342>
DStem2: 180.484 0 359.861 0 0.207912 0.978148<264.288 1062.14> 829.861 0 1009.86 0 0.207912 0.978148<264.417 1062.27> 1479.86 0 1660.48 0 0.207912 0.978148<167.611 1062.27>
LayerCount: 2
Fore
SplineSet
480 0 m 2,0,1
 230 0 230 0 230 195 c 0,2,3
 230 234 230 234 240 280 c 2,4,-1
 401 1039 l 1,5,-1
 588 1120 l 1,6,-1
 598 1120 l 1,7,-1
 413 250 l 2,8,9
 410 234 410 234 410 221 c 0,10,11
 410 160 410 160 484 160 c 2,12,-1
 774 160 l 2,13,14
 864 160 864 160 883 250 c 2,15,-1
 1051 1039 l 1,16,-1
 1238 1120 l 1,17,-1
 1248 1120 l 1,18,-1
 1063 250 l 2,19,20
 1060 234 1060 234 1060 221 c 0,21,22
 1060 160 1060 160 1134 160 c 2,23,-1
 1424 160 l 2,24,25
 1514 160 1514 160 1533 250 c 2,26,-1
 1701 1039 l 1,27,-1
 1888 1120 l 1,28,-1
 1898 1120 l 1,29,-1
 1720 280 l 2,30,31
 1661 0 1661 0 1400 0 c 2,32,-1
 1130 0 l 2,33,34
 1009 0 1009 0 951 53 c 1,35,36
 871 0 871 0 750 0 c 2,37,-1
 480 0 l 2,0,1
EndSplineSet
Validated: 1
EndChar

StartChar: x
Encoding: 120 120 89
Width: 893
GlyphClass: 2
Flags: W
HStem: -20 21G<135.412 197.682 697.801 762.349> 1100 20G<365.333 430.19 927.333 989.362>
DStem2: 50 48 181 -20 0.640466 0.767986<31.678 581.212 849.141 1395.86> 422 1120 265 1057 0.378934 -0.925424<0 453.855 706.516 1162.6>
LayerCount: 2
Fore
SplineSet
181 -20 m 1,0,-1
 171 -20 l 1,1,-1
 50 48 l 1,2,-1
 471 553 l 1,3,-1
 265 1057 l 1,4,-1
 412 1120 l 1,5,-1
 422 1120 l 1,6,-1
 594 700 l 1,7,-1
 944 1120 l 1,8,-1
 954 1120 l 1,9,-1
 1076 1051 l 1,10,-1
 656 548 l 1,11,-1
 862 43 l 1,12,-1
 716 -20 l 1,13,-1
 706 -20 l 1,14,-1
 533 402 l 1,15,-1
 181 -20 l 1,0,-1
EndSplineSet
Validated: 1
EndChar

StartChar: y
Encoding: 121 121 90
Width: 1210
GlyphClass: 2
Flags: W
HStem: -410 160<338 773.475> 0 160<414.631 832.437> 1100 20G<541.827 598 1191.83 1248>
VStem: 230 180<165.721 316.342>
DStem2: 93.336 -410 272.713 -410 0.207912 0.978148<683.448 1481.3> 742.861 -410 922.484 -410 0.207912 0.978148<167.334 440.531 581.586 1481.4>
LayerCount: 2
Fore
SplineSet
480 0 m 2,0,1
 230 0 230 0 230 195 c 0,2,3
 230 234 230 234 240 280 c 2,4,-1
 401 1039 l 1,5,-1
 588 1120 l 1,6,-1
 598 1120 l 1,7,-1
 413 250 l 2,8,9
 410 234 410 234 410 221 c 0,10,11
 410 160 410 160 484 160 c 2,12,-1
 774 160 l 2,13,14
 864 160 864 160 883 250 c 2,15,-1
 1051 1039 l 1,16,-1
 1238 1120 l 1,17,-1
 1248 1120 l 1,18,-1
 982 -130 l 2,19,20
 922 -410 922 -410 663 -410 c 2,21,-1
 233 -410 l 1,22,-1
 235 -400 l 1,23,-1
 338 -250 l 1,24,-1
 687 -250 l 2,25,26
 777 -250 777 -250 796 -160 c 2,27,-1
 834 21 l 1,28,29
 784 0 784 0 730 0 c 2,30,-1
 480 0 l 2,0,1
EndSplineSet
Validated: 1
EndChar

StartChar: z
Encoding: 122 122 91
Width: 850
GlyphClass: 2
Flags: W
HStem: 0 160<353 739> 940 160<375 732>
DStem2: 42 10 353 160 0.595847 0.803098<305.773 1158.02>
LayerCount: 2
Fore
SplineSet
40 0 m 1,0,-1
 42 10 l 1,1,-1
 732 940 l 1,2,-1
 270 940 l 1,3,-1
 272 950 l 1,4,-1
 375 1100 l 1,5,-1
 1044 1100 l 1,6,-1
 1042 1090 l 1,7,-1
 353 160 l 1,8,-1
 844 160 l 1,9,-1
 842 150 l 1,10,-1
 739 0 l 1,11,-1
 40 0 l 1,0,-1
EndSplineSet
Validated: 1
EndChar

StartChar: braceleft
Encoding: 123 123 92
Width: 830
GlyphClass: 2
Flags: W
HStem: -240 180<504.27 729> 665 180<310 415> 1570 180<827 1114>
VStem: 285 201<-40.4268 146.279>
DStem2: 222.605 -240 422.982 -240 0.207912 0.978148<324.366 925.225 1109.4 1872.16>
CounterMasks: 1 e0
LayerCount: 2
Fore
SplineSet
729 -240 m 1,0,-1
 593 -240 l 2,1,2
 285 -240 285 -240 285 3 c 0,3,4
 285 52 285 52 297 110 c 2,5,-1
 415 665 l 1,6,-1
 191 665 l 1,7,-1
 193 675 l 1,8,-1
 310 845 l 1,9,-1
 454 845 l 1,10,-1
 572 1400 l 2,11,12
 646 1750 646 1750 976 1750 c 2,13,-1
 1152 1750 l 1,14,-1
 1114 1570 l 1,15,-1
 948 1570 l 2,16,17
 808 1570 808 1570 778 1430 c 2,18,-1
 491 80 l 2,19,20
 486 55 486 55 486 35 c 0,21,22
 486 -60 486 -60 601 -60 c 2,23,-1
 767 -60 l 1,24,-1
 729 -240 l 1,0,-1
EndSplineSet
Validated: 1
EndChar

StartChar: bar
Encoding: 124 124 93
Width: 650
GlyphClass: 2
Flags: W
VStem: 207 556
DStem2: 207 -200 357.971 -200 0.207912 0.978148<98.8632 1885.21>
LayerCount: 2
Fore
SplineSet
207 -200 m 1,0,-1
 599 1644 l 1,1,-1
 753 1710 l 1,2,-1
 763 1710 l 1,3,-1
 372 -134 l 1,4,-1
 217 -200 l 1,5,-1
 207 -200 l 1,0,-1
EndSplineSet
Validated: 1
EndChar

StartChar: braceright
Encoding: 125 125 94
Width: 830
GlyphClass: 2
Flags: W
HStem: -240 180<37 324> 665 180<736 841> 1570 180<422 646.73>
VStem: 665 201<1256.91 1553.53>
DStem2: 304.982 -240 504.605 -240 0.207912 0.978148<203.973 966.729 1150.9 1751.76>
CounterMasks: 1 e0
LayerCount: 2
Fore
SplineSet
-1 -240 m 1,0,-1
 37 -60 l 1,1,-1
 203 -60 l 2,2,3
 343 -60 343 -60 373 80 c 2,4,-1
 660 1430 l 2,5,6
 665 1455 665 1455 665 1475 c 0,7,8
 665 1570 665 1570 550 1570 c 2,9,-1
 384 1570 l 1,10,-1
 422 1750 l 1,11,-1
 558 1750 l 2,12,13
 866 1750 866 1750 866 1507 c 0,14,15
 866 1458 866 1458 854 1400 c 2,16,-1
 736 845 l 1,17,-1
 960 845 l 1,18,-1
 957 835 l 1,19,-1
 841 665 l 1,20,-1
 697 665 l 1,21,-1
 579 110 l 2,22,23
 505 -240 505 -240 175 -240 c 2,24,-1
 -1 -240 l 1,0,-1
EndSplineSet
Validated: 1
EndChar

StartChar: asciitilde
Encoding: 126 126 95
Width: 1138
GlyphClass: 2
Flags: W
HStem: 576 147<821.122 958.233> 790 147<501.267 637.917>
LayerCount: 2
Fore
SplineSet
1187 937 m 1,0,1
 1110 576 1110 576 864 576 c 0,2,3
 737 576 737 576 666 703 c 0,4,5
 617 790 617 790 573 790 c 0,6,7
 497 790 497 790 467 656 c 1,8,-1
 282 576 l 1,9,-1
 272 576 l 1,10,11
 349 937 349 937 595 937 c 0,12,13
 722 937 722 937 793 810 c 0,14,15
 842 723 842 723 887 723 c 0,16,17
 963 723 963 723 993 857 c 1,18,-1
 1177 937 l 1,19,-1
 1187 937 l 1,0,1
EndSplineSet
Validated: 1
EndChar

StartChar: exclamdown
Encoding: 161 161 97
Width: 600
GlyphClass: 2
Flags: W
HStem: -430 21G<109 165.444> 875 245<436.711 587.42>
VStem: 389 246<922.592 1071.76>
DStem2: 109 -430 308.87 -430 0.207912 0.978148<133.566 1063.22>
LayerCount: 2
Fore
SplineSet
538 1120 m 0,0,1
 590 1120 590 1120 616 1084 c 0,2,3
 635 1059 635 1059 635 1025 c 0,4,5
 635 1011 635 1011 632 997 c 0,6,7
 621 947 621 947 578.5 911 c 128,-1,8
 536 875 536 875 486 875 c 128,-1,9
 436 875 436 875 408 911 c 0,10,11
 389 936 389 936 389 970 c 0,12,13
 389 983 389 983 392 997 c 0,14,15
 403 1047 403 1047 445.5 1083.5 c 128,-1,16
 488 1120 488 1120 538 1120 c 0,0,1
119 -430 m 1,17,-1
 109 -430 l 1,18,-1
 330 610 l 1,19,-1
 539 700 l 1,20,-1
 549 700 l 1,21,-1
 328 -340 l 1,22,-1
 119 -430 l 1,17,-1
EndSplineSet
Validated: 1
EndChar

StartChar: cent
Encoding: 162 162 98
Width: 1070
GlyphClass: 2
Flags: W
HStem: 0 160<394.631 525 659 821.965> 940 160<542.752 724 858 966.492>
VStem: 210 180<165.721 315.661> 974 169<811 934.921>
DStem2: 134.977 -120 314.354 -120 0.207912 0.978148<387.029 1117.04> 499 -120 599.073 -120 0.207912 0.978148<63.7446 122.783 307.147 1083.62 1267.98 1327.02>
LayerCount: 2
Fore
SplineSet
710 0 m 2,0,-1
 625 -0 l 1,1,-1
 608 -78 l 1,2,-1
 509 -120 l 1,3,-1
 499 -120 l 1,4,-1
 525 -0 l 1,5,-1
 460 0 l 2,6,7
 210 0 210 0 210 195 c 0,8,9
 210 233 210 233 220 280 c 2,10,-1
 334 820 l 2,11,12
 393 1100 393 1100 654 1100 c 2,13,-1
 758 1100 l 1,14,-1
 775 1178 l 1,15,-1
 874 1220 l 1,16,-1
 884 1220 l 1,17,-1
 858 1100 l 1,18,-1
 904 1100 l 2,19,20
 1143 1100 1143 1100 1143 899 c 0,21,22
 1143 859 1143 859 1133 811 c 1,23,-1
 956 734 l 1,24,-1
 946 734 l 1,25,-1
 971 850 l 2,26,27
 974 864 974 864 974 879 c 0,28,29
 974 940 974 940 900 940 c 2,30,-1
 824 940 l 1,31,-1
 659 160 l 1,32,-1
 734 160 l 2,33,34
 824 160 824 160 843 250 c 2,35,-1
 855 307 l 1,36,-1
 1042 388 l 1,37,-1
 1052 388 l 1,38,-1
 1030 280 l 2,39,40
 973 0 973 0 710 0 c 2,0,-1
559 160 m 1,41,-1
 724 940 l 1,42,-1
 630 940 l 2,43,44
 540 940 540 940 521 850 c 2,45,-1
 393 250 l 2,46,47
 390 236 390 236 390 221 c 0,48,49
 390 160 390 160 464 160 c 2,50,-1
 559 160 l 1,41,-1
EndSplineSet
Validated: 1
EndChar

StartChar: sterling
Encoding: 163 163 99
Width: 1335
GlyphClass: 2
Flags: W
HStem: 0 180<268 338 538 1105> 600 180<397 428 666 963> 1330 180<802.375 1167.32>
VStem: 1181 190<1148 1314.08>
DStem2: 299.74 0 499.74 0 0.207912 0.978148<225.604 613.555 839.105 1381.5>
LayerCount: 2
Fore
SplineSet
150 0 m 1,0,-1
 152 10 l 1,1,-1
 268 180 l 1,2,-1
 338 180 l 1,3,-1
 428 600 l 1,4,-1
 279 600 l 1,5,-1
 281 610 l 1,6,-1
 397 780 l 1,7,-1
 466 780 l 1,8,-1
 547 1160 l 2,9,10
 622 1510 622 1510 951 1510 c 2,11,-1
 1074 1510 l 2,12,13
 1371 1510 1371 1510 1371 1263 c 0,14,15
 1371 1211 1371 1211 1358 1148 c 1,16,-1
 1159 1062 l 1,17,-1
 1149 1062 l 9,18,-1
 1176 1190 l 2,19,20
 1181 1215 1181 1215 1181 1235 c 0,21,22
 1181 1330 1181 1330 1066 1330 c 2,23,-1
 923 1330 l 2,24,25
 783 1330 783 1330 753 1190 c 2,26,-1
 666 780 l 1,27,-1
 1081 780 l 1,28,-1
 1079 770 l 1,29,-1
 963 600 l 1,30,-1
 628 600 l 1,31,-1
 538 180 l 1,32,-1
 1223 180 l 1,33,-1
 1221 170 l 1,34,-1
 1105 0 l 1,35,-1
 150 0 l 1,0,-1
EndSplineSet
Validated: 1
EndChar

StartChar: currency
Encoding: 164 164 100
Width: 1395
GlyphClass: 2
Flags: W
HStem: 240 180<518.121 1073.04> 1089 180<641.897 1195.5>
VStem: 309 197<433.881 743.281> 1209 199<765.719 1074.95>
DStem2: 242.605 240 442.982 240 0.207912 0.978148<324.366 889.993> 1052.98 240 1252.61 240 0.207912 0.978148<207.873 769.348>
LayerCount: 2
Fore
SplineSet
621 420 m 2,0,-1
 951 420 l 2,1,2
 1091 420 1091 420 1121 560 c 2,3,-1
 1204 949 l 2,4,5
 1209 974 1209 974 1209 994 c 0,6,7
 1209 1089 1209 1089 1093 1089 c 2,8,-1
 763 1089 l 2,9,10
 623 1089 623 1089 594 949 c 2,11,-1
 511 560 l 2,12,13
 506 535 506 535 506 515 c 0,14,15
 506 420 506 420 621 420 c 2,0,-1
1255 407 m 1,16,-1
 1315 330 l 1,17,-1
 1307 323 l 1,18,-1
 1114 259 l 1,19,-1
 1100 276 l 1,20,21
 1016 240 1016 240 903 240 c 2,22,-1
 593 240 l 2,23,24
 514 240 514 240 419 293 c 1,25,-1
 394 275 l 1,26,-1
 229 339 l 1,27,-1
 224 346 l 1,28,-1
 327 429 l 1,29,30
 309 472 309 472 309 522 c 0,31,32
 309 555 309 555 317 590 c 2,33,-1
 387 919 l 2,34,35
 410 1029 410 1029 462 1106 c 1,36,-1
 402 1184 l 1,37,-1
 410 1191 l 1,38,-1
 602 1255 l 1,39,-1
 618 1234 l 1,40,41
 701 1269 701 1269 812 1269 c 2,42,-1
 1122 1269 l 2,43,44
 1206 1269 1206 1269 1290 1226 c 1,45,-1
 1326 1255 l 1,46,-1
 1491 1191 l 1,47,-1
 1497 1184 l 1,48,-1
 1392 1098 l 1,49,50
 1408 1062 1408 1062 1408 1012 c 0,51,52
 1408 970 1408 970 1397 919 c 2,53,-1
 1327 590 l 2,54,55
 1303 479 1303 479 1255 407 c 1,16,-1
EndSplineSet
Validated: 1
EndChar

StartChar: yen
Encoding: 165 165 101
Width: 1310
GlyphClass: 2
Flags: W
HStem: -20 21G<551 607.444> 114 120<392 579 805 992> 314 120<434 622 847 1035> 450 180<531.891 651 851 1065> 1510 20G<628.556 685 1418.56 1475>
VStem: 318 201<645.13 835.635>
DStem2: 155.704 -20 356.08 -20 0.207912 0.978148<804.866 1492.61> 946.08 -20 1145.7 -20 0.207912 0.978148<684.473 1492.53>
LayerCount: 2
Fore
SplineSet
561 -20 m 1,0,-1
 551 -20 l 1,1,-1
 579 114 l 1,2,-1
 314 114 l 1,3,-1
 316 124 l 1,4,-1
 392 234 l 1,5,-1
 605 234 l 1,6,-1
 622 314 l 1,7,-1
 357 314 l 1,8,-1
 359 324 l 1,9,-1
 434 434 l 1,10,-1
 647 434 l 1,11,-1
 651 450 l 1,12,-1
 642 450 l 2,13,14
 318 450 318 450 318 696 c 0,15,16
 318 743 318 743 330 800 c 2,17,-1
 466 1440 l 1,18,-1
 675 1530 l 1,19,-1
 685 1530 l 1,20,-1
 524 770 l 2,21,22
 519 745 519 745 519 725 c 0,23,24
 519 630 519 630 634 630 c 2,25,-1
 944 630 l 2,26,27
 1084 630 1084 630 1114 770 c 2,28,-1
 1256 1440 l 1,29,-1
 1465 1530 l 1,30,-1
 1475 1530 l 1,31,-1
 1320 800 l 2,32,33
 1246 450 1246 450 916 450 c 2,34,-1
 851 450 l 1,35,-1
 847 434 l 1,36,-1
 1112 434 l 1,37,-1
 1110 424 l 1,38,-1
 1035 314 l 1,39,-1
 822 314 l 1,40,-1
 805 234 l 1,41,-1
 1070 234 l 1,42,-1
 1068 224 l 1,43,-1
 992 114 l 1,44,-1
 779 114 l 1,45,-1
 770 70 l 1,46,-1
 561 -20 l 1,0,-1
EndSplineSet
Validated: 1
EndChar

StartChar: brokenbar
Encoding: 166 166 102
Width: 650
GlyphClass: 2
Flags: W
VStem: 207 556
DStem2: 207 -200 357.971 -200 0.207912 0.978148<98.8632 804.731 1171.1 1885.21>
LayerCount: 2
Fore
SplineSet
207 -200 m 1,0,-1
 375 587 l 1,1,-1
 529 653 l 1,2,-1
 539 653 l 1,3,-1
 372 -134 l 1,4,-1
 217 -200 l 1,5,-1
 207 -200 l 1,0,-1
753 1710 m 1,6,-1
 763 1710 l 1,7,-1
 594 915 l 1,8,-1
 440 849 l 1,9,-1
 430 849 l 1,10,-1
 599 1644 l 1,11,-1
 753 1710 l 1,6,-1
EndSplineSet
Validated: 1
EndChar

StartChar: section
Encoding: 167 167 103
Width: 1090
GlyphClass: 2
Flags: W
HStem: 0 150<447.007 734.402> 418 160<473.37 770.547> 932 160<640.453 937.63> 1360 150<676.598 963.993>
VStem: 277 164<155.344 249> 288 181<583.721 730.123> 459 177<1096.52 1321.35> 775 177<188.654 413.476> 942 181<779.877 926.279> 970 164<1253.89 1355.71>
DStem2: 149.636 0 330.012 0 0.207912 0.978148<691.834 943.82> 759.713 0 940.336 0 0.207912 0.978148<637.482 889.468>
LayerCount: 2
Fore
SplineSet
484 0 m 2,0,1
 277 0 277 0 277 171 c 0,2,3
 277 206 277 206 286 249 c 1,4,-1
 452 321 l 1,5,-1
 462 321 l 1,6,-1
 444 235 l 2,7,8
 441 221 441 221 441 209 c 0,9,10
 441 150 441 150 516 150 c 2,11,-1
 644 150 l 2,12,13
 734 150 734 150 753 240 c 2,14,-1
 772 328 l 2,15,16
 775 344 775 344 775 357 c 0,17,18
 775 418 775 418 701 418 c 2,19,-1
 539 418 l 2,20,21
 288 418 288 418 288 613 c 0,22,23
 288 652 288 652 298 698 c 2,24,-1
 324 820 l 2,25,26
 344 915 344 915 391 980 c 1,27,-1
 523 886 l 1,28,29
 516 873 516 873 511 850 c 2,30,-1
 472 668 l 2,31,32
 469 652 469 652 469 639 c 0,33,34
 469 578 469 578 543 578 c 2,35,-1
 715 578 l 2,36,37
 952 578 952 578 952 407 c 0,38,39
 952 376 952 376 944 338 c 2,40,-1
 923 240 l 2,41,42
 872 0 872 0 652 0 c 2,43,-1
 484 0 l 2,0,1
927 1510 m 2,44,45
 1134 1510 1134 1510 1134 1339 c 0,46,47
 1134 1304 1134 1304 1125 1261 c 1,48,-1
 959 1189 l 1,49,-1
 949 1189 l 1,50,-1
 967 1275 l 2,51,52
 970 1289 970 1289 970 1301 c 0,53,54
 970 1360 970 1360 895 1360 c 2,55,-1
 767 1360 l 2,56,57
 677 1360 677 1360 658 1270 c 2,58,-1
 639 1182 l 2,59,60
 636 1166 636 1166 636 1153 c 0,61,62
 636 1092 636 1092 710 1092 c 2,63,-1
 872 1092 l 2,64,65
 1123 1092 1123 1092 1123 897 c 0,66,67
 1123 858 1123 858 1113 812 c 2,68,-1
 1087 690 l 2,69,70
 1067 595 1067 595 1020 530 c 1,71,-1
 888 624 l 1,72,73
 895 637 895 637 900 660 c 2,74,-1
 939 842 l 2,75,76
 942 858 942 858 942 871 c 0,77,78
 942 932 942 932 868 932 c 2,79,-1
 696 932 l 2,80,81
 459 932 459 932 459 1103 c 0,82,83
 459 1134 459 1134 467 1172 c 2,84,-1
 488 1270 l 2,85,86
 539 1510 539 1510 759 1510 c 2,87,-1
 927 1510 l 2,44,45
EndSplineSet
Validated: 1
EndChar

StartChar: dieresis
Encoding: 168 168 104
Width: 600
GlyphClass: 2
Flags: W
HStem: 1230 227<374.232 520.636 650.141 796.574>
VStem: 333 229<1271.58 1415.8> 610 229<1272.58 1416.8>
LayerCount: 2
Fore
SplineSet
749 1458 m 128,-1,1
 795 1458 795 1458 821 1425 c 0,2,3
 839 1402 839 1402 839 1369 c 0,4,5
 839 1357 839 1357 837 1345 c 0,6,7
 827 1299 827 1299 786.5 1265 c 128,-1,8
 746 1231 746 1231 700 1231 c 0,9,10
 655 1231 655 1231 629 1265 c 0,11,12
 610 1289 610 1289 610 1320 c 0,13,14
 611 1333 611 1333 613 1345 c 0,15,16
 623 1391 623 1391 663 1424.5 c 128,-1,0
 703 1458 703 1458 749 1458 c 128,-1,1
472 1457 m 128,-1,18
 518 1457 518 1457 544 1424 c 0,19,20
 562 1401 562 1401 562 1368 c 0,21,22
 562 1356 562 1356 560 1344 c 0,23,24
 550 1298 550 1298 509.5 1264 c 128,-1,25
 469 1230 469 1230 423 1230 c 0,26,27
 378 1230 378 1230 352 1264 c 0,28,29
 333 1288 333 1288 333 1319 c 0,30,31
 334 1332 334 1332 336 1344 c 0,32,33
 346 1390 346 1390 386 1423.5 c 128,-1,17
 426 1457 426 1457 472 1457 c 128,-1,18
EndSplineSet
Validated: 1
EndChar

StartChar: copyright
Encoding: 169 169 105
Width: 1401
GlyphClass: 2
Flags: W
HStem: 386 52<634.584 955.646> 556 131<742.475 993.167> 1220 131<838.605 1087.32> 1478 52<854.632 1173.39>
VStem: 332 59<686.575 1015.56> 598 143<621.5 924.07> 1091 134<1136 1220> 1416 59<900.437 1234>
DStem2: 527.629 386 668.393 386 0.207912 0.978148<372.256 887.203>
LayerCount: 2
Fore
SplineSet
784 386 m 0,0,1
 558 386 558 386 428 549 c 0,2,3
 332 669 332 669 332 841 c 0,4,5
 332 890 332 890 340 943 c 0,6,7
 375 1183 375 1183 585 1362 c 0,8,9
 782 1530 782 1530 1023 1530 c 0,10,11
 1249 1530 1249 1530 1379 1367 c 0,12,13
 1475 1247 1475 1247 1475 1075 c 0,14,15
 1475 1026 1475 1026 1467 973 c 0,16,17
 1432 733 1432 733 1222 554 c 0,18,19
 1024 386 1024 386 784 386 c 0,0,1
1013 1478 m 0,20,21
 813 1478 813 1478 633 1330 c 0,22,23
 451 1181 451 1181 403 953 c 0,24,25
 391 897 391 897 391 843 c 0,26,27
 391 704 391 704 472 587 c 0,28,29
 575 438 575 438 794 438 c 0,30,31
 994 438 994 438 1174 586 c 0,32,33
 1356 735 1356 735 1404 963 c 0,34,35
 1416 1022 1416 1022 1416 1077 c 0,36,37
 1416 1216 1416 1216 1338 1329 c 0,38,39
 1235 1478 1235 1478 1013 1478 c 0,20,21
917 1351 m 2,40,-1
 1063 1351 l 2,41,42
 1225 1351 1225 1351 1225 1219 c 0,43,44
 1225 1188 1225 1188 1216 1149 c 2,45,-1
 1213 1136 l 1,46,-1
 1081 1086 l 1,47,-1
 1071 1086 l 1,48,-1
 1089 1170 l 2,49,50
 1091 1179 1091 1179 1091 1186 c 0,51,52
 1091 1220 1091 1220 1049 1220 c 2,53,-1
 895 1220 l 2,54,55
 846 1220 846 1220 835 1170 c 2,56,-1
 743 737 l 2,57,58
 741 728 741 728 741 721 c 0,59,60
 741 687 741 687 782 687 c 2,61,-1
 936 687 l 2,62,63
 987 687 987 687 997 737 c 2,64,-1
 1006 781 l 1,65,-1
 1147 833 l 1,66,-1
 1157 833 l 1,67,-1
 1140 751 l 2,68,69
 1100 556 1100 556 914 556 c 2,70,-1
 768 556 l 2,71,72
 598 556 598 556 598 690 c 0,73,74
 598 717 598 717 605 750 c 2,75,-1
 692 1157 l 2,76,77
 733 1351 733 1351 917 1351 c 2,40,-1
EndSplineSet
Validated: 1
EndChar

StartChar: ordfeminine
Encoding: 170 170 106
Width: 554
GlyphClass: 2
Flags: W
HStem: 790 120<295 620> 969 121<439.264 578 582 588> 1259 121<462.523 638.528> 1439 121<519 674.736>
VStem: 306 132<1025 1255.05> 676 132<1379.58 1504.5>
DStem2: 543.625 790 672.34 790 0.207912 0.978148<297.372 462.808 593.714 645.619>
LayerCount: 2
Fore
SplineSet
519 1560 m 1,0,-1
 666 1560 l 2,1,2
 808 1560 808 1560 808 1449 c 0,3,4
 808 1427 808 1427 802 1400 c 2,5,-1
 718 1007 l 1,6,-1
 588 959 l 1,7,-1
 578 959 l 1,8,-1
 582 978 l 1,9,10
 565 969 565 969 550 969 c 2,11,-1
 448 969 l 2,12,13
 306 969 306 969 306 1081 c 0,14,15
 306 1103 306 1103 312 1129 c 2,16,-1
 331 1220 l 2,17,18
 364 1380 364 1380 515 1380 c 2,19,-1
 627 1380 l 2,20,21
 653 1380 653 1380 667 1377 c 1,22,-1
 675 1414 l 2,23,24
 676 1419 676 1419 676 1422 c 0,25,26
 676 1439 676 1439 655 1439 c 2,27,-1
 450 1439 l 1,28,-1
 452 1449 l 1,29,-1
 519 1560 l 1,0,-1
620 1259 m 2,30,-1
 495 1259 l 2,31,32
 470 1259 470 1259 464 1234 c 2,33,-1
 439 1115 l 2,34,35
 438 1110 438 1110 438 1107 c 0,36,37
 438 1090 438 1090 459 1090 c 2,38,-1
 584 1090 l 2,39,40
 608 1090 608 1090 613 1115 c 2,41,-1
 638 1234 l 2,42,43
 639 1239 639 1239 639 1243 c 0,44,45
 639 1259 639 1259 620 1259 c 2,30,-1
218 790 m 1,46,-1
 220 800 l 1,47,-1
 295 910 l 1,48,-1
 697 910 l 1,49,-1
 695 900 l 1,50,-1
 620 790 l 1,51,-1
 218 790 l 1,46,-1
EndSplineSet
Validated: 1
EndChar

StartChar: guillemotleft
Encoding: 171 171 107
Width: 1100
GlyphClass: 2
Flags: W
DStem2: 486 743 310 755 0.353442 -0.935457<0 395.019> 310 755 486 743 0.625126 0.780524<100.656 566.286> 839 744 662 755 0.353442 -0.935457<0 395.601> 662 755 839 744 0.625126 0.780524<102.061 566.286>
LayerCount: 2
Fore
SplineSet
662 755 m 1,0,-1
 1016 1197 l 1,1,-1
 1026 1197 l 1,2,-1
 1151 1131 l 1,3,-1
 839 744 l 1,4,-1
 979 374 l 1,5,-1
 839 313 l 1,6,-1
 829 313 l 1,7,-1
 662 755 l 1,0,-1
310 755 m 1,8,-1
 664 1197 l 1,9,-1
 674 1197 l 1,10,-1
 799 1131 l 1,11,-1
 486 743 l 1,12,-1
 627 374 l 1,13,-1
 487 313 l 1,14,-1
 477 313 l 1,15,-1
 310 755 l 1,8,-1
EndSplineSet
Validated: 1
EndChar

StartChar: logicalnot
Encoding: 172 172 108
Width: 1200
GlyphClass: 2
Flags: W
HStem: 680 150<392 1009>
VStem: 827 120<418 538>
DStem2: 827 418 947 418 0.567398 0.823444<68.0877 319.009>
LayerCount: 2
Fore
SplineSet
392 830 m 1,0,-1
 1226 830 l 1,1,-1
 1224 820 l 1,2,-1
 947 418 l 1,3,-1
 827 418 l 1,4,-1
 1009 680 l 1,5,-1
 295 680 l 1,6,-1
 297 690 l 1,7,-1
 392 830 l 1,0,-1
EndSplineSet
Validated: 1
EndChar

StartChar: uni00AD
Encoding: 173 173 109
Width: 1200
GlyphClass: 2
Flags: W
HStem: 680 150<392 1129>
LayerCount: 2
Fore
SplineSet
392 830 m 5,0,-1
 1226 830 l 5,1,-1
 1224 820 l 5,2,-1
 1129 680 l 5,3,-1
 295 680 l 5,4,-1
 297 690 l 5,5,-1
 392 830 l 5,0,-1
EndSplineSet
Validated: 1
EndChar

StartChar: registered
Encoding: 174 174 110
Width: 1401
GlyphClass: 2
Flags: W
HStem: 386 52<634.584 955.646> 807 131<803 870> 1223 131<864 1077.37> 1478 52<854.632 1173.39>
VStem: 332 59<686.575 1015.56> 1079 142<982.441 1288.5> 1416 59<900.437 1234>
DStem2: 545.778 386 685.938 386 0.207912 0.978148<245.877 459.666 593.417 884.872> 1023 817 870 807 0.489624 -0.871934<0 231.995> 909.718 386 1049.91 386 0.207912 0.978148<558.44 820.434>
LayerCount: 2
Fore
SplineSet
784 386 m 0,0,1
 558 386 558 386 428 549 c 0,2,3
 332 669 332 669 332 841 c 0,4,5
 332 890 332 890 340 943 c 0,6,7
 375 1183 375 1183 585 1362 c 0,8,9
 782 1530 782 1530 1023 1530 c 0,10,11
 1249 1530 1249 1530 1379 1367 c 0,12,13
 1475 1247 1475 1247 1475 1075 c 0,14,15
 1475 1026 1475 1026 1467 973 c 0,16,17
 1432 733 1432 733 1222 554 c 0,18,19
 1024 386 1024 386 784 386 c 0,0,1
1013 1478 m 0,20,21
 813 1478 813 1478 633 1330 c 0,22,23
 451 1181 451 1181 403 953 c 0,24,25
 391 897 391 897 391 843 c 0,26,27
 391 704 391 704 472 587 c 0,28,29
 575 438 575 438 794 438 c 0,30,31
 994 438 994 438 1174 586 c 0,32,33
 1356 735 1356 735 1404 963 c 0,34,35
 1416 1022 1416 1022 1416 1077 c 0,36,37
 1416 1216 1416 1216 1338 1329 c 0,38,39
 1235 1478 1235 1478 1013 1478 c 0,20,21
1038 1223 m 2,40,-1
 864 1223 l 1,41,-1
 803 938 l 1,42,-1
 977 938 l 2,43,44
 1027 938 1027 938 1038 988 c 2,45,-1
 1077 1173 l 2,46,47
 1079 1182 1079 1182 1079 1189 c 0,48,49
 1079 1223 1079 1223 1038 1223 c 2,40,-1
1026 547 m 1,50,-1
 1016 547 l 1,51,-1
 870 807 l 1,52,-1
 776 807 l 1,53,-1
 731 598 l 1,54,-1
 590 547 l 1,55,-1
 580 547 l 1,56,-1
 742 1310 l 1,57,-1
 841 1354 l 1,58,-1
 1052 1354 l 2,59,60
 1221 1354 1221 1354 1221 1219 c 0,61,62
 1221 1191 1221 1191 1214 1158 c 2,63,-1
 1181 1003 l 2,64,65
 1146 838 1146 838 1023 817 c 1,66,-1
 1149 595 l 1,67,-1
 1026 547 l 1,50,-1
EndSplineSet
Validated: 1
EndChar

StartChar: macron
Encoding: 175 175 111
Width: 600
GlyphClass: 2
Flags: W
HStem: 1299 130<411 769>
VStem: 326 528
LayerCount: 2
Fore
SplineSet
411 1429 m 1,0,-1
 854 1429 l 1,1,-1
 852 1419 l 1,2,-1
 769 1299 l 1,3,-1
 326 1299 l 1,4,-1
 328 1309 l 1,5,-1
 411 1429 l 1,0,-1
EndSplineSet
Validated: 1
EndChar

StartChar: degree
Encoding: 176 176 112
Width: 650
GlyphClass: 2
Flags: W
HStem: 1000 131<442.368 709.153> 1429 131<485.433 752.453>
VStem: 297 142<1131.39 1372.41> 755 142<1187.59 1428.61>
DStem2: 262.764 1000 402.527 1000 0.207912 0.978148<198.25 472.904> 672.441 1000 812.204 1000 0.207912 0.978148<128.681 403.319>
LayerCount: 2
Fore
SplineSet
714 1429 m 2,0,-1
 544 1429 l 2,1,2
 494 1429 494 1429 483 1379 c 2,3,-1
 441 1181 l 2,4,5
 439 1172 439 1172 439 1165 c 0,6,7
 439 1131 439 1131 480 1131 c 2,8,-1
 650 1131 l 2,9,10
 700 1131 700 1131 711 1181 c 2,11,-1
 753 1379 l 2,12,13
 755 1388 755 1388 755 1395 c 0,14,15
 755 1429 755 1429 714 1429 c 2,0,-1
632 1000 m 2,16,-1
 474 1000 l 2,17,18
 297 1000 297 1000 297 1136 c 0,19,20
 297 1162 297 1162 304 1194 c 2,21,-1
 340 1366 l 2,22,23
 381 1560 381 1560 563 1560 c 2,24,-1
 721 1560 l 2,25,26
 897 1560 897 1560 897 1424 c 0,27,28
 897 1398 897 1398 890 1366 c 2,29,-1
 854 1194 l 2,30,31
 813 1000 813 1000 632 1000 c 2,16,-1
EndSplineSet
Validated: 1
EndChar

StartChar: plusminus
Encoding: 177 177 113
Width: 1200
GlyphClass: 2
Flags: W
HStem: 275 150<306 1042> 858 150<430 707 889 1166>
DStem2: 583.788 275 733.76 275 0.207912 0.978148<311.302 595.877 780.439 1065.22>
LayerCount: 2
Fore
SplineSet
306 425 m 1,0,-1
 1140 425 l 1,1,-1
 1138 415 l 1,2,-1
 1042 275 l 1,3,-1
 208 275 l 1,4,-1
 211 285 l 1,5,-1
 306 425 l 1,0,-1
805 1317 m 1,6,-1
 959 1383 l 1,7,-1
 969 1383 l 1,8,-1
 889 1008 l 1,9,-1
 1264 1008 l 1,10,-1
 1262 998 l 1,11,-1
 1166 858 l 1,12,-1
 857 858 l 1,13,-1
 792 549 l 1,14,-1
 638 483 l 1,15,-1
 628 483 l 1,16,-1
 707 858 l 1,17,-1
 332 858 l 1,18,-1
 334 868 l 1,19,-1
 430 1008 l 1,20,-1
 739 1008 l 1,21,-1
 805 1317 l 1,6,-1
EndSplineSet
Validated: 1
EndChar

StartChar: uni00B2
Encoding: 178 178 114
Width: 651
VWidth: 1406
GlyphClass: 2
Flags: W
HStem: 765 131<480 717> 1429 131<500.118 741.675>
VStem: 744 143<1326.28 1429>
DStem2: 283 888 480 896 0.800662 0.599116<162.523 569.76> 611.432 765 763.155 765 0.207912 0.978148<414.647 643.581>
LayerCount: 2
Fore
SplineSet
596 1560 m 2,0,-1
 716 1560 l 2,1,2
 887 1560 887 1560 887 1428 c 0,3,4
 887 1402 887 1402 880 1370 c 2,5,-1
 867 1309 l 2,6,7
 830 1135 830 1135 682 1034 c 2,8,-1
 480 896 l 1,9,-1
 791 896 l 1,10,-1
 789 886 l 1,11,-1
 717 765 l 1,12,-1
 213 765 l 1,13,-1
 215 775 l 1,14,-1
 283 888 l 1,15,-1
 573 1105 l 2,16,17
 704 1203 704 1203 726 1304 c 2,18,-1
 742 1379 l 2,19,20
 744 1388 744 1388 744 1395 c 0,21,22
 744 1429 744 1429 703 1429 c 2,23,-1
 558 1429 l 2,24,25
 508 1429 508 1429 497 1379 c 2,26,-1
 489 1341 l 1,27,-1
 347 1283 l 1,28,-1
 337 1283 l 1,29,-1
 354 1365 l 2,30,31
 394 1560 394 1560 596 1560 c 2,0,-1
EndSplineSet
Validated: 1
EndChar

StartChar: uni00B3
Encoding: 179 179 115
Width: 631
VWidth: 1396
GlyphClass: 2
Flags: W
HStem: 765 131<392.334 639.794> 1429 131<485 634>
VStem: 256 133<896 985> 677 142<1037.51 1149.75>
DStem2: 603.527 765 743.764 765 0.207912 0.978148<128.579 359.369>
LayerCount: 2
Fore
SplineSet
485 1560 m 1,0,-1
 895 1560 l 1,1,-1
 680 1274 l 1,2,3
 819 1267 819 1267 819 1146 c 0,4,5
 819 1118 819 1118 812 1085 c 2,6,-1
 785 959 l 2,7,8
 743 765 743 765 563 765 c 2,9,-1
 422 765 l 2,10,11
 256 765 256 765 256 898 c 0,12,13
 256 929 256 929 265 968 c 2,14,-1
 269 985 l 1,15,-1
 399 1030 l 1,16,-1
 409 1030 l 1,17,-1
 391 946 l 2,18,19
 389 937 389 937 389 930 c 0,20,21
 389 896 389 896 430 896 c 2,22,-1
 581 896 l 2,23,24
 631 896 631 896 642 946 c 2,25,-1
 675 1101 l 2,26,27
 677 1110 677 1110 677 1117 c 0,28,29
 677 1151 677 1151 636 1151 c 2,30,-1
 493 1151 l 1,31,-1
 468 1193 l 1,32,-1
 634 1429 l 1,33,-1
 410 1429 l 1,34,-1
 412 1440 l 1,35,-1
 485 1560 l 1,0,-1
EndSplineSet
Validated: 1
EndChar

StartChar: acute
Encoding: 180 180 116
Width: 372
GlyphClass: 2
Flags: W
HStem: 1160 367
VStem: 310 323
DStem2: 310 1224 433 1160 0.550881 0.834584<14.3449 363.055>
LayerCount: 2
Fore
SplineSet
520 1527 m 1,0,-1
 633 1463 l 1,1,-1
 433 1160 l 1,2,-1
 423 1160 l 1,3,-1
 310 1224 l 1,4,-1
 510 1527 l 1,5,-1
 520 1527 l 1,0,-1
EndSplineSet
Validated: 1
EndChar

StartChar: uni00B5
Encoding: 181 181 117
Width: 1190
GlyphClass: 2
Flags: W
HStem: -430 21G<89 145.173> 0 160<412.5 861.248> 1100 20G<541.827 598 1191.83 1248>
DStem2: 89 -430 268.783 -430 0.207912 0.978148<120.189 489.762 703.912 1501.77> 738.462 -430 919.085 -430 0.207912 0.978148<607.218 1501.88>
LayerCount: 2
Fore
SplineSet
750 0 m 2,0,-1
 480 0 l 2,1,2
 404 0 404 0 362 11 c 1,3,-1
 286 -349 l 1,4,-1
 99 -430 l 1,5,-1
 89 -430 l 1,6,-1
 401 1039 l 1,7,-1
 588 1120 l 1,8,-1
 598 1120 l 1,9,-1
 413 250 l 2,10,11
 410 234 410 234 410 221 c 0,12,13
 410 160 410 160 484 160 c 2,14,-1
 774 160 l 2,15,16
 864 160 864 160 883 250 c 2,17,-1
 1051 1039 l 1,18,-1
 1238 1120 l 1,19,-1
 1248 1120 l 1,20,-1
 1070 280 l 2,21,22
 1011 0 1011 0 750 0 c 2,0,-1
EndSplineSet
Validated: 1
EndChar

StartChar: paragraph
Encoding: 182 182 118
Width: 1180
GlyphClass: 2
Flags: W
HStem: -20 21G<776 833.143> 1490 20G<600.5 1126>
DStem2: 776 -20 846.048 -20 0.207912 0.978148<43.1894 587.8> 909.459 -20 975.87 -20 0.207912 0.978148<105.818 1185.91>
LayerCount: 2
Fore
SplineSet
786 -20 m 1,0,-1
 776 -20 l 1,1,-1
 898 555 l 1,2,3
 859 548 859 548 816 548 c 2,4,-1
 566 548 l 2,5,6
 316 548 316 548 316 743 c 0,7,8
 316 782 316 782 326 828 c 2,9,-1
 411 1230 l 2,10,11
 470 1510 470 1510 731 1510 c 2,12,-1
 1001 1510 l 2,13,14
 1251 1510 1251 1510 1251 1315 c 0,15,16
 1251 1276 1251 1276 1241 1230 c 2,17,-1
 995 70 l 1,18,-1
 922 39 l 1,19,-1
 1156 1140 l 1,20,-1
 1086 1110 l 1,21,-1
 852 8 l 1,22,-1
 786 -20 l 1,0,-1
EndSplineSet
Validated: 1
EndChar

StartChar: periodcentered
Encoding: 183 183 119
Width: 340
GlyphClass: 2
Flags: W
HStem: 632 245<254.711 405.42>
VStem: 207 246<679.592 828.764>
LayerCount: 2
Fore
SplineSet
356 877 m 0,0,1
 408 877 408 877 434 841 c 0,2,3
 453 816 453 816 453 782 c 0,4,5
 453 768 453 768 450 754 c 0,6,7
 439 704 439 704 396.5 668 c 128,-1,8
 354 632 354 632 304 632 c 128,-1,9
 254 632 254 632 226 668 c 0,10,11
 207 693 207 693 207 727 c 0,12,13
 207 740 207 740 210 754 c 0,14,15
 221 804 221 804 263.5 840.5 c 128,-1,16
 306 877 306 877 356 877 c 0,0,1
EndSplineSet
Validated: 1
EndChar

StartChar: cedilla
Encoding: 184 184 120
Width: 420
GlyphClass: 2
Flags: W
HStem: -410 410 -20 20G<156 254.5>
VStem: 188 143<-239.266 -78.4795>
LayerCount: 2
Fore
SplineSet
-37 -410 m 1,0,-1
 -35 -400 l 1,1,-1
 47 -280 l 1,2,3
 165 -264 165 -264 185 -173 c 0,4,5
 188 -158 188 -158 188 -145 c 0,6,7
 188 -95 188 -95 140 -76 c 1,8,-1
 156 0 l 1,9,-1
 259 0 l 1,10,-1
 250 -40 l 1,11,12
 331 -77 331 -77 331 -165 c 0,13,14
 331 -176 331 -176 330 -187 c 0,15,16
 304 -410 304 -410 -37 -410 c 1,0,-1
EndSplineSet
Validated: 1
EndChar

StartChar: uni00B9
Encoding: 185 185 121
Width: 412
VWidth: 1401
GlyphClass: 2
Flags: W
VStem: 328 318
DStem2: 328 736 468.16 736 0.207912 0.978148<81.2802 658.411>
LayerCount: 2
Fore
SplineSet
636 1570 m 1,0,-1
 646 1570 l 1,1,-1
 479 787 l 1,2,-1
 338 736 l 1,3,-1
 328 736 l 1,4,-1
 465 1380 l 1,5,-1
 331 1322 l 1,6,-1
 360 1460 l 1,7,-1
 636 1570 l 1,0,-1
EndSplineSet
Validated: 1
EndChar

StartChar: ordmasculine
Encoding: 186 186 122
Width: 554
GlyphClass: 2
Flags: W
HStem: 790 120<295 620> 969 121<417.264 612.172> 1439 121<479.828 674.736>
VStem: 284 132<1024.5 1311.15> 676 132<1217.85 1504.5>
DStem2: 217.943 790 347.919 790 0.207912 0.978148<351.373 697.223> 542.365 790 672.34 790 0.207912 0.978148<300.002 645.851>
LayerCount: 2
Fore
SplineSet
481 1414 m 2,0,-1
 417 1115 l 2,1,2
 416 1111 416 1111 416 1107 c 0,3,4
 416 1090 416 1090 436 1090 c 2,5,-1
 582 1090 l 2,6,7
 606 1090 606 1090 611 1115 c 2,8,-1
 675 1414 l 2,9,10
 676 1418 676 1418 676 1422 c 0,11,12
 676 1439 676 1439 656 1439 c 2,13,-1
 510 1439 l 2,14,15
 486 1439 486 1439 481 1414 c 2,0,-1
532 1560 m 2,16,-1
 666 1560 l 2,17,18
 808 1560 808 1560 808 1449 c 0,19,20
 808 1427 808 1427 802 1400 c 2,21,-1
 744 1129 l 2,22,23
 710 969 710 969 560 969 c 2,24,-1
 426 969 l 2,25,26
 284 969 284 969 284 1080 c 0,27,28
 284 1102 284 1102 290 1129 c 2,29,-1
 348 1400 l 2,30,31
 382 1560 382 1560 532 1560 c 2,16,-1
218 790 m 1,32,-1
 220 800 l 1,33,-1
 295 910 l 1,34,-1
 697 910 l 1,35,-1
 695 900 l 1,36,-1
 620 790 l 1,37,-1
 218 790 l 1,32,-1
EndSplineSet
Validated: 1
EndChar

StartChar: guillemotright
Encoding: 187 187 123
Width: 1100
GlyphClass: 2
Flags: W
DStem2: 270 379 405 313 0.625126 0.780524<32.8774 497.102> 592 1197 442 1136 0.353442 -0.935457<4.04659 399.647> 622 379 757 313 0.625126 0.780524<32.8774 498.508> 944 1197 794 1136 0.353442 -0.935457<4.04659 399.065>
LayerCount: 2
Fore
SplineSet
759 755 m 1,0,-1
 405 313 l 1,1,-1
 395 313 l 1,2,-1
 270 379 l 1,3,-1
 582 766 l 1,4,-1
 442 1136 l 1,5,-1
 582 1197 l 1,6,-1
 592 1197 l 1,7,-1
 759 755 l 1,0,-1
1111 755 m 1,8,-1
 757 313 l 1,9,-1
 747 313 l 1,10,-1
 622 379 l 1,11,-1
 935 767 l 1,12,-1
 794 1136 l 1,13,-1
 934 1197 l 1,14,-1
 944 1197 l 1,15,-1
 1111 755 l 1,8,-1
EndSplineSet
Validated: 1
EndChar

StartChar: onequarter
Encoding: 188 188 124
Width: 1572
VWidth: 1401
GlyphClass: 2
Flags: W
HStem: -20 21G<413.284 473.756 1202 1267.29> 180 131<1109 1244 1412 1413> 1510 20G<677 737 1332.26 1393.01>
DStem2: 267.81 -20 407.969 -20 0.207912 0.978148<813.276 1390.41> 327 47 460 -20 0.566694 0.823928<20.1671 1799.35> 860 190 1109 311 0.666606 0.74541<256.18 576.986> 1202 -20 1342.16 -20 0.207912 0.978148<81.2802 204.362 367.428 582.701>
LayerCount: 2
Fore
SplineSet
450 -20 m 1,0,-1
 327 47 l 1,1,-1
 1346 1530 l 1,2,-1
 1356 1530 l 1,3,-1
 1480 1463 l 1,4,-1
 460 -20 l 1,5,-1
 450 -20 l 1,0,-1
727 1530 m 1,6,-1
 737 1530 l 1,7,-1
 571 747 l 1,8,-1
 430 696 l 1,9,-1
 420 696 l 1,10,-1
 557 1340 l 1,11,-1
 422 1282 l 1,12,-1
 452 1420 l 1,13,-1
 727 1530 l 1,6,-1
1109 311 m 1,14,-1
 1272 311 l 1,15,-1
 1323 550 l 1,16,-1
 1109 311 l 1,14,-1
1212 -20 m 1,17,-1
 1202 -20 l 1,18,-1
 1244 180 l 1,19,-1
 858 180 l 1,20,-1
 860 190 l 1,21,-1
 1376 767 l 1,22,-1
 1509 815 l 1,23,-1
 1519 815 l 1,24,-1
 1412 311 l 1,25,-1
 1488 311 l 1,26,-1
 1486 301 l 1,27,-1
 1413 180 l 1,28,-1
 1384 180 l 1,29,-1
 1353 31 l 1,30,-1
 1212 -20 l 1,17,-1
EndSplineSet
Validated: 1
EndChar

StartChar: onehalf
Encoding: 189 189 125
Width: 1718
VWidth: 1401
GlyphClass: 2
Flags: W
HStem: -20 21G<413.284 473.756> 0 131<1284 1521> 664 131<1304.12 1545.68> 1510 20G<677 737 1332.26 1393.01>
VStem: 1548 143<561.275 664>
DStem2: 267.81 -20 407.969 -20 0.207912 0.978148<813.276 1390.41> 327 47 460 -20 0.566694 0.823928<20.1671 1799.35> 1087 123 1284 131 0.800662 0.599116<162.523 569.76> 1411.18 -20 1562.9 -20 0.207912 0.978148<435.094 664.028>
LayerCount: 2
Fore
SplineSet
450 -20 m 1,0,-1
 327 47 l 1,1,-1
 1346 1530 l 1,2,-1
 1356 1530 l 1,3,-1
 1480 1463 l 1,4,-1
 460 -20 l 1,5,-1
 450 -20 l 1,0,-1
1400 795 m 2,6,-1
 1520 795 l 2,7,8
 1691 795 1691 795 1691 663 c 0,9,10
 1691 637 1691 637 1684 605 c 2,11,-1
 1671 544 l 2,12,13
 1634 370 1634 370 1486 269 c 2,14,-1
 1284 131 l 1,15,-1
 1595 131 l 1,16,-1
 1593 121 l 1,17,-1
 1521 0 l 1,18,-1
 1017 0 l 1,19,-1
 1019 10 l 1,20,-1
 1087 123 l 1,21,-1
 1377 340 l 2,22,23
 1508 438 1508 438 1530 539 c 2,24,-1
 1546 614 l 2,25,26
 1548 623 1548 623 1548 630 c 0,27,28
 1548 664 1548 664 1507 664 c 2,29,-1
 1362 664 l 2,30,31
 1312 664 1312 664 1301 614 c 2,32,-1
 1293 576 l 1,33,-1
 1151 518 l 1,34,-1
 1141 518 l 1,35,-1
 1158 600 l 2,36,37
 1198 795 1198 795 1400 795 c 2,6,-1
727 1530 m 1,38,-1
 737 1530 l 1,39,-1
 571 747 l 1,40,-1
 430 696 l 1,41,-1
 420 696 l 1,42,-1
 557 1340 l 1,43,-1
 422 1282 l 1,44,-1
 452 1420 l 1,45,-1
 727 1530 l 1,38,-1
EndSplineSet
Validated: 1
EndChar

StartChar: threequarters
Encoding: 190 190 126
Width: 1796
VWidth: 1401
GlyphClass: 2
Flags: W
HStem: -20 21G<637.284 697.756 1426 1491.29> 180 131<1333 1468 1636 1637> 735 131<485.334 732.794> 1399 131<578 727>
VStem: 349 133<866 955> 770 142<1007.51 1119.75>
DStem2: 536.047 -20 676.284 -20 0.207912 0.978148<900.447 1131.24> 551 47 684 -20 0.566694 0.823928<20.1671 1799.35> 1084 190 1333 311 0.666606 0.74541<256.18 576.986> 1426 -20 1566.16 -20 0.207912 0.978148<81.2802 204.362 367.428 582.701>
LayerCount: 2
Fore
SplineSet
674 -20 m 1,0,-1
 551 47 l 1,1,-1
 1570 1530 l 1,2,-1
 1580 1530 l 1,3,-1
 1704 1463 l 1,4,-1
 684 -20 l 1,5,-1
 674 -20 l 1,0,-1
578 1530 m 1,6,-1
 988 1530 l 1,7,-1
 773 1244 l 1,8,9
 912 1237 912 1237 912 1116 c 0,10,11
 912 1088 912 1088 905 1055 c 2,12,-1
 878 929 l 2,13,14
 836 735 836 735 656 735 c 2,15,-1
 515 735 l 2,16,17
 349 735 349 735 349 868 c 0,18,19
 349 899 349 899 358 938 c 2,20,-1
 362 955 l 1,21,-1
 492 1000 l 1,22,-1
 502 1000 l 1,23,-1
 484 916 l 2,24,25
 482 907 482 907 482 900 c 0,26,27
 482 866 482 866 523 866 c 2,28,-1
 674 866 l 2,29,30
 724 866 724 866 735 916 c 2,31,-1
 768 1071 l 2,32,33
 770 1080 770 1080 770 1087 c 0,34,35
 770 1121 770 1121 729 1121 c 2,36,-1
 586 1121 l 1,37,-1
 561 1163 l 1,38,-1
 727 1399 l 1,39,-1
 503 1399 l 1,40,-1
 505 1410 l 1,41,-1
 578 1530 l 1,6,-1
1333 311 m 1,42,-1
 1496 311 l 1,43,-1
 1547 550 l 1,44,-1
 1333 311 l 1,42,-1
1436 -20 m 1,45,-1
 1426 -20 l 1,46,-1
 1468 180 l 1,47,-1
 1082 180 l 1,48,-1
 1084 190 l 1,49,-1
 1600 767 l 1,50,-1
 1733 815 l 1,51,-1
 1743 815 l 1,52,-1
 1636 311 l 1,53,-1
 1712 311 l 1,54,-1
 1710 301 l 1,55,-1
 1637 180 l 1,56,-1
 1608 180 l 1,57,-1
 1577 31 l 1,58,-1
 1436 -20 l 1,45,-1
EndSplineSet
Validated: 1
EndChar

StartChar: questiondown
Encoding: 191 191 127
Width: 1270
GlyphClass: 2
Flags: W
HStem: -410 180<343.981 852.068> 875 245<811.58 962.099>
VStem: 124 202<-212.891 -33.6117> 764 246<923.236 1072.41>
DStem2: 62.6052 -410 262.982 -410 0.207912 0.978148<324.366 678.85>
LayerCount: 2
Fore
SplineSet
913 1120 m 0,0,1
 965 1120 965 1120 991 1084 c 0,2,3
 1010 1058 1010 1058 1010 1025 c 0,4,5
 1010 1012 1010 1012 1007 998 c 0,6,7
 996 948 996 948 953.5 911.5 c 128,-1,8
 911 875 911 875 861 875 c 128,-1,9
 811 875 811 875 783 911 c 0,10,11
 764 935 764 935 764 970 c 0,12,13
 764 984 764 984 767 998 c 0,14,15
 778 1048 778 1048 820.5 1084 c 128,-1,16
 863 1120 863 1120 913 1120 c 0,0,1
673 -410 m 2,17,-1
 433 -410 l 2,18,19
 124 -410 124 -410 124 -170 c 0,20,21
 124 -120 124 -120 137 -60 c 2,22,-1
 157 30 l 2,23,24
 230 359 230 359 586 522 c 0,25,26
 687 568 687 568 706 646 c 1,27,-1
 919 739 l 1,28,-1
 929 739 l 1,29,30
 870 462 870 462 638 357 c 0,31,32
 403 250 403 250 356 28 c 2,33,-1
 331 -90 l 2,34,35
 326 -115 326 -115 326 -135 c 0,36,37
 326 -230 326 -230 441 -230 c 2,38,-1
 731 -230 l 2,39,40
 872 -230 872 -230 901 -90 c 2,41,-1
 914 -27 l 1,42,-1
 1124 64 l 1,43,-1
 1134 64 l 1,44,-1
 1107 -60 l 2,45,46
 1031 -410 1031 -410 673 -410 c 2,17,-1
EndSplineSet
Validated: 1
EndChar

StartChar: endash
Encoding: 8211 8211 128
Width: 1200
GlyphClass: 2
Flags: W
HStem: 680 150<392 1129>
LayerCount: 2
Fore
SplineSet
392 830 m 5,0,-1
 1226 830 l 5,1,-1
 1224 820 l 5,2,-1
 1129 680 l 5,3,-1
 295 680 l 5,4,-1
 297 690 l 5,5,-1
 392 830 l 5,0,-1
EndSplineSet
Validated: 1
EndChar

StartChar: emdash
Encoding: 8212 8212 129
Width: 1500
GlyphClass: 2
Flags: W
HStem: 680 150<392 1429>
LayerCount: 2
Fore
SplineSet
392 830 m 1,0,-1
 1526 830 l 1,1,-1
 1524 820 l 1,2,-1
 1429 680 l 1,3,-1
 295 680 l 1,4,-1
 297 690 l 1,5,-1
 392 830 l 1,0,-1
EndSplineSet
Validated: 1
EndChar

StartChar: afii00208
Encoding: 8213 8213 130
Width: 1500
GlyphClass: 2
Flags: W
HStem: 680 150<392 1429>
LayerCount: 2
Fore
SplineSet
392 830 m 1,0,-1
 1526 830 l 1,1,-1
 1524 820 l 1,2,-1
 1429 680 l 1,3,-1
 295 680 l 1,4,-1
 297 690 l 1,5,-1
 392 830 l 1,0,-1
EndSplineSet
Validated: 1
EndChar

StartChar: quoteleft
Encoding: 8216 8216 131
Width: 389
GlyphClass: 2
Flags: W
HStem: 1046 554
VStem: 317 166<1169.5 1389.61>
LayerCount: 2
Fore
SplineSet
615 1600 m 1,0,-1
 621 1593 l 1,1,2
 516 1463 516 1463 488 1334 c 0,3,4
 483 1309 483 1309 483 1287 c 0,5,6
 483 1190 483 1190 578 1126 c 1,7,-1
 391 1046 l 1,8,-1
 381 1046 l 1,9,10
 317 1126 317 1126 317 1223 c 0,11,12
 317 1256 317 1256 324 1290 c 0,13,14
 366 1487 366 1487 615 1600 c 1,0,-1
EndSplineSet
Validated: 1
EndChar

StartChar: quoteright
Encoding: 8217 8217 132
Width: 389
GlyphClass: 2
Flags: W
HStem: 1046 554
VStem: 468 166<1257.27 1476.22>
LayerCount: 2
Fore
SplineSet
560 1600 m 1,0,-1
 570 1600 l 1,1,2
 634 1520 634 1520 634 1423 c 0,3,4
 634 1390 634 1390 627 1356 c 0,5,6
 585 1159 585 1159 336 1046 c 1,7,-1
 331 1053 l 1,8,9
 436 1183 436 1183 463 1312 c 0,10,11
 468 1336 468 1336 468 1359 c 0,12,13
 468 1456 468 1456 373 1520 c 1,14,-1
 560 1600 l 1,0,-1
EndSplineSet
Validated: 1
EndChar

StartChar: quotesinglbase
Encoding: 8218 8218 133
Width: 389
GlyphClass: 2
Flags: W
HStem: -276 554
VStem: 187 166<-64.7295 154.218>
LayerCount: 2
Fore
SplineSet
279 278 m 1,0,-1
 289 278 l 1,1,2
 353 198 353 198 353 101 c 0,3,4
 353 68 353 68 346 34 c 0,5,6
 304 -163 304 -163 55 -276 c 1,7,-1
 50 -269 l 1,8,9
 155 -139 155 -139 182 -10 c 0,10,11
 187 14 187 14 187 37 c 0,12,13
 187 134 187 134 92 198 c 1,14,-1
 279 278 l 1,0,-1
EndSplineSet
Validated: 1
EndChar

StartChar: quotereversed
Encoding: 8219 8219 134
Width: 389
GlyphClass: 2
Flags: W
HStem: 1053 547
VStem: 331 143<1149.75 1394.36>
LayerCount: 2
Fore
SplineSet
509 1600 m 1,0,-1
 662 1520 l 1,1,2
 512 1441 512 1441 484 1312 c 0,3,4
 474 1266 474 1266 474 1220 c 0,5,6
 474 1137 474 1137 506 1053 c 1,7,-1
 497 1046 l 1,8,9
 331 1139 331 1139 331 1290 c 0,10,11
 331 1322 331 1322 338 1356 c 0,12,13
 367 1493 367 1493 499 1600 c 1,14,-1
 509 1600 l 1,0,-1
EndSplineSet
Validated: 1
EndChar

StartChar: quotedblleft
Encoding: 8220 8220 135
Width: 688
GlyphClass: 2
Flags: W
HStem: 1046 554
VStem: 317 166<1169.5 1389.61> 616 166<1169.5 1389.61>
LayerCount: 2
Fore
SplineSet
615 1600 m 1,0,-1
 621 1593 l 1,1,2
 516 1463 516 1463 488 1334 c 0,3,4
 483 1309 483 1309 483 1287 c 0,5,6
 483 1190 483 1190 578 1126 c 1,7,-1
 391 1046 l 1,8,-1
 381 1046 l 1,9,10
 317 1126 317 1126 317 1223 c 0,11,12
 317 1256 317 1256 324 1290 c 0,13,14
 366 1487 366 1487 615 1600 c 1,0,-1
914 1600 m 1,15,-1
 920 1593 l 1,16,17
 816 1463 816 1463 788 1334 c 0,18,19
 783 1309 783 1309 782 1287 c 0,20,21
 782 1190 782 1190 877 1126 c 1,22,-1
 690 1046 l 1,23,-1
 680 1046 l 1,24,25
 616 1126 616 1126 616 1223 c 0,26,27
 616 1256 616 1256 623 1290 c 0,28,29
 665 1487 665 1487 914 1600 c 1,15,-1
EndSplineSet
Validated: 1
EndChar

StartChar: quotedblright
Encoding: 8221 8221 136
Width: 688
GlyphClass: 2
Flags: W
HStem: 1046 554
VStem: 468 166<1257.27 1476.22> 767 166<1257.27 1476.22>
LayerCount: 2
Fore
SplineSet
859 1600 m 1,0,-1
 869 1600 l 1,1,2
 933 1520 933 1520 933 1423 c 0,3,4
 933 1390 933 1390 926 1356 c 0,5,6
 884 1159 884 1159 635 1046 c 1,7,-1
 630 1053 l 1,8,9
 735 1183 735 1183 762 1312 c 0,10,11
 767 1336 767 1336 767 1359 c 0,12,13
 767 1456 767 1456 672 1520 c 1,14,-1
 859 1600 l 1,0,-1
560 1600 m 1,15,-1
 570 1600 l 1,16,17
 634 1520 634 1520 634 1423 c 0,18,19
 634 1390 634 1390 627 1356 c 0,20,21
 585 1159 585 1159 336 1046 c 1,22,-1
 331 1053 l 1,23,24
 436 1183 436 1183 463 1312 c 0,25,26
 468 1336 468 1336 468 1359 c 0,27,28
 468 1456 468 1456 373 1520 c 1,29,-1
 560 1600 l 1,15,-1
EndSplineSet
Validated: 1
EndChar

StartChar: quotedblbase
Encoding: 8222 8222 137
Width: 688
GlyphClass: 2
Flags: W
HStem: -276 554
VStem: 187 166<-64.7295 154.218> 486 166<-64.7295 154.218>
LayerCount: 2
Fore
SplineSet
578 278 m 1,0,-1
 588 278 l 1,1,2
 652 198 652 198 652 101 c 0,3,4
 652 68 652 68 645 34 c 0,5,6
 603 -163 603 -163 354 -276 c 1,7,-1
 349 -269 l 1,8,9
 454 -139 454 -139 481 -10 c 0,10,11
 486 14 486 14 486 37 c 0,12,13
 486 134 486 134 391 198 c 1,14,-1
 578 278 l 1,0,-1
279 278 m 1,15,-1
 289 278 l 1,16,17
 353 198 353 198 353 101 c 0,18,19
 353 68 353 68 346 34 c 0,20,21
 304 -163 304 -163 55 -276 c 1,22,-1
 50 -269 l 1,23,24
 155 -139 155 -139 182 -10 c 0,25,26
 187 14 187 14 187 37 c 0,27,28
 187 134 187 134 92 198 c 1,29,-1
 279 278 l 1,15,-1
EndSplineSet
Validated: 1
EndChar

StartChar: dagger
Encoding: 8224 8224 138
Width: 1214
GlyphClass: 2
Flags: W
HStem: -20 21G<503 559.444> 998 180<480 719 957 1196> 1510 20G<975.556 1032>
DStem2: 503 -20 702.87 -20 0.207912 0.978148<133.566 1040.66 1266.21 1492.55>
LayerCount: 2
Fore
SplineSet
513 -20 m 1,0,-1
 503 -20 l 1,1,-1
 719 998 l 1,2,-1
 362 998 l 1,3,-1
 364 1008 l 1,4,-1
 480 1178 l 1,5,-1
 757 1178 l 1,6,-1
 813 1440 l 1,7,-1
 1022 1530 l 1,8,-1
 1032 1530 l 1,9,-1
 957 1178 l 1,10,-1
 1314 1178 l 1,11,-1
 1312 1168 l 1,12,-1
 1196 998 l 1,13,-1
 919 998 l 1,14,-1
 722 70 l 1,15,-1
 513 -20 l 1,0,-1
EndSplineSet
Validated: 1
EndChar

StartChar: daggerdbl
Encoding: 8225 8225 139
Width: 1214
GlyphClass: 2
Flags: W
HStem: -20 21G<503 559.444> 332 180<339 578 816 1055> 998 180<480 719 957 1196> 1510 20G<975.556 1032>
DStem2: 503 -20 702.87 -20 0.207912 0.978148<133.566 359.901 585.451 1040.66 1266.21 1492.55>
LayerCount: 2
Fore
SplineSet
513 -20 m 1,0,-1
 503 -20 l 1,1,-1
 578 332 l 1,2,-1
 221 332 l 1,3,-1
 223 342 l 1,4,-1
 339 512 l 1,5,-1
 616 512 l 1,6,-1
 719 998 l 1,7,-1
 362 998 l 1,8,-1
 364 1008 l 1,9,-1
 480 1178 l 1,10,-1
 757 1178 l 1,11,-1
 813 1440 l 1,12,-1
 1022 1530 l 1,13,-1
 1032 1530 l 1,14,-1
 957 1178 l 1,15,-1
 1314 1178 l 1,16,-1
 1312 1168 l 1,17,-1
 1196 998 l 1,18,-1
 919 998 l 1,19,-1
 816 512 l 1,20,-1
 1173 512 l 1,21,-1
 1171 502 l 1,22,-1
 1055 332 l 1,23,-1
 778 332 l 1,24,-1
 722 70 l 1,25,-1
 513 -20 l 1,0,-1
EndSplineSet
Validated: 1
EndChar

StartChar: bullet
Encoding: 8226 8226 140
Width: 900
GlyphClass: 2
Flags: W
HStem: 450 610<415.663 805.337>
VStem: 280 661
LayerCount: 2
Fore
SplineSet
551 1060 m 2,0,-1
 759 1060 l 2,1,2
 941 1060 941 1060 941 923 c 0,3,4
 941 897 941 897 934 866 c 2,5,-1
 887 644 l 2,6,7
 846 450 846 450 670 450 c 2,8,-1
 462 450 l 2,9,10
 280 450 280 450 280 587 c 0,11,12
 280 613 280 613 287 644 c 2,13,-1
 334 866 l 2,14,15
 375 1060 375 1060 551 1060 c 2,0,-1
EndSplineSet
Validated: 1
EndChar

StartChar: ellipsis
Encoding: 8230 8230 141
Width: 1012
GlyphClass: 2
Flags: W
HStem: -20 245<116.901 267.42 452.901 603.42 788.901 939.42>
VStem: 69 246<27.5918 176.764> 405 246<27.5918 176.764> 741 246<27.5918 176.764>
CounterMasks: 1 70
LayerCount: 2
Fore
SplineSet
838 -20 m 0,0,1
 786 -20 786 -20 760 16 c 0,2,3
 741 42 741 42 741 75 c 0,4,5
 741 88 741 88 744 102 c 0,6,7
 755 152 755 152 797.5 188.5 c 128,-1,8
 840 225 840 225 890 225 c 128,-1,9
 940 225 940 225 968 189 c 0,10,11
 987 165 987 165 987 130 c 0,12,13
 987 116 987 116 984 102 c 0,14,15
 973 52 973 52 930.5 16 c 128,-1,16
 888 -20 888 -20 838 -20 c 0,0,1
502 -20 m 0,17,18
 450 -20 450 -20 424 16 c 0,19,20
 405 42 405 42 405 75 c 0,21,22
 405 88 405 88 408 102 c 0,23,24
 419 152 419 152 461.5 188.5 c 128,-1,25
 504 225 504 225 554 225 c 128,-1,26
 604 225 604 225 632 189 c 0,27,28
 651 165 651 165 651 130 c 0,29,30
 651 116 651 116 648 102 c 0,31,32
 637 52 637 52 594.5 16 c 128,-1,33
 552 -20 552 -20 502 -20 c 0,17,18
166 -20 m 0,34,35
 114 -20 114 -20 88 16 c 0,36,37
 69 42 69 42 69 75 c 0,38,39
 69 88 69 88 72 102 c 0,40,41
 83 152 83 152 125.5 188.5 c 128,-1,42
 168 225 168 225 218 225 c 128,-1,43
 268 225 268 225 296 189 c 0,44,45
 315 165 315 165 315 130 c 0,46,47
 315 116 315 116 312 102 c 0,48,49
 301 52 301 52 258.5 16 c 128,-1,50
 216 -20 216 -20 166 -20 c 0,34,35
EndSplineSet
Validated: 1
EndChar

StartChar: perthousand
Encoding: 8240 8240 142
Width: 2220
GlyphClass: 2
Flags: W
HStem: -20 21G<444.284 504.756> 0 131<975.365 1291.54 1648.36 1964.54> 479 131<1032.07 1348.43 1705.07 2021.43> 900 131<519.572 835.93> 1379 131<576.46 892.635> 1510 20G<1363.26 1424.01>
VStem: 376 142<1031.88 1270.89> 831 142<131.876 370.891 1033.04 1139.28> 894 143<1139.11 1378.12> 1350 142<239.109 478.124> 1504 142<131.876 370.891> 2023 142<239.109 478.124>
DStem2: 146.212 -20 285.975 -20 0.207912 0.978148<1138.8 1464.55> 358 47 491 -20 0.566694 0.823928<20.1671 1799.35> 605.975 -20 746.212 -20 0.207912 0.978148<1069.28 1394.84> 792.513 -20 932.276 -20 0.207912 0.978148<219.675 544.463> 1252.56 -20 1392.33 -20 0.207912 0.978148<149.133 474.883> 1465.51 -20 1605.28 -20 0.207912 0.978148<219.675 544.463> 1925.56 -20 2065.33 -20 0.207912 0.978148<149.133 474.883>
LayerCount: 2
Fore
SplineSet
1688 131 m 2,0,-1
 1908 131 l 2,1,2
 1958 131 1958 131 1968 181 c 2,3,-1
 2021 429 l 2,4,5
 2023 438 2023 438 2023 445 c 0,6,7
 2023 479 2023 479 1982 479 c 2,8,-1
 1762 479 l 2,9,10
 1712 479 1712 479 1701 429 c 2,11,-1
 1648 181 l 2,12,13
 1646 173 1646 173 1646 166 c 0,14,15
 1646 131 1646 131 1688 131 c 2,0,-1
1894 0 m 2,16,-1
 1686 0 l 2,17,18
 1504 0 1504 0 1504 137 c 0,19,20
 1504 163 1504 163 1511 194 c 2,21,-1
 1558 416 l 2,22,23
 1599 610 1599 610 1776 610 c 2,24,-1
 1984 610 l 2,25,26
 2165 610 2165 610 2165 473 c 0,27,28
 2165 447 2165 447 2158 416 c 2,29,-1
 2111 194 l 2,30,31
 2070 0 2070 0 1894 0 c 2,16,-1
481 -20 m 1,32,-1
 358 47 l 1,33,-1
 1377 1530 l 1,34,-1
 1387 1530 l 1,35,-1
 1511 1463 l 1,36,-1
 491 -20 l 1,37,-1
 481 -20 l 1,32,-1
1015 131 m 2,38,-1
 1235 131 l 2,39,40
 1285 131 1285 131 1295 181 c 2,41,-1
 1348 429 l 2,42,43
 1350 438 1350 438 1350 445 c 0,44,45
 1350 479 1350 479 1309 479 c 2,46,-1
 1089 479 l 2,47,48
 1039 479 1039 479 1028 429 c 2,49,-1
 975 181 l 2,50,51
 973 173 973 173 973 166 c 0,52,53
 973 131 973 131 1015 131 c 2,38,-1
1221 0 m 2,54,-1
 1013 0 l 2,55,56
 831 0 831 0 831 137 c 0,57,58
 831 163 831 163 838 194 c 2,59,-1
 885 416 l 2,60,61
 926 610 926 610 1103 610 c 2,62,-1
 1311 610 l 2,63,64
 1492 610 1492 610 1492 473 c 0,65,66
 1492 447 1492 447 1485 416 c 2,67,-1
 1438 194 l 2,68,69
 1397 0 1397 0 1221 0 c 2,54,-1
853 1379 m 2,70,-1
 633 1379 l 2,71,72
 583 1379 583 1379 572 1329 c 2,73,-1
 520 1081 l 2,74,75
 518 1072 518 1072 518 1065 c 0,76,77
 518 1031 518 1031 559 1031 c 2,78,-1
 779 1031 l 2,79,80
 829 1031 829 1031 840 1081 c 2,81,-1
 892 1329 l 2,82,83
 894 1338 894 1338 894 1345 c 0,84,85
 894 1379 894 1379 853 1379 c 2,70,-1
647 1510 m 2,86,-1
 855 1510 l 2,87,88
 1037 1510 1037 1510 1037 1373 c 0,89,90
 1037 1347 1037 1347 1030 1316 c 2,91,-1
 983 1094 l 2,92,93
 942 900 942 900 765 900 c 2,94,-1
 557 900 l 2,95,96
 376 900 376 900 376 1037 c 0,97,98
 376 1063 376 1063 383 1094 c 2,99,-1
 430 1316 l 2,100,101
 471 1510 471 1510 647 1510 c 2,86,-1
EndSplineSet
Validated: 1
EndChar

StartChar: minute
Encoding: 8242 8242 143
Width: 414
GlyphClass: 2
Flags: W
HStem: 1201 399
VStem: 315 374
LayerCount: 2
Fore
SplineSet
541 1600 m 1,0,-1
 551 1600 l 1,1,-1
 689 1527 l 1,2,-1
 409 1201 l 1,3,-1
 399 1201 l 1,4,-1
 315 1245 l 1,5,-1
 541 1600 l 1,0,-1
EndSplineSet
Validated: 1
EndChar

StartChar: second
Encoding: 8243 8243 144
Width: 667
GlyphClass: 2
Flags: W
HStem: 1201 399
VStem: 315 627
LayerCount: 2
Fore
SplineSet
794 1600 m 1,0,-1
 804 1600 l 1,1,-1
 942 1527 l 1,2,-1
 662 1201 l 1,3,-1
 652 1201 l 1,4,-1
 568 1245 l 1,5,-1
 794 1600 l 1,0,-1
541 1600 m 1,6,-1
 551 1600 l 1,7,-1
 689 1527 l 1,8,-1
 409 1201 l 1,9,-1
 399 1201 l 1,10,-1
 315 1245 l 1,11,-1
 541 1600 l 1,6,-1
EndSplineSet
Validated: 1
EndChar

StartChar: guilsinglleft
Encoding: 8249 8249 145
Width: 748
GlyphClass: 2
Flags: W
VStem: 310 489
DStem2: 486 743 310 755 0.353442 -0.935457<0 395.019> 310 755 486 743 0.625126 0.780524<100.656 566.286>
LayerCount: 2
Fore
SplineSet
310 755 m 1,0,-1
 664 1197 l 1,1,-1
 674 1197 l 1,2,-1
 799 1131 l 1,3,-1
 486 743 l 1,4,-1
 627 374 l 1,5,-1
 487 313 l 1,6,-1
 477 313 l 1,7,-1
 310 755 l 1,0,-1
EndSplineSet
Validated: 1
EndChar

StartChar: guilsinglright
Encoding: 8250 8250 146
Width: 798
GlyphClass: 2
Flags: W
VStem: 270 489
DStem2: 270 379 405 313 0.625126 0.780524<32.8774 498.508> 592 1197 442 1136 0.353442 -0.935457<4.04659 399.065>
LayerCount: 2
Fore
SplineSet
759 755 m 1,0,-1
 405 313 l 1,1,-1
 395 313 l 1,2,-1
 270 379 l 1,3,-1
 583 767 l 1,4,-1
 442 1136 l 1,5,-1
 582 1197 l 1,6,-1
 592 1197 l 1,7,-1
 759 755 l 1,0,-1
EndSplineSet
Validated: 1
EndChar

StartChar: fraction
Encoding: 8260 8260 147
Width: 872
GlyphClass: 2
Flags: W
HStem: -20 21G<106.284 166.756> 1510 20G<1025.26 1086.01>
DStem2: 20 47 153 -20 0.566694 0.823928<20.1671 1799.35>
LayerCount: 2
Fore
SplineSet
143 -20 m 1,0,-1
 20 47 l 1,1,-1
 1039 1530 l 1,2,-1
 1049 1530 l 1,3,-1
 1173 1463 l 1,4,-1
 153 -20 l 1,5,-1
 143 -20 l 1,0,-1
EndSplineSet
Validated: 1
EndChar

StartChar: Euro
Encoding: 8364 8364 148
Width: 1400
GlyphClass: 2
Flags: W
HStem: 0 180<541.27 1068.25> 595 120<284 386 612 1044> 795 120<326 429 654 1087> 1330 180<762.75 1294.32>
VStem: 322 201<199.573 382.578> 1308 190<1148 1314.08>
DStem2: 259.605 0 459.982 0 0.207912 0.978148<324.366 608.277 772.643 812.847 977.004 1381.62>
LayerCount: 2
Fore
SplineSet
630 0 m 2,0,1
 322 0 322 0 322 243 c 0,2,3
 322 292 322 292 334 350 c 2,4,-1
 386 595 l 1,5,-1
 206 595 l 1,6,-1
 209 605 l 1,7,-1
 284 715 l 1,8,-1
 412 715 l 1,9,-1
 429 795 l 1,10,-1
 249 795 l 1,11,-1
 251 805 l 1,12,-1
 326 915 l 1,13,-1
 454 915 l 1,14,-1
 507 1160 l 2,15,16
 583 1510 583 1510 911 1510 c 2,17,-1
 1201 1510 l 2,18,19
 1498 1510 1498 1510 1498 1263 c 0,20,21
 1498 1211 1498 1211 1485 1148 c 1,22,-1
 1286 1062 l 1,23,-1
 1276 1062 l 1,24,-1
 1303 1190 l 2,25,26
 1308 1215 1308 1215 1308 1235 c 0,27,28
 1308 1330 1308 1330 1193 1330 c 2,29,-1
 883 1330 l 2,30,31
 743 1330 743 1330 713 1190 c 2,32,-1
 654 915 l 1,33,-1
 1164 915 l 1,34,-1
 1162 905 l 1,35,-1
 1087 795 l 1,36,-1
 629 795 l 1,37,-1
 612 715 l 1,38,-1
 1122 715 l 1,39,-1
 1120 705 l 1,40,-1
 1044 595 l 1,41,-1
 586 595 l 1,42,-1
 528 320 l 2,43,44
 523 295 523 295 523 275 c 0,45,46
 523 180 523 180 638 180 c 2,47,-1
 948 180 l 2,48,49
 1089 180 1089 180 1118 320 c 2,50,-1
 1131 383 l 1,51,-1
 1341 474 l 1,52,-1
 1351 474 l 1,53,-1
 1324 350 l 2,54,55
 1248 0 1248 0 920 0 c 2,56,-1
 630 0 l 2,0,1
EndSplineSet
Validated: 1
EndChar

StartChar: afii61248
Encoding: 8453 8453 149
Width: 1613
GlyphClass: 2
Flags: W
HStem: -20 21G<471.284 531.756> 0 131<1097.17 1356.22> 664 131<1192.78 1451.83> 726 131<482.625 733.167> 1390 131<578.605 827.474>
VStem: 339 142<791.5 1097.25> 831 135<1306 1390> 951 142<65.5 368.07> 1456 142<426.93 729.5>
DStem2: 146.197 -20 285.96 -20 0.207912 0.978148<960.917 1475.86> 385 47 518 -20 0.566694 0.823928<20.1671 1799.35> 912.513 -20 1052.28 -20 0.207912 0.978148<218.697 733.885> 1319.24 -20 1459 -20 0.207912 0.978148<148.828 663.038>
LayerCount: 2
Fore
SplineSet
508 -20 m 1,0,-1
 385 47 l 1,1,-1
 1404 1530 l 1,2,-1
 1414 1530 l 1,3,-1
 1538 1463 l 1,4,-1
 518 -20 l 1,5,-1
 508 -20 l 1,0,-1
1414 664 m 2,6,-1
 1248 664 l 2,7,8
 1198 664 1198 664 1188 614 c 2,9,-1
 1095 181 l 2,10,11
 1093 172 1093 172 1093 165 c 0,12,13
 1093 131 1093 131 1135 131 c 2,14,-1
 1301 131 l 2,15,16
 1351 131 1351 131 1361 181 c 2,17,-1
 1454 614 l 2,18,19
 1456 622 1456 622 1456 629 c 0,20,21
 1456 664 1456 664 1414 664 c 2,6,-1
1277 0 m 2,22,-1
 1123 0 l 2,23,24
 951 0 951 0 951 135 c 0,25,26
 951 162 951 162 958 194 c 2,27,-1
 1045 601 l 2,28,29
 1086 795 1086 795 1272 795 c 2,30,-1
 1426 795 l 2,31,32
 1598 795 1598 795 1598 660 c 0,33,34
 1598 633 1598 633 1591 601 c 2,35,-1
 1504 194 l 2,36,37
 1463 0 1463 0 1277 0 c 2,22,-1
657 1521 m 2,38,-1
 803 1521 l 2,39,40
 966 1521 966 1521 966 1388 c 0,41,42
 966 1357 966 1357 957 1319 c 2,43,-1
 954 1306 l 1,44,-1
 821 1256 l 1,45,-1
 811 1256 l 1,46,-1
 829 1340 l 2,47,48
 831 1349 831 1349 831 1356 c 0,49,50
 831 1390 831 1390 789 1390 c 2,51,-1
 635 1390 l 2,52,53
 586 1390 586 1390 575 1340 c 2,54,-1
 483 907 l 2,55,56
 481 898 481 898 481 891 c 0,57,58
 481 857 481 857 522 857 c 2,59,-1
 676 857 l 2,60,61
 727 857 727 857 737 907 c 2,62,-1
 746 951 l 1,63,-1
 887 1003 l 1,64,-1
 897 1003 l 1,65,-1
 880 921 l 2,66,67
 840 726 840 726 654 726 c 2,68,-1
 508 726 l 2,69,70
 339 726 339 726 339 860 c 0,71,72
 339 887 339 887 346 920 c 2,73,-1
 432 1327 l 2,74,75
 473 1521 473 1521 657 1521 c 2,38,-1
EndSplineSet
Validated: 1
EndChar

StartChar: afii61289
Encoding: 8467 8467 150
Width: 958
GlyphClass: 2
Flags: W
HStem: -20 136<493.285 609.793> 0 21G<50 267.222> 1510 20G<957 1028>
LayerCount: 2
Fore
SplineSet
486 466 m 1,0,1
 648 708 648 708 737 860 c 0,2,3
 896 1134 896 1134 944 1359 c 1,4,5
 826 1238 826 1238 730 1067 c 0,6,7
 544 740 544 740 486 466 c 1,0,1
50 0 m 1,8,9
 205 158 205 158 304 282 c 1,10,11
 310 366 310 366 326 443 c 0,12,13
 366 629 366 629 459 848 c 0,14,15
 633 1251 633 1251 822 1434 c 0,16,17
 920 1530 920 1530 994 1530 c 0,18,19
 1062 1530 1062 1530 1086 1479 c 0,20,21
 1099 1453 1099 1453 1099 1410 c 0,22,23
 1099 1371 1099 1371 1088 1318 c 0,24,25
 1068 1226 1068 1226 1006 1072 c 0,26,27
 862 722 862 722 480 271 c 1,28,29
 480 116 480 116 536 116 c 0,30,31
 560 116 560 116 593.5 145 c 128,-1,32
 627 174 627 174 664 228 c 1,33,-1
 840 228 l 1,34,35
 736 100 736 100 659 40 c 128,-1,36
 582 -20 582 -20 498 -20 c 0,37,38
 378 -20 378 -20 324 90 c 1,39,-1
 251 0 l 1,40,-1
 50 0 l 1,8,9
EndSplineSet
Validated: 1
EndChar

StartChar: trademark
Encoding: 8482 8482 151
Width: 1778
GlyphClass: 2
Flags: W
HStem: 1400 130<472 611 751 917 1108.38 1371.12 1511.83 1776.92>
VStem: 1777 142<1282.76 1398.22>
DStem2: 465 716 605.16 716 0.207912 0.978148<81.2802 699.408> 830 716 969.735 716 0.207912 0.978148<83.2365 736.625> 1235 716 1374.73 716 0.207912 0.978148<83.2365 663.087> 1640 716 1779.73 716 0.207912 0.978148<83.2365 663.087>
LayerCount: 2
Fore
SplineSet
1186 1530 m 2,0,-1
 1341 1530 l 2,1,2
 1419 1530 1419 1530 1459 1497 c 1,3,4
 1515 1530 1515 1530 1591 1530 c 2,5,-1
 1746 1530 l 2,6,7
 1919 1530 1919 1530 1919 1394 c 0,8,9
 1919 1367 1919 1367 1912 1334 c 2,10,-1
 1791 769 l 1,11,-1
 1650 716 l 1,12,-1
 1640 716 l 1,13,-1
 1775 1349 l 2,14,15
 1777 1358 1777 1358 1777 1365 c 0,16,17
 1777 1399 1777 1399 1735 1399 c 2,18,-1
 1570 1399 l 2,19,20
 1521 1399 1521 1399 1510 1349 c 2,21,-1
 1386 769 l 1,22,-1
 1245 716 l 1,23,-1
 1235 716 l 1,24,-1
 1370 1349 l 2,25,26
 1372 1358 1372 1358 1372 1365 c 0,27,28
 1372 1399 1372 1399 1330 1399 c 2,29,-1
 1165 1399 l 2,30,31
 1116 1399 1116 1399 1105 1349 c 2,32,-1
 981 769 l 1,33,-1
 840 716 l 1,34,-1
 830 716 l 1,35,-1
 962 1334 l 2,36,37
 1004 1530 1004 1530 1186 1530 c 2,0,-1
472 1530 m 1,38,-1
 991 1530 l 1,39,-1
 989 1520 l 1,40,-1
 917 1400 l 1,41,-1
 751 1400 l 1,42,-1
 616 767 l 1,43,-1
 475 716 l 1,44,-1
 465 716 l 1,45,-1
 611 1400 l 1,46,-1
 398 1400 l 1,47,-1
 400 1410 l 1,48,-1
 472 1530 l 1,38,-1
EndSplineSet
Validated: 1
EndChar

StartChar: uni2126
Encoding: 8486 8486 152
Width: 1410
GlyphClass: 2
Flags: W
HStem: 0 180<318 484 1002 1130> 1330 180<702.375 1250.02>
VStem: 314 200<436.552 624.079> 1268 202<1124.92 1311.25>
DStem2: 199.804 0 400.181 0 0.207912 0.978148<568.706 1381.49> 1010.18 0 1209.8 0 0.207912 0.978148<446.506 1261>
LayerCount: 2
Fore
SplineSet
608 0 m 1,0,-1
 200 0 l 1,1,-1
 202 10 l 1,2,-1
 318 180 l 1,3,-1
 484 180 l 1,4,-1
 499 248 l 1,5,6
 314 307 314 307 314 491 c 0,7,8
 314 536 314 536 325 589 c 2,9,-1
 447 1160 l 2,10,11
 522 1510 522 1510 851 1510 c 2,12,-1
 1161 1510 l 2,13,14
 1470 1510 1470 1510 1470 1268 c 0,15,16
 1470 1219 1470 1219 1457 1160 c 2,17,-1
 1335 589 l 2,18,19
 1265 262 1265 262 1017 248 c 1,20,-1
 1002 180 l 1,21,-1
 1248 180 l 1,22,-1
 1246 170 l 1,23,-1
 1130 0 l 1,24,-1
 802 0 l 1,25,-1
 891 419 l 1,26,-1
 959 419 l 2,27,28
 1099 419 1099 419 1129 559 c 2,29,-1
 1263 1190 l 2,30,31
 1268 1215 1268 1215 1268 1235 c 0,32,33
 1268 1330 1268 1330 1153 1330 c 2,34,-1
 823 1330 l 2,35,36
 683 1330 683 1330 653 1190 c 2,37,-1
 519 559 l 2,38,39
 514 534 514 534 514 514 c 0,40,41
 514 419 514 419 629 419 c 2,42,-1
 697 419 l 1,43,-1
 608 0 l 1,0,-1
EndSplineSet
Validated: 1
EndChar

StartChar: estimated
Encoding: 8494 8494 153
Width: 1330
GlyphClass: 2
Flags: W
HStem: -20 92<474.816 877.904> 525 80<477 1112> 1036 84<679.003 1065.2>
LayerCount: 2
Fore
SplineSet
1147 204 m 1,0,1
 1056 113 1056 113 961 61 c 0,2,3
 813 -20 813 -20 661 -20 c 0,4,5
 405 -20 405 -20 286 139 c 0,6,7
 201 252 201 252 201 407 c 0,8,9
 201 474 201 474 217 550 c 0,10,11
 268 788 268 788 451 952 c 24,12,13
 640 1120 640 1120 904 1120 c 0,14,15
 1153 1120 1153 1120 1269 964 c 272,16,17
 1359 843 1359 843 1359 677 c 0,18,19
 1359 605 1359 605 1342 525 c 1,20,-1
 460 525 l 1,21,-1
 389 192 l 1,22,23
 474 72 474 72 681 72 c 256,24,25
 804 72 804 72 908 132 c 0,26,27
 1001 186 1001 186 1068 266 c 1,28,-1
 1147 204 l 1,0,1
477 605 m 1,29,-1
 1112 605 l 1,30,-1
 1175 903 l 1,31,32
 1072 1036 1072 1036 886 1036 c 0,33,34
 695 1036 695 1036 542 914 c 1,35,-1
 477 605 l 1,29,-1
EndSplineSet
Validated: 1
EndChar

StartChar: partialdiff
Encoding: 8706 8706 154
Width: 1285
GlyphClass: 2
Flags: W
HStem: -20 153<436.608 700.456> 870 170<722.652 999.863> 1378 152<776.721 1116.12>
VStem: 215 190<165.92 478.052> 1176 187<906.621 1315.43>
LayerCount: 2
Fore
SplineSet
528 -20 m 0,0,1
 215 -20 215 -20 215 245 c 0,2,3
 215 303 215 303 230 375 c 0,4,5
 284 631 284 631 459 815 c 0,6,7
 675 1040 675 1040 893 1040 c 0,8,9
 1064 1040 1064 1040 1142 898 c 1,10,11
 1176 1073 1176 1073 1176 1170 c 0,12,13
 1176 1212 1176 1212 1170 1239 c 0,14,15
 1139 1378 1139 1378 971 1378 c 0,16,17
 840 1378 840 1378 695 1294 c 1,18,-1
 732 1468 l 1,19,20
 879 1530 879 1530 1028 1530 c 0,21,22
 1363 1530 1363 1530 1363 1174 c 0,23,24
 1363 1069 1363 1069 1334 934 c 0,25,26
 1251 545 1251 545 1032.5 262.5 c 128,-1,27
 814 -20 814 -20 528 -20 c 0,0,1
553 133 m 0,28,29
 691 133 691 133 833 286 c 128,-1,30
 975 439 975 439 1065 680 c 1,31,32
 1061 765 1061 765 1008.5 817.5 c 128,-1,33
 956 870 956 870 880 870 c 0,34,35
 720 870 720 870 587.5 710 c 128,-1,36
 455 550 455 550 416 369 c 0,37,38
 405 319 405 319 405 280 c 0,39,40
 405 133 405 133 553 133 c 0,28,29
EndSplineSet
Validated: 1
EndChar

StartChar: uni2206
Encoding: 8710 8710 155
Width: 1331
GlyphClass: 2
Flags: W
HStem: 0 180<314 1095>
DStem2: 5 0 314 180 0.509835 0.860272<312.388 1517.37> 1075 1550 926 1218 0.159853 -0.987141<303.913 1355.58>
LayerCount: 2
Fore
SplineSet
5 0 m 1,0,-1
 875 1468 l 1,1,-1
 1065 1550 l 1,2,-1
 1075 1550 l 1,3,-1
 1326 0 l 1,4,-1
 5 0 l 1,0,-1
314 180 m 1,5,-1
 1095 180 l 1,6,-1
 926 1218 l 1,7,-1
 314 180 l 1,5,-1
EndSplineSet
Validated: 1
EndChar

StartChar: product
Encoding: 8719 8719 156
Width: 1400
GlyphClass: 2
Flags: W
HStem: -430 21G<109 165.444 909 965.444> 1330 180<683 1283>
DStem2: 109 -430 308.87 -430 0.207912 0.978148<133.566 1840.88> 909 -430 1108.87 -430 0.207912 0.978148<133.566 1799.3>
LayerCount: 2
Fore
SplineSet
119 -430 m 1,0,-1
 109 -430 l 1,1,-1
 510 1460 l 1,2,-1
 627 1510 l 1,3,-1
 1521 1510 l 1,4,-1
 1128 -340 l 1,5,-1
 919 -430 l 1,6,-1
 909 -430 l 1,7,-1
 1283 1330 l 1,8,-1
 683 1330 l 1,9,-1
 328 -340 l 1,10,-1
 119 -430 l 1,0,-1
EndSplineSet
Validated: 1
EndChar

StartChar: summation
Encoding: 8721 8721 157
Width: 1203
GlyphClass: 2
Flags: W
HStem: -410 180<366 886> 1330 180<669 1236>
DStem2: 13 -410 366 -230 0.567925 0.82308<348.632 1214.95> 669 1330 411 1460 0.318189 -0.948027<0 712.359>
LayerCount: 2
Fore
SplineSet
13 -410 m 1,0,-1
 703 590 l 1,1,-1
 411 1460 l 1,2,-1
 528 1510 l 1,3,-1
 1354 1510 l 1,4,-1
 1352 1500 l 1,5,-1
 1236 1330 l 1,6,-1
 669 1330 l 1,7,-1
 927 559 l 1,8,-1
 366 -230 l 1,9,-1
 1004 -230 l 1,10,-1
 1002 -240 l 1,11,-1
 886 -410 l 1,12,-1
 13 -410 l 1,0,-1
EndSplineSet
Validated: 1
EndChar

StartChar: minus
Encoding: 8722 8722 158
Width: 1200
GlyphClass: 2
Flags: W
HStem: 680 150<392 1129>
LayerCount: 2
Fore
SplineSet
392 830 m 5,0,-1
 1226 830 l 5,1,-1
 1224 820 l 5,2,-1
 1129 680 l 5,3,-1
 295 680 l 5,4,-1
 297 690 l 5,5,-1
 392 830 l 5,0,-1
EndSplineSet
Validated: 1
EndChar

StartChar: uni2215
Encoding: 8725 8725 159
Width: 872
GlyphClass: 2
Flags: W
HStem: -20 21G<106.284 166.756> 1510 20G<1025.26 1086.01>
DStem2: 20 47 153 -20 0.566694 0.823928<20.1671 1799.35>
LayerCount: 2
Fore
SplineSet
143 -20 m 1,0,-1
 20 47 l 1,1,-1
 1039 1530 l 1,2,-1
 1049 1530 l 1,3,-1
 1173 1463 l 1,4,-1
 153 -20 l 1,5,-1
 143 -20 l 1,0,-1
EndSplineSet
Validated: 1
EndChar

StartChar: uni2219
Encoding: 8729 8729 160
Width: 340
GlyphClass: 2
Flags: W
HStem: 632 245<254.711 405.42>
VStem: 207 246<679.592 828.764>
LayerCount: 2
Fore
SplineSet
356 877 m 0,0,1
 408 877 408 877 434 841 c 0,2,3
 453 816 453 816 453 782 c 0,4,5
 453 768 453 768 450 754 c 0,6,7
 439 704 439 704 396.5 668 c 128,-1,8
 354 632 354 632 304 632 c 128,-1,9
 254 632 254 632 226 668 c 0,10,11
 207 693 207 693 207 727 c 0,12,13
 207 740 207 740 210 754 c 0,14,15
 221 804 221 804 263.5 840.5 c 128,-1,16
 306 877 306 877 356 877 c 0,0,1
EndSplineSet
Validated: 1
EndChar

StartChar: radical
Encoding: 8730 8730 161
Width: 1065
GlyphClass: 2
Flags: W
HStem: -20 21G<315.075 374.4> 1510 20G<1160.44 1217.7>
DStem2: 371 806 207 739 0.144706 -0.989475<42.5631 540.922> 444 270 502 55 0.506939 0.861982<0 1455.15>
LayerCount: 2
Fore
SplineSet
318 -20 m 1,0,-1
 207 739 l 1,1,-1
 361 806 l 1,2,-1
 371 806 l 1,3,-1
 444 270 l 1,4,-1
 1172 1530 l 1,5,-1
 1182 1530 l 1,6,-1
 1323 1451 l 1,7,-1
 502 55 l 1,8,-1
 328 -20 l 1,9,-1
 318 -20 l 1,0,-1
EndSplineSet
Validated: 1
EndChar

StartChar: infinity
Encoding: 8734 8734 162
Width: 1360
GlyphClass: 2
Flags: W
HStem: 450 131<424.365 742 882.712 1200.54> 929 131<480.46 798.288 939 1256.64>
VStem: 280 142<582.752 695.642> 1259 142<814.358 927.248>
DStem2: 245.764 450 385.527 450 0.207912 0.978148<198.25 524> 705.527 450 845.527 450 0.207912 0.978148<198.3 454.495> 1165.53 450 1305.76 450 0.207912 0.978148<128.746 454.495>
LayerCount: 2
Fore
SplineSet
551 1060 m 2,0,-1
 759 1060 l 2,1,2
 838 1060 838 1060 879 1029 c 1,3,4
 933 1060 933 1060 1011 1060 c 2,5,-1
 1219 1060 l 2,6,7
 1401 1060 1401 1060 1401 923 c 0,8,9
 1401 897 1401 897 1394 866 c 2,10,-1
 1347 644 l 2,11,12
 1306 450 1306 450 1130 450 c 2,13,-1
 922 450 l 2,14,15
 843 450 843 450 802 481 c 1,16,17
 748 450 748 450 670 450 c 2,18,-1
 462 450 l 2,19,20
 280 450 280 450 280 587 c 0,21,22
 280 613 280 613 287 644 c 2,23,-1
 334 866 l 2,24,25
 375 1060 375 1060 551 1060 c 2,0,-1
797 879 m 2,26,27
 799 888 799 888 799 895 c 0,28,29
 799 929 799 929 757 929 c 2,30,-1
 537 929 l 2,31,32
 487 929 487 929 477 879 c 2,33,-1
 424 631 l 2,34,35
 422 622 422 622 422 615 c 0,36,37
 422 581 422 581 463 581 c 2,38,-1
 683 581 l 2,39,40
 733 581 733 581 744 631 c 2,41,-1
 797 879 l 2,26,27
884 631 m 2,42,43
 882 622 882 622 882 615 c 0,44,45
 882 581 882 581 923 581 c 2,46,-1
 1143 581 l 2,47,48
 1193 581 1193 581 1204 631 c 2,49,-1
 1257 879 l 2,50,51
 1259 888 1259 888 1259 895 c 0,52,53
 1259 929 1259 929 1217 929 c 2,54,-1
 997 929 l 2,55,56
 947 929 947 929 937 879 c 2,57,-1
 884 631 l 2,42,43
EndSplineSet
Validated: 1
EndChar

StartChar: approxequal
Encoding: 8776 8776 163
Width: 1138
GlyphClass: 2
Flags: W
HStem: 376 147<779.122 916.233> 590 147<459.267 595.917> 776 147<864.122 1001.23> 990 147<544.267 680.917>
LayerCount: 2
Fore
SplineSet
1145 737 m 1,0,1
 1068 376 1068 376 822 376 c 0,2,3
 695 376 695 376 624 503 c 0,4,5
 575 590 575 590 531 590 c 0,6,7
 455 590 455 590 425 456 c 1,8,-1
 240 376 l 1,9,-1
 230 376 l 1,10,11
 307 737 307 737 553 737 c 0,12,13
 680 737 680 737 751 610 c 0,14,15
 800 523 800 523 845 523 c 0,16,17
 921 523 921 523 951 657 c 1,18,-1
 1135 737 l 1,19,-1
 1145 737 l 1,0,1
1230 1137 m 1,20,21
 1153 776 1153 776 907 776 c 0,22,23
 780 776 780 776 709 903 c 0,24,25
 660 990 660 990 616 990 c 0,26,27
 540 990 540 990 510 856 c 1,28,-1
 325 776 l 1,29,-1
 315 776 l 1,30,31
 392 1137 392 1137 638 1137 c 0,32,33
 765 1137 765 1137 836 1010 c 0,34,35
 885 923 885 923 930 923 c 0,36,37
 1006 923 1006 923 1036 1057 c 1,38,-1
 1220 1137 l 1,39,-1
 1230 1137 l 1,20,21
EndSplineSet
Validated: 1
EndChar

StartChar: notequal
Encoding: 8800 8800 164
Width: 1200
GlyphClass: 2
Flags: W
HStem: 480 150<350 519 730 1086> 880 150<435 790 1002 1171>
DStem2: 308 170 415 166 0.561828 0.827254<56.8066 374.994 617.628 858.151 1101.35 1420.36>
LayerCount: 2
Fore
SplineSet
435 1030 m 1,0,-1
 892 1030 l 1,1,-1
 1106 1345 l 1,2,-1
 1205 1345 l 1,3,-1
 1213 1341 l 1,4,-1
 1002 1030 l 1,5,-1
 1269 1030 l 1,6,-1
 1267 1020 l 1,7,-1
 1171 880 l 1,8,-1
 900 880 l 1,9,-1
 730 630 l 1,10,-1
 1184 630 l 1,11,-1
 1182 620 l 1,12,-1
 1086 480 l 1,13,-1
 628 480 l 1,14,-1
 415 166 l 1,15,-1
 316 166 l 1,16,-1
 308 170 l 1,17,-1
 519 480 l 1,18,-1
 252 480 l 1,19,-1
 254 490 l 1,20,-1
 350 630 l 1,21,-1
 621 630 l 1,22,-1
 790 880 l 1,23,-1
 337 880 l 1,24,-1
 339 890 l 1,25,-1
 435 1030 l 1,0,-1
EndSplineSet
Validated: 1
EndChar

StartChar: lessequal
Encoding: 8804 8804 165
Width: 1315
GlyphClass: 2
Flags: W
HStem: 275 150<306 1107>
DStem2: 618 874 324 818 0.933865 -0.357626<0 637.463> 421 968 618 874 0.945717 0.324992<155.757 940.972>
LayerCount: 2
Fore
SplineSet
324 818 m 1,0,-1
 326 828 l 1,1,-1
 421 968 l 1,2,-1
 1326 1279 l 1,3,-1
 1364 1138 l 1,4,-1
 1361 1128 l 1,5,-1
 618 874 l 1,6,-1
 1251 643 l 1,7,-1
 1249 633 l 1,8,-1
 1157 499 l 1,9,-1
 324 818 l 1,0,-1
306 425 m 1,10,-1
 1205 425 l 1,11,-1
 1203 415 l 1,12,-1
 1107 275 l 1,13,-1
 208 275 l 1,14,-1
 211 285 l 1,15,-1
 306 425 l 1,10,-1
EndSplineSet
Validated: 1
EndChar

StartChar: greaterequal
Encoding: 8805 8805 166
Width: 1315
GlyphClass: 2
Flags: W
HStem: 275 150<356 1157>
DStem2: 332 650 367 499 0.945717 0.324992<0 785.216> 536 1279 442 1135 0.933865 -0.357626<0 637.463>
LayerCount: 2
Fore
SplineSet
1369 960 m 1,0,-1
 1367 950 l 1,1,-1
 1272 810 l 1,2,-1
 367 499 l 1,3,-1
 329 640 l 1,4,-1
 332 650 l 1,5,-1
 1075 904 l 1,6,-1
 442 1135 l 1,7,-1
 444 1145 l 1,8,-1
 536 1279 l 1,9,-1
 1369 960 l 1,0,-1
356 425 m 1,10,-1
 1255 425 l 1,11,-1
 1253 415 l 1,12,-1
 1157 275 l 1,13,-1
 258 275 l 1,14,-1
 261 285 l 1,15,-1
 356 425 l 1,10,-1
EndSplineSet
Validated: 1
EndChar

StartChar: lozenge
Encoding: 9674 9674 167
Width: 1134
GlyphClass: 2
Flags: W
HStem: -20 21G<554.926 579.531> 1510 20G<875.965 899.605>
DStem2: 257 738 453 745 0.625536 0.780196<128.066 705.753> 453 745 257 738 0.374342 -0.927291<0 491.528> 634 288 563 -20 0.637091 0.770789<0 569.538> 892 1530 814 1196 0.355404 -0.934713<284.473 782.376>
LayerCount: 2
Fore
SplineSet
634 288 m 1,0,-1
 992 731 l 1,1,-1
 814 1196 l 1,2,-1
 453 745 l 1,3,-1
 634 288 l 1,0,-1
563 -20 m 1,4,-1
 257 738 l 1,5,-1
 892 1530 l 1,6,-1
 1192 741 l 1,7,-1
 563 -20 l 1,4,-1
EndSplineSet
Validated: 1
EndChar

StartChar: Oslash
Encoding: 216 216 168
Width: 1330
Flags: W
HStem: 0 180<493.626 988.625> 1330 180<662.375 1157.37>
VStem: 221 202<181 492.969> 1228 202<1017.03 1329>
DStem2: 151.103 -40 351.48 -40 0.207912 0.978148<365.26 1422.42> 233 -36 340 -40 0.562139 0.827043<56.8407 124.1 343.373 1631.14 1850.42 1917.11> 961.48 -40 1161.1 -40 0.207912 0.978148<244.777 1301.94>
LayerCount: 2
Fore
SplineSet
840 0 m 2,0,-1
 530 0 l 2,1,2
 443 0 443 0 380 19 c 1,3,-1
 340 -40 l 1,4,-1
 241 -40 l 1,5,-1
 233 -36 l 1,6,-1
 298 60 l 1,7,8
 221 120 221 120 221 242 c 0,9,10
 221 291 221 291 234 350 c 2,11,-1
 407 1160 l 2,12,13
 482 1510 482 1510 811 1510 c 2,14,-1
 1121 1510 l 2,15,16
 1208 1510 1208 1510 1270 1491 c 1,17,-1
 1310 1550 l 1,18,-1
 1409 1550 l 1,19,-1
 1418 1546 l 1,20,-1
 1353 1450 l 1,21,22
 1430 1390 1430 1390 1430 1268 c 0,23,24
 1430 1219 1430 1219 1417 1160 c 2,25,-1
 1244 350 l 2,26,27
 1169 0 1169 0 840 0 c 2,0,-1
538 180 m 2,28,-1
 868 180 l 2,29,30
 1008 180 1008 180 1038 320 c 2,31,-1
 1223 1190 l 2,32,33
 1228 1215 1228 1215 1228 1235 c 0,34,35
 1228 1250 1228 1250 1225 1262 c 1,36,-1
 493 185 l 1,37,38
 513 180 513 180 538 180 c 2,28,-1
426 248 m 1,39,-1
 1158 1326 l 1,40,41
 1138 1330 1138 1330 1113 1330 c 2,42,-1
 783 1330 l 2,43,44
 643 1330 643 1330 613 1190 c 2,45,-1
 428 320 l 2,46,47
 423 295 423 295 423 275 c 0,48,49
 423 260 423 260 426 248 c 1,39,-1
EndSplineSet
Validated: 1
EndChar

StartChar: oslash
Encoding: 248 248 169
Width: 1150
Flags: W
HStem: 0 160<482 841.248> 940 160<542.752 901>
VStem: 210 180<194.376 315.661> 994 180<784.339 906.624>
DStem2: 151.982 -40 331.359 -40 0.207912 0.978148<305.182 1035.25> 289 37 346 -40 0.561501 0.827476<-31.7101 0 210.149 1090.85 1301 1332.71> 801.359 -40 981.982 -40 0.207912 0.978148<208.505 938.572>
LayerCount: 2
Fore
SplineSet
730 0 m 2,0,-1
 460 0 l 2,1,2
 415 0 415 0 378 6 c 1,3,-1
 346 -40 l 1,4,-1
 247 -40 l 1,5,-1
 239 -36 l 1,6,-1
 289 37 l 1,7,8
 210 85 210 85 210 195 c 0,9,10
 210 234 210 234 220 280 c 2,11,-1
 334 820 l 2,12,13
 393 1100 393 1100 654 1100 c 2,14,-1
 924 1100 l 2,15,16
 969 1100 969 1100 1006 1094 c 1,17,-1
 1037 1140 l 1,18,-1
 1136 1140 l 1,19,-1
 1144 1136 l 1,20,-1
 1094 1063 l 1,21,22
 1174 1015 1174 1015 1174 905 c 0,23,24
 1174 866 1174 866 1164 820 c 2,25,-1
 1050 280 l 2,26,27
 991 0 991 0 730 0 c 2,0,-1
395 194 m 1,28,-1
 901 940 l 1,29,-1
 630 940 l 2,30,31
 540 940 540 940 521 850 c 2,32,-1
 393 250 l 2,33,34
 390 234 390 234 390 221 c 0,35,36
 390 206 390 206 395 194 c 1,28,-1
989 907 m 1,37,-1
 482 160 l 1,38,-1
 754 160 l 2,39,40
 844 160 844 160 863 250 c 2,41,-1
 991 850 l 2,42,43
 994 866 994 866 994 879 c 0,44,45
 994 895 994 895 989 907 c 1,37,-1
EndSplineSet
Validated: 1
EndChar

StartChar: multiply
Encoding: 215 215 170
Width: 1142
Flags: W
HStem: 430 650
DStem2: 304 490 444 430 0.771307 0.636463<69.7952 413.577 583.216 926.998> 583 1080 417 1020 0.61735 -0.786688<0 277.852 416.849 694.7>
LayerCount: 2
Fore
SplineSet
1019 1080 m 1,0,-1
 1153 1027 l 1,1,-1
 1159 1020 l 1,2,-1
 837 755 l 1,3,-1
 1046 490 l 1,4,-1
 1038 483 l 1,5,-1
 880 430 l 1,6,-1
 709 649 l 1,7,-1
 444 430 l 1,8,-1
 310 483 l 1,9,-1
 304 490 l 1,10,-1
 625 755 l 1,11,-1
 417 1020 l 1,12,-1
 425 1027 l 1,13,-1
 583 1080 l 1,14,-1
 754 861 l 1,15,-1
 1019 1080 l 1,0,-1
EndSplineSet
Validated: 1
EndChar

StartChar: divide
Encoding: 247 247 171
Width: 1200
Flags: W
HStem: 306 245<615.58 766.42> 680 150<392 1129> 959 245<754.58 905.42>
VStem: 568 246<353.592 502.764> 707 246<1006.59 1155.76>
CounterMasks: 1 e0
LayerCount: 2
Fore
SplineSet
856 1204 m 0,0,1
 905 1204 905 1204 933 1168 c 0,2,3
 953 1142 953 1142 953 1109 c 0,4,5
 953 1095 953 1095 950 1081 c 0,6,7
 939 1031 939 1031 896.5 995 c 128,-1,8
 854 959 854 959 804 959 c 0,9,10
 755 959 755 959 727 995 c 0,11,12
 707 1021 707 1021 707 1054 c 0,13,14
 707 1067 707 1067 710 1081 c 0,15,16
 721 1131 721 1131 763.5 1167.5 c 128,-1,17
 806 1204 806 1204 856 1204 c 0,0,1
392 830 m 1,18,-1
 1226 830 l 1,19,-1
 1224 820 l 1,20,-1
 1129 680 l 1,21,-1
 295 680 l 1,22,-1
 297 690 l 1,23,-1
 392 830 l 1,18,-1
665 306 m 0,24,25
 616 306 616 306 588 342 c 0,26,27
 568 368 568 368 568 401 c 0,28,29
 568 414 568 414 571 428 c 0,30,31
 582 478 582 478 624.5 514.5 c 128,-1,32
 667 551 667 551 717 551 c 0,33,34
 766 551 766 551 794 515 c 0,35,36
 814 489 814 489 814 456 c 0,37,38
 814 442 814 442 811 428 c 0,39,40
 800 378 800 378 757.5 342 c 128,-1,41
 715 306 715 306 665 306 c 0,24,25
EndSplineSet
Validated: 1
EndChar

StartChar: uni1E02
Encoding: 7682 7682 172
Width: 1250
Flags: W
HStem: 0 180<438 989> 746 180<597 1059.08> 1330 180<683 1122.8> 1630 245<902.711 1053.42>
VStem: 855 246<1677.59 1826.76> 1104 199<419.469 730.712 971.548 1127.3> 1138 207<1153.41 1312.25>
DStem2: 200 0 399.74 0 0.207912 0.978148<225.55 804.338 988.306 1401.36> 969.982 0 1169.61 0 0.207912 0.978148<203.973 664.025>
LayerCount: 2
Fore
SplineSet
1004 1875 m 0,0,1
 1056 1875 1056 1875 1082 1839 c 0,2,3
 1101 1814 1101 1814 1101 1780 c 0,4,5
 1101 1766 1101 1766 1098 1752 c 0,6,7
 1087 1702 1087 1702 1044.5 1666 c 128,-1,8
 1002 1630 1002 1630 952 1630 c 128,-1,9
 902 1630 902 1630 874 1666 c 0,10,11
 855 1691 855 1691 855 1725 c 0,12,13
 855 1738 855 1738 858 1752 c 0,14,15
 869 1802 869 1802 911.5 1838.5 c 128,-1,16
 954 1875 954 1875 1004 1875 c 0,0,1
438 180 m 1,17,-1
 868 180 l 2,18,19
 1008 180 1008 180 1038 320 c 2,20,-1
 1099 606 l 2,21,22
 1104 631 1104 631 1104 651 c 0,23,24
 1104 746 1104 746 989 746 c 2,25,-1
 559 746 l 1,26,-1
 438 180 l 1,17,-1
200 0 m 1,27,-1
 506 1440 l 1,28,-1
 669 1510 l 1,29,-1
 1021 1510 l 2,30,31
 1345 1510 1345 1510 1345 1285 c 0,32,33
 1345 1246 1345 1246 1335 1200 c 2,34,-1
 1313 1096 l 2,35,36
 1275 915 1275 915 1165 871 c 1,37,38
 1303 824 1303 824 1303 671 c 0,39,40
 1303 628 1303 628 1292 576 c 2,41,-1
 1244 350 l 2,42,43
 1170 0 1170 0 840 0 c 2,44,-1
 200 0 l 1,27,-1
597 926 m 1,45,-1
 937 926 l 2,46,47
 1077 926 1077 926 1107 1066 c 2,48,-1
 1133 1190 l 2,49,50
 1138 1215 1138 1215 1138 1235 c 0,51,52
 1138 1330 1138 1330 1023 1330 c 2,53,-1
 683 1330 l 1,54,-1
 597 926 l 1,45,-1
EndSplineSet
Validated: 1
EndChar

StartChar: uni1E03
Encoding: 7683 7683 173
Width: 1170
Flags: W
HStem: 0 160<414.631 861.248> 940 160<590.594 1009.37> 1220 245<805.711 956.42> 1510 20G<628.827 685>
VStem: 230 180<164.536 440.945> 758 246<1267.59 1416.76> 1014 180<661.094 935.464>
DStem2: 180.484 0 359.861 0 0.207912 0.978148<264.288 999.509 1140.36 1481.27> 829.861 0 1010.48 0 0.207912 0.978148<167.611 897.678>
LayerCount: 2
Fore
SplineSet
907 1465 m 0,0,1
 959 1465 959 1465 985 1429 c 0,2,3
 1004 1404 1004 1404 1004 1370 c 0,4,5
 1004 1356 1004 1356 1001 1342 c 0,6,7
 990 1292 990 1292 947.5 1256 c 128,-1,8
 905 1220 905 1220 855 1220 c 128,-1,9
 805 1220 805 1220 777 1256 c 0,10,11
 758 1281 758 1281 758 1315 c 0,12,13
 758 1328 758 1328 761 1342 c 0,14,15
 772 1392 772 1392 814.5 1428.5 c 128,-1,16
 857 1465 857 1465 907 1465 c 0,0,1
484 160 m 2,17,-1
 774 160 l 2,18,19
 864 160 864 160 883 250 c 2,20,-1
 1011 850 l 2,21,22
 1014 866 1014 866 1014 879 c 0,23,24
 1014 940 1014 940 940 940 c 2,25,-1
 650 940 l 2,26,27
 560 940 560 940 541 850 c 2,28,-1
 413 250 l 2,29,30
 410 234 410 234 410 221 c 0,31,32
 410 160 410 160 484 160 c 2,17,-1
480 0 m 2,33,34
 230 0 230 0 230 195 c 0,35,36
 230 234 230 234 240 280 c 2,37,-1
 488 1449 l 1,38,-1
 675 1530 l 1,39,-1
 685 1530 l 1,40,-1
 589 1079 l 1,41,42
 640 1100 640 1100 694 1100 c 2,43,-1
 944 1100 l 2,44,45
 1194 1100 1194 1100 1194 905 c 0,46,47
 1194 866 1194 866 1184 820 c 2,48,-1
 1070 280 l 2,49,50
 1011 0 1011 0 750 0 c 2,51,-1
 480 0 l 2,33,34
EndSplineSet
Validated: 1
EndChar

StartChar: uni1E0A
Encoding: 7690 7690 174
Width: 1350
Flags: W
HStem: 0 180<438 1008.62> 1330 180<683 1230.02> 1630 245<932.711 1083.42>
VStem: 885 246<1677.59 1826.76> 1248 202<1017.03 1313.94>
DStem2: 200 0 399.74 0 0.207912 0.978148<225.55 1401.36> 989.982 0 1189.61 0 0.207912 0.978148<203.883 1261.04>
LayerCount: 2
Fore
SplineSet
1034 1875 m 0,0,1
 1086 1875 1086 1875 1112 1839 c 0,2,3
 1131 1814 1131 1814 1131 1780 c 0,4,5
 1131 1766 1131 1766 1128 1752 c 0,6,7
 1117 1702 1117 1702 1074.5 1666 c 128,-1,8
 1032 1630 1032 1630 982 1630 c 128,-1,9
 932 1630 932 1630 904 1666 c 0,10,11
 885 1691 885 1691 885 1725 c 0,12,13
 885 1738 885 1738 888 1752 c 0,14,15
 899 1802 899 1802 941.5 1838.5 c 128,-1,16
 984 1875 984 1875 1034 1875 c 0,0,1
438 180 m 1,17,-1
 888 180 l 2,18,19
 1028 180 1028 180 1058 320 c 2,20,-1
 1243 1190 l 2,21,22
 1248 1215 1248 1215 1248 1235 c 0,23,24
 1248 1330 1248 1330 1133 1330 c 2,25,-1
 683 1330 l 1,26,-1
 438 180 l 1,17,-1
200 0 m 1,27,-1
 506 1440 l 1,28,-1
 669 1510 l 1,29,-1
 1141 1510 l 2,30,31
 1450 1510 1450 1510 1450 1268 c 0,32,33
 1450 1219 1450 1219 1437 1160 c 2,34,-1
 1264 350 l 2,35,36
 1189 0 1189 0 860 0 c 2,37,-1
 200 0 l 1,27,-1
EndSplineSet
Validated: 1
EndChar

StartChar: uni1E0B
Encoding: 7691 7691 175
Width: 1170
Flags: W
HStem: 0 160<394.631 841.248> 940 160<542.752 991.039> 1220 245<783.711 934.42> 1510 20G<1258.83 1315>
VStem: 210 180<164.536 438.906> 736 246<1267.59 1416.76>
DStem2: 160.484 0 339.861 0 0.207912 0.978148<264.288 994.355> 809.861 0 990.484 0 0.207912 0.978148<167.611 897.678 1103.06 1481.4>
LayerCount: 2
Fore
SplineSet
885 1465 m 0,0,1
 937 1465 937 1465 963 1429 c 0,2,3
 982 1404 982 1404 982 1370 c 0,4,5
 982 1356 982 1356 979 1342 c 0,6,7
 968 1292 968 1292 925.5 1256 c 128,-1,8
 883 1220 883 1220 833 1220 c 128,-1,9
 783 1220 783 1220 755 1256 c 0,10,11
 736 1281 736 1281 736 1315 c 0,12,13
 736 1328 736 1328 739 1342 c 0,14,15
 750 1392 750 1392 792.5 1428.5 c 128,-1,16
 835 1465 835 1465 885 1465 c 0,0,1
754 160 m 2,17,18
 844 160 844 160 863 250 c 2,19,-1
 991 850 l 2,20,21
 994 866 994 866 994 879 c 0,22,23
 994 940 994 940 920 940 c 2,24,-1
 630 940 l 2,25,26
 540 940 540 940 521 850 c 2,27,-1
 393 250 l 2,28,29
 390 234 390 234 390 221 c 0,30,31
 390 160 390 160 464 160 c 2,32,-1
 754 160 l 2,17,18
460 0 m 2,33,34
 210 0 210 0 210 195 c 0,35,36
 210 234 210 234 220 280 c 2,37,-1
 334 820 l 2,38,39
 393 1100 393 1100 654 1100 c 2,40,-1
 924 1100 l 2,41,42
 997 1100 997 1100 1039 1079 c 1,43,-1
 1118 1449 l 1,44,-1
 1305 1530 l 1,45,-1
 1315 1530 l 1,46,-1
 1050 280 l 2,47,48
 991 0 991 0 730 0 c 2,49,-1
 460 0 l 2,33,34
EndSplineSet
Validated: 1
EndChar

StartChar: uni1E1E
Encoding: 7710 7710 176
Width: 1010
Flags: W
HStem: -20 21G<196 252.444> 665 180<580 1021> 1330 180<683 1163> 1630 245<892.027 1043.61>
VStem: 845 245<1676.4 1827.97>
DStem2: 196 -20 395.87 -20 0.207912 0.978148<133.566 741.761 925.936 1421.75>
LayerCount: 2
Fore
SplineSet
993 1875 m 0,0,1
 1042 1875 1042 1875 1070 1839 c 0,2,3
 1090 1813 1090 1813 1090 1779 c 0,4,5
 1090 1763 1090 1763 1088 1752 c 0,6,7
 1078 1702 1078 1702 1034.5 1666 c 128,-1,8
 991 1630 991 1630 941 1630 c 128,-1,9
 891 1630 891 1630 864 1666 c 0,10,11
 845 1692 845 1692 845 1725 c 0,12,13
 845 1739 845 1739 848 1752 c 0,14,15
 858 1802 858 1802 900.5 1838.5 c 128,-1,16
 943 1875 943 1875 993 1875 c 0,0,1
196 -20 m 1,17,-1
 506 1440 l 1,18,-1
 669 1510 l 1,19,-1
 1281 1510 l 1,20,-1
 1279 1500 l 1,21,-1
 1163 1330 l 1,22,-1
 683 1330 l 1,23,-1
 580 845 l 1,24,-1
 1140 845 l 1,25,-1
 1137 835 l 1,26,-1
 1021 665 l 1,27,-1
 541 665 l 1,28,-1
 415 70 l 1,29,-1
 206 -20 l 1,30,-1
 196 -20 l 1,17,-1
EndSplineSet
Validated: 1
EndChar

StartChar: uni1E1F
Encoding: 7711 7711 177
Width: 780
Flags: W
HStem: -20 21G<176 232.173> 740 160<551 817> 1350 160<649.752 986> 1630 245<737.711 888.42>
VStem: 690 246<1677.59 1826.76>
DStem2: 176 -20 355.783 -20 0.207912 0.978148<120.189 814.29 977.863 1433.98>
LayerCount: 2
Fore
SplineSet
839 1875 m 0,0,1
 891 1875 891 1875 917 1839 c 0,2,3
 936 1814 936 1814 936 1780 c 0,4,5
 936 1766 936 1766 933 1752 c 0,6,7
 922 1702 922 1702 879.5 1666 c 128,-1,8
 837 1630 837 1630 787 1630 c 128,-1,9
 737 1630 737 1630 709 1666 c 0,10,11
 690 1691 690 1691 690 1725 c 0,12,13
 690 1738 690 1738 693 1752 c 0,14,15
 704 1802 704 1802 746.5 1838.5 c 128,-1,16
 789 1875 789 1875 839 1875 c 0,0,1
186 -20 m 1,17,-1
 176 -20 l 1,18,-1
 441 1230 l 2,19,20
 500 1510 500 1510 761 1510 c 2,21,-1
 1091 1510 l 1,22,-1
 1089 1500 l 1,23,-1
 986 1350 l 1,24,-1
 737 1350 l 2,25,26
 647 1350 647 1350 628 1260 c 2,27,-1
 551 900 l 1,28,-1
 922 900 l 1,29,-1
 920 890 l 1,30,-1
 817 740 l 1,31,-1
 517 740 l 1,32,-1
 373 61 l 1,33,-1
 186 -20 l 1,17,-1
EndSplineSet
Validated: 1
EndChar

StartChar: uni1E40
Encoding: 7744 7744 178
Width: 2180
Flags: W
HStem: -20 21G<176 232.444 986 1042.44 1796 1852.44> 1330 180<682 1233.89 1493 2039.73> 1630 245<1384.71 1535.42>
VStem: 1337 246<1677.59 1826.76> 2058 201<1123.79 1310.43>
DStem2: 176 -20 375.87 -20 0.207912 0.978148<133.566 1401.75> 986 -20 1185.87 -20 0.207912 0.978148<133.566 1281.44> 1796 -20 1995.87 -20 0.207912 0.978148<133.566 1281.44>
LayerCount: 2
Fore
SplineSet
1486 1875 m 0,0,1
 1538 1875 1538 1875 1564 1839 c 0,2,3
 1583 1814 1583 1814 1583 1780 c 0,4,5
 1583 1766 1583 1766 1580 1752 c 0,6,7
 1569 1702 1569 1702 1526.5 1666 c 128,-1,8
 1484 1630 1484 1630 1434 1630 c 128,-1,9
 1384 1630 1384 1630 1356 1666 c 0,10,11
 1337 1691 1337 1691 1337 1725 c 0,12,13
 1337 1738 1337 1738 1340 1752 c 0,14,15
 1351 1802 1351 1802 1393.5 1838.5 c 128,-1,16
 1436 1875 1436 1875 1486 1875 c 0,0,1
186 -20 m 1,17,-1
 176 -20 l 1,18,-1
 427 1160 l 2,19,20
 501 1510 501 1510 831 1510 c 2,21,-1
 1141 1510 l 2,22,23
 1304 1510 1304 1510 1375 1434 c 1,24,25
 1478 1510 1478 1510 1641 1510 c 2,26,-1
 1951 1510 l 2,27,28
 2259 1510 2259 1510 2259 1267 c 0,29,30
 2259 1218 2259 1218 2247 1160 c 2,31,-1
 2015 70 l 1,32,-1
 1806 -20 l 1,33,-1
 1796 -20 l 1,34,-1
 2053 1190 l 2,35,36
 2058 1215 2058 1215 2058 1235 c 0,37,38
 2058 1330 2058 1330 1943 1330 c 2,39,-1
 1613 1330 l 2,40,41
 1473 1330 1473 1330 1443 1190 c 2,42,-1
 1205 70 l 1,43,-1
 996 -20 l 1,44,-1
 986 -20 l 1,45,-1
 1243 1190 l 2,46,47
 1248 1215 1248 1215 1248 1235 c 0,48,49
 1248 1330 1248 1330 1133 1330 c 2,50,-1
 803 1330 l 2,51,52
 663 1330 663 1330 633 1190 c 2,53,-1
 395 70 l 1,54,-1
 186 -20 l 1,17,-1
EndSplineSet
Validated: 1
EndChar

StartChar: uni1E41
Encoding: 7745 7745 179
Width: 1840
Flags: W
HStem: -20 21G<176 232.173 826 882.173 1476 1532.17> 940 160<562.752 1010.29 1210.12 1659.37> 1220 245<1125.71 1276.42>
VStem: 1078 246<1267.59 1416.76> 1664 180<783.658 934.279>
DStem2: 176 -20 355.783 -20 0.207912 0.978148<120.189 1014.85> 826 -20 1005.78 -20 0.207912 0.978148<120.189 918.044> 1476 -20 1655.78 -20 0.207912 0.978148<120.189 918.044>
LayerCount: 2
Fore
SplineSet
1227 1465 m 0,0,1
 1279 1465 1279 1465 1305 1429 c 0,2,3
 1324 1404 1324 1404 1324 1370 c 0,4,5
 1324 1356 1324 1356 1321 1342 c 0,6,7
 1310 1292 1310 1292 1267.5 1256 c 128,-1,8
 1225 1220 1225 1220 1175 1220 c 128,-1,9
 1125 1220 1125 1220 1097 1256 c 0,10,11
 1078 1281 1078 1281 1078 1315 c 0,12,13
 1078 1328 1078 1328 1081 1342 c 0,14,15
 1092 1392 1092 1392 1134.5 1428.5 c 128,-1,16
 1177 1465 1177 1465 1227 1465 c 0,0,1
186 -20 m 1,17,-1
 176 -20 l 1,18,-1
 354 820 l 2,19,20
 413 1100 413 1100 674 1100 c 2,21,-1
 944 1100 l 2,22,23
 1065 1100 1065 1100 1123 1047 c 1,24,25
 1203 1100 1203 1100 1324 1100 c 2,26,-1
 1594 1100 l 2,27,28
 1844 1100 1844 1100 1844 905 c 0,29,30
 1844 866 1844 866 1834 820 c 2,31,-1
 1673 61 l 1,32,-1
 1486 -20 l 1,33,-1
 1476 -20 l 1,34,-1
 1661 850 l 2,35,36
 1664 866 1664 866 1664 879 c 0,37,38
 1664 940 1664 940 1590 940 c 2,39,-1
 1300 940 l 2,40,41
 1210 940 1210 940 1191 850 c 2,42,-1
 1023 61 l 1,43,-1
 836 -20 l 1,44,-1
 826 -20 l 1,45,-1
 1011 850 l 2,46,47
 1014 866 1014 866 1014 879 c 0,48,49
 1014 940 1014 940 940 940 c 2,50,-1
 650 940 l 2,51,52
 560 940 560 940 541 850 c 2,53,-1
 373 61 l 1,54,-1
 186 -20 l 1,17,-1
EndSplineSet
Validated: 1
EndChar

StartChar: uni1E56
Encoding: 7766 7766 180
Width: 1210
Flags: W
HStem: -20 21G<196 252.444> 500 180<545 1055.06> 1330 180<683 1169.73> 1630 245<885.711 1036.42>
VStem: 838 246<1677.59 1826.76> 1188 201<1126.85 1310.43>
DStem2: 196 -20 395.87 -20 0.207912 0.978148<133.566 573.089 757.265 1421.75> 925.452 -20 1126.08 -20 0.207912 0.978148<735.688 1281.55>
LayerCount: 2
Fore
SplineSet
987 1875 m 0,0,1
 1039 1875 1039 1875 1065 1839 c 0,2,3
 1084 1814 1084 1814 1084 1780 c 0,4,5
 1084 1766 1084 1766 1081 1752 c 0,6,7
 1070 1702 1070 1702 1027.5 1666 c 128,-1,8
 985 1630 985 1630 935 1630 c 128,-1,9
 885 1630 885 1630 857 1666 c 0,10,11
 838 1691 838 1691 838 1725 c 0,12,13
 838 1738 838 1738 841 1752 c 0,14,15
 852 1802 852 1802 894.5 1838.5 c 128,-1,16
 937 1875 937 1875 987 1875 c 0,0,1
206 -20 m 1,17,-1
 196 -20 l 1,18,-1
 506 1440 l 1,19,-1
 669 1510 l 1,20,-1
 1081 1510 l 2,21,22
 1389 1510 1389 1510 1389 1267 c 0,23,24
 1389 1218 1389 1218 1377 1160 c 2,25,-1
 1311 850 l 2,26,27
 1236 500 1236 500 906 500 c 2,28,-1
 506 500 l 1,29,-1
 415 70 l 1,30,-1
 206 -20 l 1,17,-1
683 1330 m 1,31,-1
 545 680 l 1,32,-1
 935 680 l 2,33,34
 1075 680 1075 680 1104 820 c 2,35,-1
 1183 1190 l 2,36,37
 1188 1215 1188 1215 1188 1235 c 0,38,39
 1188 1330 1188 1330 1073 1330 c 2,40,-1
 683 1330 l 1,31,-1
EndSplineSet
Validated: 1
EndChar

StartChar: uni1E57
Encoding: 7767 7767 181
Width: 1170
Flags: W
HStem: -430 21G<89 145.173> 0 160<412.695 861.248> 940 160<562.752 1009.37> 1220 245<807.711 958.42>
VStem: 760 246<1267.59 1416.76> 1014 180<661.094 935.464>
DStem2: 89 -430 268.783 -430 0.207912 0.978148<120.189 498.32 703.912 1433.98> 738.462 -430 919.085 -430 0.207912 0.978148<607.218 1337.28>
LayerCount: 2
Fore
SplineSet
909 1465 m 0,0,1
 961 1465 961 1465 987 1429 c 0,2,3
 1006 1404 1006 1404 1006 1370 c 0,4,5
 1006 1356 1006 1356 1003 1342 c 0,6,7
 992 1292 992 1292 949.5 1256 c 128,-1,8
 907 1220 907 1220 857 1220 c 128,-1,9
 807 1220 807 1220 779 1256 c 0,10,11
 760 1281 760 1281 760 1315 c 0,12,13
 760 1328 760 1328 763 1342 c 0,14,15
 774 1392 774 1392 816.5 1428.5 c 128,-1,16
 859 1465 859 1465 909 1465 c 0,0,1
650 940 m 2,17,18
 560 940 560 940 541 850 c 2,19,-1
 413 250 l 2,20,21
 410 234 410 234 410 221 c 0,22,23
 410 160 410 160 484 160 c 2,24,-1
 774 160 l 2,25,26
 864 160 864 160 883 250 c 2,27,-1
 1011 850 l 2,28,29
 1014 866 1014 866 1014 879 c 0,30,31
 1014 940 1014 940 940 940 c 2,32,-1
 650 940 l 2,17,18
750 0 m 2,33,-1
 480 0 l 2,34,35
 407 0 407 0 364 21 c 1,36,-1
 286 -349 l 1,37,-1
 99 -430 l 1,38,-1
 89 -430 l 1,39,-1
 354 820 l 2,40,41
 413 1100 413 1100 674 1100 c 2,42,-1
 944 1100 l 2,43,44
 1194 1100 1194 1100 1194 905 c 0,45,46
 1194 866 1194 866 1184 820 c 2,47,-1
 1070 280 l 2,48,49
 1011 0 1011 0 750 0 c 2,33,-1
EndSplineSet
Validated: 1
EndChar

StartChar: uni1E6A
Encoding: 7786 7786 182
Width: 1070
Flags: W
HStem: -20 21G<431 487.444> 1330 180<411 718 918 1263> 1630 245<827.027 978.615>
VStem: 780 245<1676.4 1827.97>
DStem2: 431 -20 630.87 -20 0.207912 0.978148<133.566 1380.17>
LayerCount: 2
Fore
SplineSet
928 1875 m 0,0,1
 977 1875 977 1875 1005 1839 c 0,2,3
 1025 1813 1025 1813 1025 1779 c 0,4,5
 1025 1763 1025 1763 1023 1752 c 0,6,7
 1013 1702 1013 1702 969.5 1666 c 128,-1,8
 926 1630 926 1630 876 1630 c 128,-1,9
 826 1630 826 1630 799 1666 c 0,10,11
 780 1692 780 1692 780 1725 c 0,12,13
 780 1739 780 1739 783 1752 c 0,14,15
 793 1802 793 1802 835.5 1838.5 c 128,-1,16
 878 1875 878 1875 928 1875 c 0,0,1
431 -20 m 1,17,-1
 718 1330 l 1,18,-1
 293 1330 l 1,19,-1
 295 1340 l 1,20,-1
 411 1510 l 1,21,-1
 1381 1510 l 1,22,-1
 1379 1500 l 1,23,-1
 1263 1330 l 1,24,-1
 918 1330 l 1,25,-1
 650 70 l 1,26,-1
 441 -20 l 1,27,-1
 431 -20 l 1,17,-1
EndSplineSet
Validated: 1
EndChar

StartChar: uni1E6B
Encoding: 7787 7787 183
Width: 780
Flags: W
HStem: -20 21G<296 352.173> 940 160<315 500 714 899> 1510 20G<748.827 805> 1630 245<688.027 839.615>
VStem: 641 245<1676.4 1827.97>
DStem2: 296 -20 475.783 -20 0.207912 0.978148<120.189 981.436 1182.43 1501.77>
LayerCount: 2
Fore
SplineSet
789 1875 m 0,0,1
 838 1875 838 1875 866 1839 c 0,2,3
 886 1813 886 1813 886 1779 c 0,4,5
 886 1763 886 1763 884 1752 c 0,6,7
 874 1702 874 1702 830.5 1666 c 128,-1,8
 787 1630 787 1630 737 1630 c 128,-1,9
 687 1630 687 1630 660 1666 c 0,10,11
 641 1692 641 1692 641 1725 c 0,12,13
 641 1739 641 1739 644 1752 c 0,14,15
 654 1802 654 1802 696.5 1838.5 c 128,-1,16
 739 1875 739 1875 789 1875 c 0,0,1
296 -20 m 1,17,-1
 500 940 l 1,18,-1
 210 940 l 1,19,-1
 212 950 l 1,20,-1
 315 1100 l 1,21,-1
 534 1100 l 1,22,-1
 608 1449 l 1,23,-1
 795 1530 l 1,24,-1
 805 1530 l 1,25,-1
 714 1100 l 1,26,-1
 1004 1100 l 1,27,-1
 1002 1090 l 1,28,-1
 899 940 l 1,29,-1
 680 940 l 1,30,-1
 493 61 l 1,31,-1
 306 -20 l 1,32,-1
 296 -20 l 1,17,-1
EndSplineSet
Validated: 1
EndChar

StartChar: uni1E60
Encoding: 7776 7776 184
Width: 1120
Flags: W
HStem: 0 180<336.68 858.625> 754 180<579.003 957.73> 1117 21G<1004 1060.42> 1340 170<649.162 1010.94> 1630 245<864.711 1015.42>
VStem: 133 190<195.924 362> 370 196<949.117 1122.1> 817 246<1677.59 1826.76> 976 201<434.469 737.376> 1028 186<1198 1323.67>
DStem2: 152.927 0 342.714 0 0.207912 0.978148<1093.01 1389.89> 839.982 0 1039.61 0 0.207912 0.978148<203.883 672.266>
LayerCount: 2
Fore
SplineSet
966 1875 m 0,0,1
 1018 1875 1018 1875 1044 1839 c 0,2,3
 1063 1814 1063 1814 1063 1780 c 0,4,5
 1063 1766 1063 1766 1060 1752 c 0,6,7
 1049 1702 1049 1702 1006.5 1666 c 128,-1,8
 964 1630 964 1630 914 1630 c 128,-1,9
 864 1630 864 1630 836 1666 c 0,10,11
 817 1691 817 1691 817 1725 c 0,12,13
 817 1738 817 1738 820 1752 c 0,14,15
 831 1802 831 1802 873.5 1838.5 c 128,-1,16
 916 1875 916 1875 966 1875 c 0,0,1
430 0 m 2,17,18
 133 0 133 0 133 247 c 0,19,20
 133 299 133 299 146 362 c 1,21,-1
 345 448 l 1,22,-1
 355 448 l 9,23,-1
 328 320 l 2,24,25
 323 295 323 295 323 275 c 0,26,27
 323 180 323 180 438 180 c 2,28,-1
 738 180 l 2,29,30
 878 180 878 180 908 320 c 2,31,-1
 971 614 l 2,32,33
 976 639 976 639 976 659 c 0,34,35
 976 754 976 754 860 754 c 2,36,-1
 653 754 l 2,37,38
 370 754 370 754 370 976 c 0,39,40
 370 1020 370 1020 381 1073 c 2,41,-1
 410 1210 l 2,42,43
 474 1510 474 1510 754 1510 c 2,44,-1
 958 1510 l 2,45,46
 1214 1510 1214 1510 1214 1298 c 0,47,48
 1214 1253 1214 1253 1202 1198 c 1,49,-1
 1014 1117 l 1,50,-1
 1004 1117 l 1,51,-1
 1023 1205 l 2,52,53
 1028 1228 1028 1228 1028 1247 c 0,54,55
 1028 1340 1028 1340 912 1340 c 2,56,-1
 768 1340 l 2,57,58
 628 1340 628 1340 598 1200 c 2,59,-1
 571 1074 l 2,60,61
 566 1049 566 1049 566 1029 c 0,62,63
 566 934 566 934 682 934 c 2,64,-1
 869 934 l 2,65,66
 1177 934 1177 934 1177 692 c 0,67,68
 1177 643 1177 643 1164 584 c 2,69,-1
 1114 350 l 2,70,71
 1039 0 1039 0 710 0 c 2,72,-1
 430 0 l 2,17,18
EndSplineSet
Validated: 1
EndChar

StartChar: uni1E61
Encoding: 7777 7777 185
Width: 910
Flags: W
HStem: 0 160<297.246 681.965> 522 160<463.453 740.107> 950 150<499.598 786.993> 1220 245<662.711 813.42>
VStem: 120 170<167.421 289> 282 177<687.009 911.346> 615 246<1267.59 1416.76> 745 179<238.53 516.614> 793 164<851 944.656>
DStem2: 649.861 0 830.484 0 0.207912 0.978148<167.79 470.308>
LayerCount: 2
Fore
SplineSet
764 1465 m 0,0,1
 816 1465 816 1465 842 1429 c 0,2,3
 861 1404 861 1404 861 1370 c 0,4,5
 861 1356 861 1356 858 1342 c 0,6,7
 847 1292 847 1292 804.5 1256 c 128,-1,8
 762 1220 762 1220 712 1220 c 128,-1,9
 662 1220 662 1220 634 1256 c 0,10,11
 615 1281 615 1281 615 1315 c 0,12,13
 615 1328 615 1328 618 1342 c 0,14,15
 629 1392 629 1392 671.5 1428.5 c 128,-1,16
 714 1465 714 1465 764 1465 c 0,0,1
360 0 m 2,17,18
 120 0 120 0 120 197 c 0,19,20
 120 238 120 238 131 289 c 1,21,-1
 308 366 l 1,22,-1
 318 366 l 1,23,-1
 293 250 l 2,24,25
 290 234 290 234 290 221 c 0,26,27
 290 160 290 160 364 160 c 2,28,-1
 594 160 l 2,29,30
 684 160 684 160 703 250 c 2,31,-1
 742 432 l 2,32,33
 745 448 745 448 745 461 c 0,34,35
 745 522 745 522 671 522 c 2,36,-1
 519 522 l 2,37,38
 282 522 282 522 282 694 c 0,39,40
 282 725 282 725 290 762 c 2,41,-1
 311 860 l 2,42,43
 362 1100 362 1100 582 1100 c 2,44,-1
 750 1100 l 2,45,46
 957 1100 957 1100 957 929 c 0,47,48
 957 894 957 894 948 851 c 1,49,-1
 782 779 l 1,50,-1
 772 779 l 1,51,-1
 790 865 l 2,52,53
 793 879 793 879 793 891 c 0,54,55
 793 950 793 950 718 950 c 2,56,-1
 590 950 l 2,57,58
 500 950 500 950 481 860 c 2,59,-1
 462 772 l 2,60,61
 459 756 459 756 459 743 c 0,62,63
 459 682 459 682 533 682 c 2,64,-1
 675 682 l 2,65,66
 924 682 924 682 924 485 c 0,67,68
 924 447 924 447 915 402 c 2,69,-1
 890 280 l 2,70,71
 833 0 833 0 570 0 c 2,72,-1
 360 0 l 2,17,18
EndSplineSet
Validated: 1
EndChar

StartChar: Wgrave
Encoding: 7808 7808 186
Width: 2180
Flags: W
HStem: 0 180<461.27 1008 1267.11 1819> 1510 20G<648.556 705 1458.56 1515 2268.56 2325>
VStem: 242 201<199.573 386.208>
DStem2: 179.605 0 379.982 0 0.207912 0.978148<324.366 1472.24> 989.982 0 1189.98 0 0.207912 0.978148<324.288 1472.16> 1442 1937 1300 1880 0.252042 -0.967716<19.3699 321.375> 1799.98 0 1999.61 0 0.207912 0.978148<203.973 1472.16>
LayerCount: 2
Fore
SplineSet
550 0 m 2,0,1
 242 0 242 0 242 243 c 0,2,3
 242 292 242 292 254 350 c 2,4,-1
 486 1440 l 1,5,-1
 695 1530 l 1,6,-1
 705 1530 l 1,7,-1
 448 320 l 2,8,9
 443 295 443 295 443 275 c 0,10,11
 443 180 443 180 558 180 c 2,12,-1
 888 180 l 2,13,14
 1028 180 1028 180 1058 320 c 2,15,-1
 1296 1440 l 1,16,-1
 1505 1530 l 1,17,-1
 1515 1530 l 1,18,-1
 1258 320 l 2,19,20
 1253 295 1253 295 1253 275 c 0,21,22
 1253 180 1253 180 1368 180 c 2,23,-1
 1698 180 l 2,24,25
 1838 180 1838 180 1868 320 c 2,26,-1
 2106 1440 l 1,27,-1
 2315 1530 l 1,28,-1
 2325 1530 l 1,29,-1
 2074 350 l 2,30,31
 2000 0 2000 0 1670 0 c 2,32,-1
 1360 0 l 2,33,34
 1197 0 1197 0 1126 76 c 1,35,36
 1023 0 1023 0 860 0 c 2,37,-1
 550 0 l 2,0,1
1432 1937 m 1,38,-1
 1442 1937 l 1,39,-1
 1523 1626 l 1,40,-1
 1393 1570 l 1,41,-1
 1383 1570 l 1,42,-1
 1300 1880 l 1,43,-1
 1432 1937 l 1,38,-1
EndSplineSet
Validated: 1
EndChar

StartChar: wgrave
Encoding: 7809 7809 187
Width: 1840
Flags: W
HStem: 0 160<414.631 863.881 1063.71 1511.25> 1100 20G<541.827 598 1191.83 1248 1841.83 1898>
VStem: 230 180<165.721 316.342>
DStem2: 180.484 0 359.861 0 0.207912 0.978148<264.288 1062.14> 829.861 0 1009.86 0 0.207912 0.978148<264.417 1062.27> 1187 1527 1044 1470 0.261536 -0.965194<17.6163 321.098> 1479.86 0 1660.48 0 0.207912 0.978148<167.611 1062.27>
LayerCount: 2
Fore
SplineSet
480 0 m 2,0,1
 230 0 230 0 230 195 c 0,2,3
 230 234 230 234 240 280 c 2,4,-1
 401 1039 l 1,5,-1
 588 1120 l 1,6,-1
 598 1120 l 1,7,-1
 413 250 l 2,8,9
 410 234 410 234 410 221 c 0,10,11
 410 160 410 160 484 160 c 2,12,-1
 774 160 l 2,13,14
 864 160 864 160 883 250 c 2,15,-1
 1051 1039 l 1,16,-1
 1238 1120 l 1,17,-1
 1248 1120 l 1,18,-1
 1063 250 l 2,19,20
 1060 234 1060 234 1060 221 c 0,21,22
 1060 160 1060 160 1134 160 c 2,23,-1
 1424 160 l 2,24,25
 1514 160 1514 160 1533 250 c 2,26,-1
 1701 1039 l 1,27,-1
 1888 1120 l 1,28,-1
 1898 1120 l 1,29,-1
 1720 280 l 2,30,31
 1661 0 1661 0 1400 0 c 2,32,-1
 1130 0 l 2,33,34
 1009 0 1009 0 951 53 c 1,35,36
 871 0 871 0 750 0 c 2,37,-1
 480 0 l 2,0,1
1177 1527 m 1,38,-1
 1187 1527 l 1,39,-1
 1267 1216 l 1,40,-1
 1138 1160 l 1,41,-1
 1128 1160 l 1,42,-1
 1044 1470 l 1,43,-1
 1177 1527 l 1,38,-1
EndSplineSet
Validated: 1
EndChar

StartChar: Wacute
Encoding: 7810 7810 188
Width: 2180
Flags: W
HStem: 0 180<461.27 1008 1267.11 1819> 1510 20G<648.556 705 1458.56 1515 2268.56 2325>
VStem: 242 201<199.573 386.208>
DStem2: 179.605 0 379.982 0 0.207912 0.978148<324.366 1472.24> 989.982 0 1189.98 0 0.207912 0.978148<324.288 1472.16> 1319 1634 1442 1570 0.550881 0.834584<14.3449 363.055> 1799.98 0 1999.61 0 0.207912 0.978148<203.973 1472.16>
LayerCount: 2
Fore
SplineSet
1529 1937 m 1,0,-1
 1642 1873 l 1,1,-1
 1442 1570 l 1,2,-1
 1432 1570 l 1,3,-1
 1319 1634 l 1,4,-1
 1519 1937 l 1,5,-1
 1529 1937 l 1,0,-1
550 0 m 2,6,7
 242 0 242 0 242 243 c 0,8,9
 242 292 242 292 254 350 c 2,10,-1
 486 1440 l 1,11,-1
 695 1530 l 1,12,-1
 705 1530 l 1,13,-1
 448 320 l 2,14,15
 443 295 443 295 443 275 c 0,16,17
 443 180 443 180 558 180 c 2,18,-1
 888 180 l 2,19,20
 1028 180 1028 180 1058 320 c 2,21,-1
 1296 1440 l 1,22,-1
 1505 1530 l 1,23,-1
 1515 1530 l 1,24,-1
 1258 320 l 2,25,26
 1253 295 1253 295 1253 275 c 0,27,28
 1253 180 1253 180 1368 180 c 2,29,-1
 1698 180 l 2,30,31
 1838 180 1838 180 1868 320 c 2,32,-1
 2106 1440 l 1,33,-1
 2315 1530 l 1,34,-1
 2325 1530 l 1,35,-1
 2074 350 l 2,36,37
 2000 0 2000 0 1670 0 c 2,38,-1
 1360 0 l 2,39,40
 1197 0 1197 0 1126 76 c 1,41,42
 1023 0 1023 0 860 0 c 2,43,-1
 550 0 l 2,6,7
EndSplineSet
Validated: 1
EndChar

StartChar: wacute
Encoding: 7811 7811 189
Width: 1840
Flags: W
HStem: 0 160<414.631 863.881 1063.71 1511.25> 1100 20G<541.827 598 1191.83 1248 1841.83 1898>
VStem: 230 180<165.721 316.342>
DStem2: 180.484 0 359.861 0 0.207912 0.978148<264.288 1062.14> 829.861 0 1009.86 0 0.207912 0.978148<264.417 1062.27> 1054 1224 1177 1160 0.550881 0.834584<14.3449 363.055> 1479.86 0 1660.48 0 0.207912 0.978148<167.611 1062.27>
LayerCount: 2
Fore
SplineSet
1264 1527 m 1,0,-1
 1377 1463 l 1,1,-1
 1177 1160 l 1,2,-1
 1167 1160 l 1,3,-1
 1054 1224 l 1,4,-1
 1254 1527 l 1,5,-1
 1264 1527 l 1,0,-1
480 0 m 2,6,7
 230 0 230 0 230 195 c 0,8,9
 230 234 230 234 240 280 c 2,10,-1
 401 1039 l 1,11,-1
 588 1120 l 1,12,-1
 598 1120 l 1,13,-1
 413 250 l 2,14,15
 410 234 410 234 410 221 c 0,16,17
 410 160 410 160 484 160 c 2,18,-1
 774 160 l 2,19,20
 864 160 864 160 883 250 c 2,21,-1
 1051 1039 l 1,22,-1
 1238 1120 l 1,23,-1
 1248 1120 l 1,24,-1
 1063 250 l 2,25,26
 1060 234 1060 234 1060 221 c 0,27,28
 1060 160 1060 160 1134 160 c 2,29,-1
 1424 160 l 2,30,31
 1514 160 1514 160 1533 250 c 2,32,-1
 1701 1039 l 1,33,-1
 1888 1120 l 1,34,-1
 1898 1120 l 1,35,-1
 1720 280 l 2,36,37
 1661 0 1661 0 1400 0 c 2,38,-1
 1130 0 l 2,39,40
 1009 0 1009 0 951 53 c 1,41,42
 871 0 871 0 750 0 c 2,43,-1
 480 0 l 2,6,7
EndSplineSet
Validated: 1
EndChar

StartChar: Wdieresis
Encoding: 7812 7812 190
Width: 2180
Flags: W
HStem: 0 180<461.27 1008 1267.11 1819> 1510 20G<648.556 705 1458.56 1515 2268.56 2325> 1640 227<1243.23 1389.64 1519.14 1665.57>
VStem: 242 201<199.573 386.208> 1202 229<1681.58 1825.8> 1479 229<1682.58 1826.8>
DStem2: 179.605 0 379.982 0 0.207912 0.978148<324.366 1472.24> 989.982 0 1189.98 0 0.207912 0.978148<324.288 1472.16> 1799.98 0 1999.61 0 0.207912 0.978148<203.973 1472.16>
LayerCount: 2
Fore
SplineSet
1618 1868 m 128,-1,1
 1664 1868 1664 1868 1690 1835 c 0,2,3
 1708 1812 1708 1812 1708 1779 c 0,4,5
 1708 1767 1708 1767 1706 1755 c 0,6,7
 1696 1709 1696 1709 1655.5 1675 c 128,-1,8
 1615 1641 1615 1641 1569 1641 c 0,9,10
 1524 1641 1524 1641 1498 1675 c 0,11,12
 1479 1699 1479 1699 1479 1730 c 0,13,14
 1480 1743 1480 1743 1482 1755 c 0,15,16
 1492 1801 1492 1801 1532 1834.5 c 128,-1,0
 1572 1868 1572 1868 1618 1868 c 128,-1,1
1341 1867 m 128,-1,18
 1387 1867 1387 1867 1413 1834 c 0,19,20
 1431 1811 1431 1811 1431 1778 c 0,21,22
 1431 1766 1431 1766 1429 1754 c 0,23,24
 1419 1708 1419 1708 1378.5 1674 c 128,-1,25
 1338 1640 1338 1640 1292 1640 c 0,26,27
 1247 1640 1247 1640 1221 1674 c 0,28,29
 1202 1698 1202 1698 1202 1729 c 0,30,31
 1203 1742 1203 1742 1205 1754 c 0,32,33
 1215 1800 1215 1800 1255 1833.5 c 128,-1,17
 1295 1867 1295 1867 1341 1867 c 128,-1,18
550 0 m 2,34,35
 242 0 242 0 242 243 c 0,36,37
 242 292 242 292 254 350 c 2,38,-1
 486 1440 l 1,39,-1
 695 1530 l 1,40,-1
 705 1530 l 1,41,-1
 448 320 l 2,42,43
 443 295 443 295 443 275 c 0,44,45
 443 180 443 180 558 180 c 2,46,-1
 888 180 l 2,47,48
 1028 180 1028 180 1058 320 c 2,49,-1
 1296 1440 l 1,50,-1
 1505 1530 l 1,51,-1
 1515 1530 l 1,52,-1
 1258 320 l 2,53,54
 1253 295 1253 295 1253 275 c 0,55,56
 1253 180 1253 180 1368 180 c 2,57,-1
 1698 180 l 2,58,59
 1838 180 1838 180 1868 320 c 2,60,-1
 2106 1440 l 1,61,-1
 2315 1530 l 1,62,-1
 2325 1530 l 1,63,-1
 2074 350 l 2,64,65
 2000 0 2000 0 1670 0 c 2,66,-1
 1360 0 l 2,67,68
 1197 0 1197 0 1126 76 c 1,69,70
 1023 0 1023 0 860 0 c 2,71,-1
 550 0 l 2,34,35
EndSplineSet
Validated: 1
EndChar

StartChar: wdieresis
Encoding: 7813 7813 191
Width: 1840
Flags: W
HStem: 0 160<414.631 863.881 1063.71 1511.25> 1100 20G<541.827 598 1191.83 1248 1841.83 1898> 1230 227<993.232 1139.64 1269.14 1415.57>
VStem: 230 180<165.721 316.342> 952 229<1271.58 1415.8> 1229 229<1272.58 1416.8>
DStem2: 180.484 0 359.861 0 0.207912 0.978148<264.288 1062.14> 829.861 0 1009.86 0 0.207912 0.978148<264.417 1062.27> 1479.86 0 1660.48 0 0.207912 0.978148<167.611 1062.27>
LayerCount: 2
Fore
SplineSet
1368 1458 m 128,-1,1
 1414 1458 1414 1458 1440 1425 c 0,2,3
 1458 1402 1458 1402 1458 1369 c 0,4,5
 1458 1357 1458 1357 1456 1345 c 0,6,7
 1446 1299 1446 1299 1405.5 1265 c 128,-1,8
 1365 1231 1365 1231 1319 1231 c 0,9,10
 1274 1231 1274 1231 1248 1265 c 0,11,12
 1229 1289 1229 1289 1229 1320 c 0,13,14
 1230 1333 1230 1333 1232 1345 c 0,15,16
 1242 1391 1242 1391 1282 1424.5 c 128,-1,0
 1322 1458 1322 1458 1368 1458 c 128,-1,1
1091 1457 m 128,-1,18
 1137 1457 1137 1457 1163 1424 c 0,19,20
 1181 1401 1181 1401 1181 1368 c 0,21,22
 1181 1356 1181 1356 1179 1344 c 0,23,24
 1169 1298 1169 1298 1128.5 1264 c 128,-1,25
 1088 1230 1088 1230 1042 1230 c 0,26,27
 997 1230 997 1230 971 1264 c 0,28,29
 952 1288 952 1288 952 1319 c 0,30,31
 953 1332 953 1332 955 1344 c 0,32,33
 965 1390 965 1390 1005 1423.5 c 128,-1,17
 1045 1457 1045 1457 1091 1457 c 128,-1,18
480 0 m 2,34,35
 230 0 230 0 230 195 c 0,36,37
 230 234 230 234 240 280 c 2,38,-1
 401 1039 l 1,39,-1
 588 1120 l 1,40,-1
 598 1120 l 1,41,-1
 413 250 l 2,42,43
 410 234 410 234 410 221 c 0,44,45
 410 160 410 160 484 160 c 2,46,-1
 774 160 l 2,47,48
 864 160 864 160 883 250 c 2,49,-1
 1051 1039 l 1,50,-1
 1238 1120 l 1,51,-1
 1248 1120 l 1,52,-1
 1063 250 l 2,53,54
 1060 234 1060 234 1060 221 c 0,55,56
 1060 160 1060 160 1134 160 c 2,57,-1
 1424 160 l 2,58,59
 1514 160 1514 160 1533 250 c 2,60,-1
 1701 1039 l 1,61,-1
 1888 1120 l 1,62,-1
 1898 1120 l 1,63,-1
 1720 280 l 2,64,65
 1661 0 1661 0 1400 0 c 2,66,-1
 1130 0 l 2,67,68
 1009 0 1009 0 951 53 c 1,69,70
 871 0 871 0 750 0 c 2,71,-1
 480 0 l 2,34,35
EndSplineSet
Validated: 1
EndChar

StartChar: Ygrave
Encoding: 7922 7922 192
Width: 1210
Flags: W
HStem: -20 21G<501 557.444> 450 180<497.27 601 801 1005> 1510 20G<588.556 645 1358.56 1415>
VStem: 278 201<649.573 835.635>
DStem2: 115.704 -20 316.08 -20 0.207912 0.978148<804.866 1492.61> 501 -20 700.87 -20 0.207912 0.978148<133.566 480.521> 1004 1937 862 1880 0.252042 -0.967716<19.3699 321.375> 886.08 -20 1085.7 -20 0.207912 0.978148<684.473 1492.53>
LayerCount: 2
Fore
SplineSet
511 -20 m 1,0,-1
 501 -20 l 1,1,-1
 601 450 l 1,2,-1
 586 450 l 2,3,4
 278 450 278 450 278 693 c 0,5,6
 278 742 278 742 290 800 c 2,7,-1
 426 1440 l 1,8,-1
 635 1530 l 1,9,-1
 645 1530 l 1,10,-1
 484 770 l 2,11,12
 479 745 479 745 479 725 c 0,13,14
 479 630 479 630 594 630 c 2,15,-1
 884 630 l 2,16,17
 1024 630 1024 630 1054 770 c 2,18,-1
 1196 1440 l 1,19,-1
 1405 1530 l 1,20,-1
 1415 1530 l 1,21,-1
 1260 800 l 2,22,23
 1186 450 1186 450 856 450 c 2,24,-1
 801 450 l 1,25,-1
 720 70 l 1,26,-1
 511 -20 l 1,0,-1
994 1937 m 1,27,-1
 1004 1937 l 1,28,-1
 1085 1626 l 1,29,-1
 955 1570 l 1,30,-1
 945 1570 l 1,31,-1
 862 1880 l 1,32,-1
 994 1937 l 1,27,-1
EndSplineSet
Validated: 1
EndChar

StartChar: ygrave
Encoding: 7923 7923 193
Width: 1210
Flags: W
HStem: -410 160<338 773.475> 0 160<414.631 832.437> 1100 20G<541.827 598 1191.83 1248>
VStem: 230 180<165.721 316.342>
DStem2: 93.336 -410 272.713 -410 0.207912 0.978148<683.448 1481.3> 870 1527 727 1470 0.261536 -0.965194<17.6163 321.098> 742.861 -410 922.484 -410 0.207912 0.978148<167.334 440.531 581.586 1481.4>
LayerCount: 2
Fore
SplineSet
480 0 m 2,0,1
 230 0 230 0 230 195 c 0,2,3
 230 234 230 234 240 280 c 2,4,-1
 401 1039 l 1,5,-1
 588 1120 l 1,6,-1
 598 1120 l 1,7,-1
 413 250 l 2,8,9
 410 234 410 234 410 221 c 0,10,11
 410 160 410 160 484 160 c 2,12,-1
 774 160 l 2,13,14
 864 160 864 160 883 250 c 2,15,-1
 1051 1039 l 1,16,-1
 1238 1120 l 1,17,-1
 1248 1120 l 1,18,-1
 982 -130 l 2,19,20
 922 -410 922 -410 663 -410 c 2,21,-1
 233 -410 l 1,22,-1
 235 -400 l 1,23,-1
 338 -250 l 1,24,-1
 687 -250 l 2,25,26
 777 -250 777 -250 796 -160 c 2,27,-1
 834 21 l 1,28,29
 784 0 784 0 730 0 c 2,30,-1
 480 0 l 2,0,1
860 1527 m 1,31,-1
 870 1527 l 1,32,-1
 950 1216 l 1,33,-1
 821 1160 l 1,34,-1
 811 1160 l 1,35,-1
 727 1470 l 1,36,-1
 860 1527 l 1,31,-1
EndSplineSet
Validated: 1
EndChar

StartChar: AE
Encoding: 198 198 194
Width: 1688
Flags: W
HStem: -20 21G<176 232.444> 0 180<1066 1558> 665 180<560 969 1208 1649> 1330 180<682 1111 1311 1791>
DStem2: 176 -20 375.87 -20 0.207912 0.978148<133.566 741.761 925.936 1401.75> 823.749 -20 1023.49 -20 0.207912 0.978148<245.996 700.231 925.988 1380.22>
LayerCount: 2
Fore
SplineSet
1558 0 m 1,0,-1
 828 0 l 1,1,-1
 969 665 l 1,2,-1
 521 665 l 1,3,-1
 395 70 l 1,4,-1
 186 -20 l 1,5,-1
 176 -20 l 1,6,-1
 427 1160 l 2,7,8
 501 1510 501 1510 831 1510 c 2,9,-1
 1909 1510 l 1,10,-1
 1907 1500 l 1,11,-1
 1791 1330 l 1,12,-1
 1311 1330 l 1,13,-1
 1208 845 l 1,14,-1
 1768 845 l 1,15,-1
 1765 835 l 1,16,-1
 1649 665 l 1,17,-1
 1169 665 l 1,18,-1
 1066 180 l 1,19,-1
 1676 180 l 1,20,-1
 1674 170 l 1,21,-1
 1558 0 l 1,0,-1
1111 1330 m 9,22,-1
 803 1330 l 2,23,24
 663 1330 663 1330 633 1190 c 2,25,26
 560 845 l 1,27,-1
 1008 845 l 1,28,-1
 1111 1330 l 9,22,-1
EndSplineSet
Validated: 1
EndChar

StartChar: Eth
Encoding: 208 208 195
Width: 1350
Flags: W
HStem: 0 180<438 1008.62> 695 120<265 348 573 826> 1330 180<683 1230.02>
VStem: 1248 202<1124.36 1311.25>
DStem2: 200 0 399.74 0 0.207912 0.978148<225.55 710.584 874.741 1401.36> 989.982 0 1189.61 0 0.207912 0.978148<203.883 1261.04>
CounterMasks: 1 e0
LayerCount: 2
Fore
SplineSet
200 0 m 1,0,-1
 348 695 l 1,1,-1
 188 695 l 1,2,-1
 190 705 l 1,3,-1
 265 815 l 1,4,-1
 373 815 l 1,5,-1
 506 1440 l 1,6,-1
 669 1510 l 1,7,-1
 1141 1510 l 2,8,9
 1450 1510 1450 1510 1450 1268 c 0,10,11
 1450 1219 1450 1219 1437 1160 c 2,12,-1
 1264 350 l 2,13,14
 1189 0 1189 0 860 0 c 2,15,-1
 200 0 l 1,0,-1
438 180 m 1,16,-1
 888 180 l 2,17,18
 1028 180 1028 180 1058 320 c 2,19,-1
 1243 1190 l 2,20,21
 1248 1215 1248 1215 1248 1235 c 0,22,23
 1248 1330 1248 1330 1133 1330 c 2,24,-1
 683 1330 l 1,25,-1
 573 815 l 1,26,-1
 903 815 l 1,27,-1
 901 805 l 1,28,-1
 826 695 l 1,29,-1
 548 695 l 1,30,-1
 438 180 l 1,16,-1
EndSplineSet
Validated: 1
EndChar

StartChar: Dcroat
Encoding: 272 272 196
Width: 1350
Flags: W
HStem: 0 180<438 1008.62> 695 120<265 348 573 826> 1330 180<683 1230.02>
VStem: 1248 202<1124.36 1311.25>
DStem2: 200 0 399.74 0 0.207912 0.978148<225.55 710.584 874.741 1401.36> 989.982 0 1189.61 0 0.207912 0.978148<203.883 1261.04>
CounterMasks: 1 e0
LayerCount: 2
Fore
SplineSet
200 0 m 1,0,-1
 348 695 l 1,1,-1
 188 695 l 1,2,-1
 190 705 l 1,3,-1
 265 815 l 1,4,-1
 373 815 l 1,5,-1
 506 1440 l 1,6,-1
 669 1510 l 1,7,-1
 1141 1510 l 2,8,9
 1450 1510 1450 1510 1450 1268 c 0,10,11
 1450 1219 1450 1219 1437 1160 c 2,12,-1
 1264 350 l 2,13,14
 1189 0 1189 0 860 0 c 2,15,-1
 200 0 l 1,0,-1
438 180 m 1,16,-1
 888 180 l 2,17,18
 1028 180 1028 180 1058 320 c 2,19,-1
 1243 1190 l 2,20,21
 1248 1215 1248 1215 1248 1235 c 0,22,23
 1248 1330 1248 1330 1133 1330 c 2,24,-1
 683 1330 l 1,25,-1
 573 815 l 1,26,-1
 903 815 l 1,27,-1
 901 805 l 1,28,-1
 826 695 l 1,29,-1
 548 695 l 1,30,-1
 438 180 l 1,16,-1
EndSplineSet
Validated: 1
EndChar

StartChar: Hbar
Encoding: 294 294 197
Width: 1400
Flags: W
HStem: -20 21G<196 252.444 996 1052.44> 665 180<580 1141> 1250 120<383 466 691 1266 1491 1574> 1510 20G<668.556 725 1468.56 1525>
DStem2: 196 -20 395.87 -20 0.207912 0.978148<133.566 741.761 925.936 1298.38 1462.54 1492.55> 996 -20 1195.87 -20 0.207912 0.978148<133.566 700.178 884.353 1298.38 1462.54 1492.55>
LayerCount: 2
Fore
SplineSet
206 -20 m 1,0,-1
 196 -20 l 1,1,-1
 466 1250 l 1,2,-1
 306 1250 l 1,3,-1
 308 1260 l 1,4,-1
 383 1370 l 1,5,-1
 491 1370 l 1,6,-1
 506 1440 l 1,7,-1
 715 1530 l 1,8,-1
 725 1530 l 1,9,-1
 691 1370 l 1,10,-1
 1291 1370 l 1,11,-1
 1306 1440 l 1,12,-1
 1515 1530 l 1,13,-1
 1525 1530 l 1,14,-1
 1491 1370 l 1,15,-1
 1651 1370 l 1,16,-1
 1649 1360 l 1,17,-1
 1574 1250 l 1,18,-1
 1466 1250 l 1,19,-1
 1215 70 l 1,20,-1
 1006 -20 l 1,21,-1
 996 -20 l 1,22,-1
 1141 665 l 1,23,-1
 541 665 l 1,24,-1
 415 70 l 1,25,-1
 206 -20 l 1,0,-1
666 1250 m 1,26,-1
 580 845 l 1,27,-1
 1180 845 l 1,28,-1
 1266 1250 l 1,29,-1
 666 1250 l 1,26,-1
EndSplineSet
Validated: 1
EndChar

StartChar: IJ
Encoding: 306 306 198
Width: 1660
Flags: W
HStem: -20 21G<196 252.444> 0 180<816.68 1318.62> 1330 180<1036 1583> 1510 20G<668.556 725>
VStem: 613 190<198.303 362>
DStem2: 196 -20 395.87 -20 0.207912 0.978148<133.566 1492.55> 1295.73 -20 1495.35 -20 0.207912 0.978148<224.33 1380.23>
LayerCount: 2
Fore
SplineSet
910 0 m 2,0,1
 613 0 613 0 613 250 c 0,2,3
 613 301 613 301 626 362 c 1,4,-1
 825 448 l 1,5,-1
 835 448 l 9,6,-1
 808 320 l 2,7,8
 803 296 803 296 803 275 c 0,9,10
 803 180 803 180 918 180 c 2,11,-1
 1198 180 l 2,12,13
 1338 180 1338 180 1368 320 c 2,14,-1
 1583 1330 l 1,15,-1
 918 1330 l 1,16,-1
 920 1340 l 1,17,-1
 1036 1510 l 1,18,-1
 1821 1510 l 1,19,-1
 1574 350 l 2,20,21
 1499 0 1499 0 1170 0 c 2,22,-1
 910 0 l 2,0,1
196 -20 m 1,23,-1
 506 1440 l 1,24,-1
 715 1530 l 1,25,-1
 725 1530 l 1,26,-1
 415 70 l 1,27,-1
 206 -20 l 1,28,-1
 196 -20 l 1,23,-1
EndSplineSet
Validated: 1
EndChar

StartChar: lslash
Encoding: 322 322 199
Width: 684
Flags: W
HStem: -20 21G<248 304.173> 1510 20G<700.827 757>
VStem: 173 659
DStem2: 196 685 173 555 0.920487 0.390773<0 163.725 455.242 618.576> 248 -20 427.783 -20 0.207912 0.978148<120.189 681.948 940.008 1501.77>
LayerCount: 2
Fore
SplineSet
258 -20 m 1,0,-1
 248 -20 l 1,1,-1
 390 647 l 1,2,-1
 173 555 l 1,3,-1
 170 564 l 1,4,-1
 196 685 l 1,5,-1
 418 779 l 1,6,-1
 560 1449 l 1,7,-1
 747 1530 l 1,8,-1
 757 1530 l 1,9,-1
 615 863 l 1,10,-1
 832 955 l 1,11,-1
 835 946 l 1,12,-1
 809 824 l 1,13,-1
 587 730 l 1,14,-1
 445 61 l 1,15,-1
 258 -20 l 1,0,-1
EndSplineSet
Validated: 1
EndChar

StartChar: Lslash
Encoding: 321 321 200
Width: 1020
Flags: W
HStem: 0 180<438 930> 1510 20G<668.556 725>
DStem2: 200 0 399.74 0 0.207912 0.978148<225.55 603.096 739.219 739.804 875.72 1472.15> 266 686 325 590 0.921007 0.389546<0 16.9431 333.39 618.335>
LayerCount: 2
Fore
SplineSet
200 0 m 1,0,-1
 325 590 l 1,1,-1
 243 555 l 1,2,-1
 240 564 l 1,3,-1
 266 686 l 1,4,-1
 354 723 l 1,5,-1
 506 1440 l 1,6,-1
 715 1530 l 1,7,-1
 725 1530 l 1,8,-1
 573 816 l 1,9,-1
 902 955 l 1,10,-1
 905 946 l 1,11,-1
 879 824 l 1,12,-1
 545 683 l 1,13,-1
 438 180 l 1,14,-1
 1048 180 l 1,15,-1
 1046 170 l 1,16,-1
 930 0 l 1,17,-1
 200 0 l 1,0,-1
EndSplineSet
Validated: 1
EndChar

StartChar: Eng
Encoding: 330 330 201
Width: 1370
Flags: W
HStem: -410 180<807 921.625> -20 21G<176 232.444> 1330 180<682 1229.73>
VStem: 1248 201<1123.75 1310.43>
DStem2: 93.1029 -410 292.973 -410 0.207912 0.978148<532.279 1800.46> 902.982 -410 1102.61 -410 0.207912 0.978148<203.883 1680.17>
LayerCount: 2
Fore
SplineSet
186 -20 m 1,0,-1
 176 -20 l 1,1,-1
 427 1160 l 2,2,3
 501 1510 501 1510 831 1510 c 2,4,-1
 1141 1510 l 2,5,6
 1449 1510 1449 1510 1449 1267 c 0,7,8
 1449 1218 1449 1218 1437 1160 c 2,9,-1
 1177 -60 l 2,10,11
 1102 -410 1102 -410 773 -410 c 2,12,-1
 688 -410 l 1,13,-1
 690 -400 l 1,14,-1
 807 -230 l 1,15,16
 941 -230 941 -230 971 -90 c 2,17,-1
 1243 1190 l 2,18,19
 1248 1215 1248 1215 1248 1235 c 0,20,21
 1248 1330 1248 1330 1133 1330 c 2,22,-1
 803 1330 l 2,23,24
 663 1330 663 1330 633 1190 c 2,25,-1
 395 70 l 1,26,-1
 186 -20 l 1,0,-1
EndSplineSet
Validated: 1
EndChar

StartChar: OE
Encoding: 338 338 202
Width: 1674
Flags: W
HStem: 0 180<440.981 852 1052 1544> 665 180<1194 1635> 1330 180<662.375 1097 1297 1777>
VStem: 221 202<196.056 492.969>
DStem2: 159.605 0 359.982 0 0.207912 0.978148<324.366 1381.53> 813.74 0 1013.74 0 0.207912 0.978148<225.604 721.42 905.595 1359.83>
CounterMasks: 1 e0
LayerCount: 2
Fore
SplineSet
852 180 m 17,0,-1
 1097 1330 l 1,1,-1
 783 1330 l 2,2,3
 643 1330 643 1330 613 1190 c 2,4,5
 428 320 l 2,6,7
 423 295 423 295 423 275 c 0,8,9
 423 180 423 180 538 180 c 2,10,-1
 852 180 l 17,0,-1
1544 0 m 1,11,-1
 530 0 l 2,12,13
 221 0 221 0 221 242 c 0,14,15
 221 291 221 291 234 350 c 2,16,-1
 407 1160 l 2,17,18
 482 1510 482 1510 811 1510 c 2,19,-1
 1895 1510 l 1,20,-1
 1893 1500 l 1,21,-1
 1777 1330 l 1,22,-1
 1297 1330 l 1,23,-1
 1194 845 l 1,24,-1
 1754 845 l 1,25,-1
 1751 835 l 1,26,-1
 1635 665 l 1,27,-1
 1155 665 l 1,28,-1
 1052 180 l 1,29,-1
 1662 180 l 1,30,-1
 1660 170 l 1,31,-1
 1544 0 l 1,11,-1
EndSplineSet
Validated: 1
EndChar

StartChar: Thorn
Encoding: 222 222 203
Width: 1210
Flags: W
HStem: -20 21G<196 252.444> 250 180<491 1002.81> 1080 180<668 1116.44> 1510 20G<668.556 725>
VStem: 1135 200<876.853 1060.43>
DStem2: 196 -20 395.87 -20 0.207912 0.978148<133.566 317.533 501.5 1166.2 1350.16 1492.55> 925.592 -20 1126.21 -20 0.207912 0.978148<480.281 1025.96>
LayerCount: 2
Fore
SplineSet
206 -20 m 1,0,-1
 196 -20 l 1,1,-1
 506 1440 l 1,2,-1
 715 1530 l 1,3,-1
 725 1530 l 1,4,-1
 668 1260 l 1,5,-1
 1028 1260 l 2,6,7
 1335 1260 1335 1260 1335 1017 c 0,8,9
 1335 969 1335 969 1323 910 c 2,10,-1
 1258 600 l 2,11,12
 1185 250 1185 250 853 250 c 2,13,-1
 453 250 l 1,14,-1
 415 70 l 1,15,-1
 206 -20 l 1,0,-1
491 430 m 1,16,-1
 881 430 l 2,17,18
 1021 430 1021 430 1051 570 c 2,19,-1
 1130 940 l 2,20,21
 1135 965 1135 965 1135 985 c 0,22,23
 1135 1080 1135 1080 1020 1080 c 2,24,-1
 630 1080 l 1,25,-1
 491 430 l 1,16,-1
EndSplineSet
Validated: 1
EndChar

StartChar: Tbar
Encoding: 358 358 204
Width: 1070
Flags: W
HStem: -20 21G<431 487.444> 460 120<415 533 758 876> 1330 180<411 718 918 1263>
DStem2: 431 -20 630.87 -20 0.207912 0.978148<133.566 490.718 654.876 1380.17>
LayerCount: 2
Fore
SplineSet
441 -20 m 1,0,-1
 431 -20 l 1,1,-1
 533 460 l 1,2,-1
 338 460 l 1,3,-1
 340 470 l 1,4,-1
 415 580 l 1,5,-1
 558 580 l 1,6,-1
 718 1330 l 1,7,-1
 293 1330 l 1,8,-1
 295 1340 l 1,9,-1
 411 1510 l 1,10,-1
 1381 1510 l 1,11,-1
 1379 1500 l 1,12,-1
 1263 1330 l 1,13,-1
 918 1330 l 1,14,-1
 758 580 l 1,15,-1
 953 580 l 1,16,-1
 951 570 l 1,17,-1
 876 460 l 1,18,-1
 733 460 l 1,19,-1
 650 70 l 1,20,-1
 441 -20 l 1,0,-1
EndSplineSet
Validated: 1
EndChar

StartChar: tbar
Encoding: 359 359 205
Width: 780
Flags: W
HStem: -20 21G<296 352.173> 460 120<275 398 603 726> 940 160<315 500 714 899> 1510 20G<748.827 805>
DStem2: 296 -20 475.783 -20 0.207912 0.978148<120.189 490.718 650.717 981.436 1182.43 1501.77>
LayerCount: 2
Fore
SplineSet
306 -20 m 1,0,-1
 296 -20 l 1,1,-1
 398 460 l 1,2,-1
 198 460 l 1,3,-1
 200 470 l 1,4,-1
 275 580 l 1,5,-1
 423 580 l 1,6,-1
 500 940 l 1,7,-1
 210 940 l 1,8,-1
 212 950 l 1,9,-1
 315 1100 l 1,10,-1
 534 1100 l 1,11,-1
 608 1449 l 1,12,-1
 795 1530 l 1,13,-1
 805 1530 l 1,14,-1
 714 1100 l 1,15,-1
 1004 1100 l 1,16,-1
 1002 1090 l 1,17,-1
 899 940 l 1,18,-1
 680 940 l 1,19,-1
 603 580 l 1,20,-1
 803 580 l 1,21,-1
 801 570 l 1,22,-1
 726 460 l 1,23,-1
 578 460 l 1,24,-1
 493 61 l 1,25,-1
 306 -20 l 1,0,-1
EndSplineSet
Validated: 1
EndChar

StartChar: thorn
Encoding: 254 254 206
Width: 1190
Flags: W
HStem: -430 21G<109 165.173> 0 160<432.695 881.248> 940 160<610.594 1029.37> 1510 20G<648.827 705>
VStem: 1034 180<784.339 934.279>
DStem2: 109 -430 288.783 -430 0.207912 0.978148<120.189 498.32 703.912 1439.13 1579.98 1920.9> 758.462 -430 939.085 -430 0.207912 0.978148<607.218 1337.28>
LayerCount: 2
Fore
SplineSet
770 0 m 2,0,-1
 500 0 l 2,1,2
 427 0 427 0 384 21 c 1,3,-1
 306 -349 l 1,4,-1
 119 -430 l 1,5,-1
 109 -430 l 1,6,-1
 508 1449 l 1,7,-1
 695 1530 l 1,8,-1
 705 1530 l 1,9,-1
 609 1079 l 1,10,11
 660 1100 660 1100 714 1100 c 2,12,-1
 964 1100 l 2,13,14
 1214 1100 1214 1100 1214 905 c 0,15,16
 1214 866 1214 866 1204 820 c 2,17,-1
 1090 280 l 2,18,19
 1031 0 1031 0 770 0 c 2,0,-1
670 940 m 2,20,21
 580 940 580 940 561 850 c 2,22,-1
 433 250 l 2,23,24
 430 234 430 234 430 221 c 0,25,26
 430 160 430 160 504 160 c 2,27,-1
 794 160 l 2,28,29
 884 160 884 160 903 250 c 2,30,-1
 1031 850 l 2,31,32
 1034 866 1034 866 1034 879 c 0,33,34
 1034 940 1034 940 960 940 c 2,35,-1
 670 940 l 2,20,21
EndSplineSet
Validated: 1
EndChar

StartChar: eth
Encoding: 240 240 207
Width: 1150
Flags: W
HStem: 0 160<394.631 841.248> 940 160<542.752 900> 1510 20G<744.522 812.814>
VStem: 210 180<165.721 315.661> 994 180<784.339 936.649>
DStem2: 160.484 0 339.861 0 0.207912 0.978148<264.288 994.355> 573 1309 551 1180 0.920314 0.391181<0 148.771 339.758 458.067> 799 1530 640 1463 0.562265 -0.826957<0 84.7524 230.216 412.38> 809.861 0 990.484 0 0.207912 0.978148<167.611 897.678>
LayerCount: 2
Fore
SplineSet
460 0 m 2,0,1
 210 0 210 0 210 195 c 0,2,3
 210 234 210 234 220 280 c 2,4,-1
 334 820 l 2,5,6
 393 1100 393 1100 654 1100 c 2,7,-1
 900 1100 l 1,8,-1
 775 1275 l 1,9,-1
 551 1180 l 1,10,-1
 548 1189 l 1,11,-1
 573 1309 l 1,12,-1
 710 1367 l 1,13,-1
 640 1463 l 1,14,-1
 789 1530 l 1,15,-1
 799 1530 l 1,16,-1
 866 1433 l 1,17,-1
 1060 1516 l 1,18,-1
 1063 1507 l 1,19,-1
 1038 1386 l 1,20,-1
 929 1340 l 1,21,-1
 1141 1027 l 2,22,23
 1174 979 1174 979 1174 906 c 0,24,25
 1174 866 1174 866 1164 820 c 2,26,-1
 1050 280 l 2,27,28
 991 0 991 0 730 0 c 2,29,-1
 460 0 l 2,0,1
464 160 m 2,30,-1
 754 160 l 2,31,32
 844 160 844 160 863 250 c 2,33,-1
 991 850 l 2,34,35
 994 866 994 866 994 879 c 0,36,37
 994 940 994 940 920 940 c 2,38,-1
 630 940 l 2,39,40
 540 940 540 940 521 850 c 2,41,-1
 393 250 l 2,42,43
 390 234 390 234 390 221 c 0,44,45
 390 160 390 160 464 160 c 2,30,-1
EndSplineSet
Validated: 1
EndChar

StartChar: oe
Encoding: 339 339 208
Width: 1717
Flags: W
HStem: 0 160<394.631 843.921 1012.1 1408.97> 940 160<542.752 990.375 1175.95 1556.37>
VStem: 210 180<164.536 438.906> 994 181<662.625 935.137> 1561 180<790.608 934.279>
DStem2: 160.484 0 339.861 0 0.207912 0.978148<264.288 994.355> 809.861 0 990.484 0 0.207912 0.978148<205.407 418.727 597.596 897.678> 1106 548 1069 373 0.917466 0.397813<0 465.751> 1376.86 0 1557.48 0 0.207912 0.978148<167.79 313.835 750.423 897.678>
LayerCount: 2
Fore
SplineSet
464 160 m 2,0,-1
 754 160 l 2,1,2
 844 160 844 160 863 250 c 2,3,-1
 991 850 l 2,4,5
 994 866 994 866 994 879 c 0,6,7
 994 940 994 940 920 940 c 2,8,-1
 630 940 l 2,9,10
 540 940 540 940 521 850 c 2,11,-1
 393 250 l 2,12,13
 390 234 390 234 390 221 c 0,14,15
 390 160 390 160 464 160 c 2,0,-1
460 0 m 2,16,17
 210 0 210 0 210 195 c 0,18,19
 210 234 210 234 220 280 c 2,20,-1
 334 820 l 2,21,22
 393 1100 393 1100 654 1100 c 2,23,-1
 924 1100 l 2,24,25
 1020 1100 1020 1100 1076 1067 c 1,26,27
 1146 1100 1146 1100 1241 1100 c 2,28,-1
 1491 1100 l 2,29,30
 1741 1100 1741 1100 1741 905 c 0,31,32
 1741 867 1741 867 1731 820 c 2,33,-1
 1694 644 l 1,34,-1
 1069 373 l 1,35,-1
 1050 280 l 2,36,37
 1035 207 1035 207 1010 166 c 1,38,39
 1027 160 1027 160 1051 160 c 2,40,-1
 1321 160 l 2,41,42
 1411 160 1411 160 1430 250 c 2,43,-1
 1442 307 l 1,44,-1
 1629 388 l 1,45,-1
 1639 388 l 1,46,-1
 1617 280 l 2,47,48
 1560 0 1560 0 1297 0 c 2,49,-1
 1047 0 l 2,50,51
 950 0 950 0 895 33 c 1,52,53
 825 0 825 0 730 0 c 2,54,-1
 460 0 l 2,16,17
1106 548 m 1,55,-1
 1533 734 l 1,56,-1
 1558 850 l 2,57,58
 1561 866 1561 866 1561 879 c 0,59,60
 1561 940 1561 940 1487 940 c 2,61,-1
 1217 940 l 2,62,63
 1193 940 1193 940 1174 934 c 1,64,65
 1175 922 1175 922 1175 908 c 0,66,67
 1175 868 1175 868 1164 820 c 2,68,-1
 1106 548 l 1,55,-1
EndSplineSet
Validated: 1
EndChar

StartChar: eng
Encoding: 331 331 209
Width: 1190
Flags: W
HStem: -410 160<613 773.475> -20 21G<176 232.173> 940 160<562.752 1009.37>
VStem: 1014 180<783.581 934.279>
DStem2: 93.1029 -410 272.886 -410 0.207912 0.978148<518.901 1413.56> 742.861 -410 922.484 -410 0.207912 0.978148<167.334 1316.81>
LayerCount: 2
Fore
SplineSet
186 -20 m 1,0,-1
 176 -20 l 1,1,-1
 354 820 l 2,2,3
 413 1100 413 1100 674 1100 c 2,4,-1
 944 1100 l 2,5,6
 1194 1100 1194 1100 1194 905 c 0,7,8
 1194 866 1194 866 1184 820 c 2,9,-1
 982 -130 l 2,10,11
 922 -410 922 -410 663 -410 c 2,12,-1
 508 -410 l 1,13,-1
 510 -400 l 1,14,-1
 613 -250 l 1,15,-1
 687 -250 l 2,16,17
 777 -250 777 -250 796 -160 c 2,18,-1
 1011 850 l 2,19,20
 1014 866 1014 866 1014 879 c 0,21,22
 1014 940 1014 940 940 940 c 2,23,-1
 650 940 l 2,24,25
 560 940 560 940 541 850 c 2,26,-1
 373 61 l 1,27,-1
 186 -20 l 1,0,-1
EndSplineSet
Validated: 1
EndChar

StartChar: kgreenlandic
Encoding: 312 312 210
Width: 1170
Flags: W
HStem: -20 21G<196 252.173 826 882.173> 596 160<799 936.369> 1100 20G<561.827 618 1028.61 1101.73>
VStem: 941 180<440.428 590.279>
DStem2: 196 -20 375.783 -20 0.207912 0.978148<120.189 668.343 815.268 1082.64> 537 741 799 756 0.807591 0.589743<220.435 642.652> 826 -20 1005.78 -20 0.207912 0.978148<120.189 566.323>
LayerCount: 2
Fore
SplineSet
206 -20 m 1,0,-1
 196 -20 l 1,1,-1
 421 1039 l 1,2,-1
 608 1120 l 1,3,-1
 618 1120 l 1,4,-1
 537 741 l 1,5,-1
 1056 1120 l 1,6,-1
 1066 1120 l 1,7,-1
 1200 1045 l 1,8,-1
 799 756 l 1,9,-1
 871 756 l 2,10,11
 1121 756 1121 756 1121 561 c 0,12,13
 1121 523 1121 523 1111 476 c 2,14,-1
 1023 61 l 1,15,-1
 836 -20 l 1,16,-1
 826 -20 l 1,17,-1
 938 506 l 2,18,19
 941 520 941 520 941 535 c 0,20,21
 941 596 941 596 867 596 c 2,22,-1
 597 596 l 2,23,24
 507 596 507 596 488 506 c 2,25,-1
 393 61 l 1,26,-1
 206 -20 l 1,0,-1
EndSplineSet
Validated: 1
EndChar

StartChar: ij
Encoding: 307 307 211
Width: 1100
Flags: W
HStem: -410 160<503 663.475> -20 21G<196 252.173> 1100 20G<561.827 618 1081.83 1138> 1220 245<499.711 650.42 1019.71 1170.42>
VStem: 452 246<1267.59 1416.76> 972 246<1267.59 1416.76>
DStem2: 113.103 -410 292.886 -410 0.207912 0.978148<518.901 1481.35> 632.861 -410 812.484 -410 0.207912 0.978148<167.334 1481.4>
LayerCount: 2
Fore
SplineSet
601 1465 m 0,0,1
 653 1465 653 1465 679 1429 c 0,2,3
 698 1404 698 1404 698 1370 c 0,4,5
 698 1356 698 1356 695 1342 c 0,6,7
 684 1292 684 1292 641.5 1256 c 128,-1,8
 599 1220 599 1220 549 1220 c 128,-1,9
 499 1220 499 1220 471 1256 c 0,10,11
 452 1281 452 1281 452 1315 c 0,12,13
 452 1328 452 1328 455 1342 c 0,14,15
 466 1392 466 1392 508.5 1428.5 c 128,-1,16
 551 1465 551 1465 601 1465 c 0,0,1
1121 1465 m 0,17,18
 1173 1465 1173 1465 1199 1429 c 0,19,20
 1218 1404 1218 1404 1218 1370 c 0,21,22
 1218 1356 1218 1356 1215 1342 c 0,23,24
 1204 1292 1204 1292 1161.5 1256 c 128,-1,25
 1119 1220 1119 1220 1069 1220 c 128,-1,26
 1019 1220 1019 1220 991 1256 c 0,27,28
 972 1281 972 1281 972 1315 c 0,29,30
 972 1328 972 1328 975 1342 c 0,31,32
 986 1392 986 1392 1028.5 1428.5 c 128,-1,33
 1071 1465 1071 1465 1121 1465 c 0,17,18
398 -410 m 1,34,-1
 400 -400 l 1,35,-1
 503 -250 l 1,36,-1
 577 -250 l 2,37,38
 667 -250 667 -250 686 -160 c 2,39,-1
 941 1039 l 1,40,-1
 1128 1120 l 1,41,-1
 1138 1120 l 1,42,-1
 872 -130 l 2,43,44
 812 -410 812 -410 553 -410 c 2,45,-1
 398 -410 l 1,34,-1
196 -20 m 1,46,-1
 421 1039 l 1,47,-1
 608 1120 l 1,48,-1
 618 1120 l 1,49,-1
 393 61 l 1,50,-1
 206 -20 l 1,51,-1
 196 -20 l 1,46,-1
EndSplineSet
Validated: 1
EndChar

StartChar: hbar
Encoding: 295 295 212
Width: 1210
Flags: W
HStem: -20 21G<196 252.173 846 902.173> 940 160<610.656 1029.37> 1250 120<383 466 671 794> 1510 20G<648.827 705>
VStem: 1034 180<783.658 934.279>
DStem2: 196 -20 375.783 -20 0.207912 0.978148<120.189 1020 1160.85 1298.38 1458.38 1501.77> 846 -20 1025.78 -20 0.207912 0.978148<120.189 918.044>
LayerCount: 2
Fore
SplineSet
206 -20 m 1,0,-1
 196 -20 l 1,1,-1
 466 1250 l 1,2,-1
 306 1250 l 1,3,-1
 308 1260 l 1,4,-1
 383 1370 l 1,5,-1
 491 1370 l 1,6,-1
 508 1449 l 1,7,-1
 695 1530 l 1,8,-1
 705 1530 l 1,9,-1
 671 1370 l 1,10,-1
 871 1370 l 1,11,-1
 869 1360 l 1,12,-1
 794 1250 l 1,13,-1
 646 1250 l 1,14,-1
 609 1079 l 1,15,16
 662 1100 662 1100 714 1100 c 2,17,-1
 964 1100 l 2,18,19
 1214 1100 1214 1100 1214 905 c 0,20,21
 1214 866 1214 866 1204 820 c 2,22,-1
 1043 61 l 1,23,-1
 856 -20 l 1,24,-1
 846 -20 l 1,25,-1
 1031 850 l 2,26,27
 1034 866 1034 866 1034 879 c 0,28,29
 1034 940 1034 940 960 940 c 2,30,-1
 670 940 l 2,31,32
 580 940 580 940 561 850 c 2,33,-1
 393 61 l 1,34,-1
 206 -20 l 1,0,-1
EndSplineSet
Validated: 1
EndChar

StartChar: longs
Encoding: 383 383 213
Width: 820
Flags: W
HStem: -20 21G<216 272.173> 740 160<272 377> 1350 160<689.752 1026>
DStem2: 216 -20 395.783 -20 0.207912 0.978148<120.189 776.866 940.439 1433.98>
LayerCount: 2
Fore
SplineSet
226 -20 m 1,0,-1
 216 -20 l 1,1,-1
 377 740 l 1,2,-1
 167 740 l 1,3,-1
 169 750 l 1,4,-1
 272 900 l 1,5,-1
 411 900 l 1,6,-1
 481 1230 l 2,7,8
 540 1510 540 1510 801 1510 c 2,9,-1
 1131 1510 l 1,10,-1
 1129 1500 l 1,11,-1
 1026 1350 l 1,12,-1
 777 1350 l 2,13,14
 687 1350 687 1350 668 1260 c 2,15,-1
 413 61 l 1,16,-1
 226 -20 l 1,0,-1
EndSplineSet
Validated: 1
EndChar

StartChar: florin
Encoding: 402 402 214
Width: 800
Flags: W
HStem: -410 160<-17 143.475> 740 160<571 837> 1350 160<669.752 1006>
DStem2: 112.861 -410 292.484 -410 0.207912 0.978148<167.334 1213.05 1376.63 1832.74>
LayerCount: 2
Fore
SplineSet
-122 -410 m 1,0,-1
 -120 -400 l 1,1,-1
 -17 -250 l 1,2,-1
 57 -250 l 2,3,4
 147 -250 147 -250 166 -160 c 2,5,-1
 461 1230 l 2,6,7
 520 1510 520 1510 781 1510 c 2,8,-1
 1111 1510 l 1,9,-1
 1109 1500 l 1,10,-1
 1006 1350 l 1,11,-1
 757 1350 l 2,12,13
 667 1350 667 1350 648 1260 c 2,14,-1
 571 900 l 1,15,-1
 942 900 l 1,16,-1
 940 890 l 1,17,-1
 837 740 l 1,18,-1
 537 740 l 1,19,-1
 352 -130 l 2,20,21
 292 -410 292 -410 33 -410 c 2,22,-1
 -122 -410 l 1,0,-1
EndSplineSet
Validated: 1
EndChar

